<svg xmlns="http://www.w3.org/2000/svg" fill="none" viewBox="0 0 462 120" height="120" width="462">
<path stroke="#D9D9D9" d="M0.5 8C0.5 3.85786 3.85786 0.5 8 0.5H454C458.142 0.5 461.5 3.85787 461.5 8V112C461.5 116.142 458.142 119.5 454 119.5H8.00001C3.85788 119.5 0.5 116.142 0.5 112V8Z"></path>
<path fill="#434649" d="M24.01 26.922C24.066 27.0433 24.094 27.1647 24.094 27.286C24.094 27.5007 24.0053 27.6827 23.828 27.832C23.66 27.9813 23.464 28.056 23.24 28.056C23.0907 28.056 22.9507 28.0187 22.82 27.944C22.6893 27.86 22.5867 27.734 22.512 27.566L21.672 25.69H16.744L15.904 27.566C15.8293 27.734 15.7267 27.86 15.596 27.944C15.4653 28.0187 15.3207 28.056 15.162 28.056C14.9473 28.056 14.7513 27.9813 14.574 27.832C14.3967 27.6827 14.308 27.5007 14.308 27.286C14.308 27.1647 14.336 27.0433 14.392 26.922L18.256 18.62C18.34 18.4333 18.466 18.2933 18.634 18.2C18.8113 18.0973 18.998 18.046 19.194 18.046C19.39 18.046 19.572 18.0973 19.74 18.2C19.9173 18.2933 20.048 18.4333 20.132 18.62L24.01 26.922ZM17.36 24.29H21.056L19.208 20.132L17.36 24.29ZM28.6493 19.432C28.2199 19.46 27.9073 19.5907 27.7113 19.824C27.5153 20.0573 27.4173 20.3933 27.4173 20.832V21.154H28.6073C29.1299 21.154 29.3913 21.3733 29.3913 21.812C29.3913 22.2507 29.1299 22.47 28.6073 22.47H27.4173V27.244C27.4173 27.5147 27.3333 27.72 27.1653 27.86C27.0066 28 26.8013 28.07 26.5493 28.07C26.2973 28.07 26.0873 28 25.9193 27.86C25.7513 27.72 25.6673 27.5147 25.6673 27.244V22.47H24.9673C24.4446 22.47 24.1832 22.2507 24.1832 21.812C24.1832 21.3733 24.4446 21.154 24.9673 21.154H25.6673V21.056C25.6673 20.1787 25.8959 19.4927 26.3533 18.998C26.8199 18.494 27.4733 18.2093 28.3133 18.144L28.6773 18.116C29.0506 18.088 29.3119 18.13 29.4613 18.242C29.6199 18.3447 29.6993 18.508 29.6993 18.732C29.6993 19.1333 29.4706 19.3573 29.0133 19.404L28.6493 19.432ZM35.9658 19.768C35.6484 19.768 35.3964 19.684 35.2098 19.516C35.0231 19.3387 34.9298 19.11 34.9298 18.83C34.9298 18.55 35.0231 18.326 35.2098 18.158C35.3964 17.99 35.6484 17.906 35.9658 17.906C36.2738 17.906 36.5211 17.99 36.7078 18.158C36.9038 18.326 37.0018 18.55 37.0018 18.83C37.0018 19.11 36.9038 19.3387 36.7078 19.516C36.5211 19.684 36.2738 19.768 35.9658 19.768ZM36.0498 21.154C36.5724 21.154 36.8338 21.3733 36.8338 21.812V27.244C36.8338 27.5147 36.7498 27.7247 36.5818 27.874C36.4231 28.014 36.2178 28.084 35.9658 28.084C35.7138 28.084 35.5038 28.014 35.3358 27.874C35.1678 27.7247 35.0838 27.5147 35.0838 27.244V22.47H32.3118V27.244C32.3118 27.5147 32.2278 27.72 32.0598 27.86C31.9011 28 31.6958 28.07 31.4438 28.07C31.1918 28.07 30.9818 28 30.8138 27.86C30.6458 27.72 30.5618 27.5147 30.5618 27.244V22.47H29.8618C29.3391 22.47 29.0778 22.2507 29.0778 21.812C29.0778 21.3733 29.3391 21.154 29.8618 21.154H30.5618V21.084C30.5618 20.216 30.7904 19.53 31.2478 19.026C31.7144 18.5127 32.3678 18.2187 33.2078 18.144L33.5298 18.116C33.5764 18.1067 33.6464 18.102 33.7398 18.102C34.2344 18.102 34.4818 18.312 34.4818 18.732C34.4818 18.9373 34.4258 19.096 34.3138 19.208C34.2018 19.32 34.0478 19.3853 33.8518 19.404L33.5438 19.432C33.1144 19.4693 32.8018 19.6047 32.6058 19.838C32.4098 20.062 32.3118 20.3933 32.3118 20.832V21.154H36.0498ZM42.634 20.986C43.4554 20.986 44.0667 21.2193 44.468 21.686C44.8694 22.1527 45.07 22.8573 45.07 23.8V27.244C45.07 27.5053 44.9907 27.7107 44.832 27.86C44.6827 28.0093 44.4727 28.084 44.202 28.084C43.9314 28.084 43.7167 28.0093 43.558 27.86C43.3994 27.7107 43.32 27.5053 43.32 27.244V23.898C43.32 23.366 43.2174 22.9787 43.012 22.736C42.816 22.4933 42.5034 22.372 42.074 22.372C41.57 22.372 41.164 22.5307 40.856 22.848C40.5574 23.1653 40.408 23.59 40.408 24.122V27.244C40.408 27.5053 40.3287 27.7107 40.17 27.86C40.0114 28.0093 39.7967 28.084 39.526 28.084C39.2554 28.084 39.0407 28.0093 38.882 27.86C38.7327 27.7107 38.658 27.5053 38.658 27.244V21.826C38.658 21.5833 38.7374 21.3873 38.896 21.238C39.0547 21.0887 39.2694 21.014 39.54 21.014C39.7827 21.014 39.9787 21.0887 40.128 21.238C40.2867 21.378 40.366 21.5647 40.366 21.798V22.176C40.5994 21.7933 40.912 21.4993 41.304 21.294C41.696 21.0887 42.1394 20.986 42.634 20.986ZM47.7155 28.084C47.4635 28.084 47.2535 28.014 47.0855 27.874C46.9268 27.7247 46.8475 27.5147 46.8475 27.244V21.84C46.8475 21.5693 46.9268 21.364 47.0855 21.224C47.2535 21.084 47.4635 21.014 47.7155 21.014C47.9675 21.014 48.1775 21.084 48.3455 21.224C48.5135 21.364 48.5975 21.5693 48.5975 21.84V27.244C48.5975 27.5147 48.5135 27.7247 48.3455 27.874C48.1775 28.014 47.9675 28.084 47.7155 28.084ZM47.7155 19.768C47.3982 19.768 47.1462 19.684 46.9595 19.516C46.7728 19.3387 46.6795 19.11 46.6795 18.83C46.6795 18.55 46.7728 18.326 46.9595 18.158C47.1462 17.99 47.3982 17.906 47.7155 17.906C48.0235 17.906 48.2708 17.99 48.4575 18.158C48.6535 18.326 48.7515 18.55 48.7515 18.83C48.7515 19.11 48.6582 19.3387 48.4715 19.516C48.2848 19.684 48.0328 19.768 47.7155 19.768ZM54.259 26.782C54.7256 26.81 54.959 27.02 54.959 27.412C54.959 27.636 54.8656 27.8087 54.679 27.93C54.5016 28.042 54.245 28.0887 53.909 28.07L53.531 28.042C51.963 27.93 51.179 27.09 51.179 25.522V22.47H50.479C50.227 22.47 50.031 22.414 49.891 22.302C49.7603 22.19 49.695 22.0267 49.695 21.812C49.695 21.5973 49.7603 21.434 49.891 21.322C50.031 21.21 50.227 21.154 50.479 21.154H51.179V19.866C51.179 19.614 51.2583 19.4133 51.417 19.264C51.5756 19.1147 51.7903 19.04 52.061 19.04C52.3223 19.04 52.5323 19.1147 52.691 19.264C52.8496 19.4133 52.929 19.614 52.929 19.866V21.154H54.119C54.371 21.154 54.5623 21.21 54.693 21.322C54.833 21.434 54.903 21.5973 54.903 21.812C54.903 22.0267 54.833 22.19 54.693 22.302C54.5623 22.414 54.371 22.47 54.119 22.47H52.929V25.648C52.929 26.3387 53.2463 26.7073 53.881 26.754L54.259 26.782ZM56.7389 28.084C56.4869 28.084 56.2769 28.014 56.1089 27.874C55.9503 27.7247 55.8709 27.5147 55.8709 27.244V21.84C55.8709 21.5693 55.9503 21.364 56.1089 21.224C56.2769 21.084 56.4869 21.014 56.7389 21.014C56.9909 21.014 57.2009 21.084 57.3689 21.224C57.5369 21.364 57.6209 21.5693 57.6209 21.84V27.244C57.6209 27.5147 57.5369 27.7247 57.3689 27.874C57.2009 28.014 56.9909 28.084 56.7389 28.084ZM56.7389 19.768C56.4216 19.768 56.1696 19.684 55.9829 19.516C55.7963 19.3387 55.7029 19.11 55.7029 18.83C55.7029 18.55 55.7963 18.326 55.9829 18.158C56.1696 17.99 56.4216 17.906 56.7389 17.906C57.0469 17.906 57.2943 17.99 57.4809 18.158C57.6769 18.326 57.7749 18.55 57.7749 18.83C57.7749 19.11 57.6816 19.3387 57.4949 19.516C57.3083 19.684 57.0563 19.768 56.7389 19.768ZM64.8436 26.124C65.0023 26.124 65.1283 26.1847 65.2216 26.306C65.3243 26.4273 65.3756 26.5907 65.3756 26.796C65.3756 27.0853 65.203 27.328 64.8576 27.524C64.5403 27.7013 64.181 27.846 63.7796 27.958C63.3783 28.0607 62.9956 28.112 62.6316 28.112C61.5303 28.112 60.6576 27.7947 60.0136 27.16C59.3696 26.5253 59.0476 25.6573 59.0476 24.556C59.0476 23.856 59.1876 23.2353 59.4676 22.694C59.7476 22.1527 60.1396 21.7327 60.6436 21.434C61.157 21.1353 61.7356 20.986 62.3796 20.986C62.9956 20.986 63.5323 21.1213 63.9896 21.392C64.447 21.6627 64.8016 22.0453 65.0536 22.54C65.3056 23.0347 65.4316 23.618 65.4316 24.29C65.4316 24.6913 65.2543 24.892 64.8996 24.892H60.7696C60.8256 25.536 61.0076 26.012 61.3156 26.32C61.6236 26.6187 62.0716 26.768 62.6596 26.768C62.9583 26.768 63.2196 26.7307 63.4436 26.656C63.677 26.5813 63.9383 26.4787 64.2276 26.348C64.5076 26.1987 64.713 26.124 64.8436 26.124ZM62.4216 22.218C61.9456 22.218 61.563 22.3673 61.2736 22.666C60.9936 22.9647 60.8256 23.394 60.7696 23.954H63.9336C63.915 23.3847 63.775 22.9553 63.5136 22.666C63.2523 22.3673 62.8883 22.218 62.4216 22.218ZM69.3411 28.112C68.3238 28.112 67.5025 27.9113 66.8771 27.51C66.5785 27.3327 66.4291 27.0807 66.4291 26.754C66.4291 26.5673 66.4805 26.418 66.5831 26.306C66.6858 26.1847 66.8118 26.124 66.9611 26.124C67.1198 26.124 67.3391 26.1987 67.6191 26.348C67.9178 26.488 68.1885 26.5953 68.4311 26.67C68.6831 26.7447 69.0005 26.782 69.3831 26.782C69.7751 26.782 70.0785 26.7167 70.2931 26.586C70.5171 26.4553 70.6291 26.2733 70.6291 26.04C70.6291 25.8813 70.5825 25.7553 70.4891 25.662C70.4051 25.5687 70.2465 25.4847 70.0131 25.41C69.7891 25.326 69.4438 25.2327 68.9771 25.13C68.1465 24.962 67.5491 24.724 67.1851 24.416C66.8305 24.108 66.6531 23.6833 66.6531 23.142C66.6531 22.7313 66.7745 22.3627 67.0171 22.036C67.2598 21.7 67.5911 21.4433 68.0111 21.266C68.4405 21.0793 68.9258 20.986 69.4671 20.986C69.8591 20.986 70.2371 21.0373 70.6011 21.14C70.9651 21.2333 71.2918 21.3733 71.5811 21.56C71.8798 21.7467 72.0291 21.994 72.0291 22.302C72.0291 22.4887 71.9778 22.6473 71.8751 22.778C71.7725 22.8993 71.6465 22.96 71.4971 22.96C71.3945 22.96 71.2918 22.9413 71.1891 22.904C71.0958 22.8573 70.9745 22.792 70.8251 22.708C70.5545 22.568 70.3211 22.4653 70.1251 22.4C69.9291 22.3253 69.6865 22.288 69.3971 22.288C69.0518 22.288 68.7765 22.358 68.5711 22.498C68.3751 22.638 68.2771 22.8293 68.2771 23.072C68.2771 23.3053 68.3798 23.4827 68.5851 23.604C68.7905 23.7253 69.1871 23.8467 69.7751 23.968C70.4005 24.0987 70.8905 24.248 71.2451 24.416C71.5998 24.584 71.8518 24.794 72.0011 25.046C72.1598 25.298 72.2391 25.62 72.2391 26.012C72.2391 26.6467 71.9731 27.1553 71.4411 27.538C70.9185 27.9207 70.2185 28.112 69.3411 28.112Z"></path>
<rect fill="#FCF2FF" rx="7.5" height="26" width="58" y="44.5" x="17.5"></rect>
<path fill="#4F4F4F" d="M34.536 61.06C34.384 61.06 34.264 61.016 34.176 60.928C34.088 60.832 34.044 60.708 34.044 60.556V53.02C34.044 52.876 34.088 52.76 34.176 52.672C34.272 52.584 34.396 52.54 34.548 52.54H37.392C38.28 52.54 38.968 52.756 39.456 53.188C39.952 53.62 40.2 54.232 40.2 55.024C40.2 55.816 39.952 56.432 39.456 56.872C38.96 57.312 38.272 57.532 37.392 57.532H35.028V60.556C35.028 60.708 34.984 60.832 34.896 60.928C34.808 61.016 34.688 61.06 34.536 61.06ZM37.296 56.716C38.584 56.716 39.228 56.152 39.228 55.024C39.228 53.912 38.584 53.356 37.296 53.356H35.028V56.716H37.296ZM45.9709 59.644C46.0589 59.644 46.1349 59.68 46.1989 59.752C46.2629 59.824 46.2949 59.916 46.2949 60.028C46.2949 60.228 46.1549 60.412 45.8749 60.58C45.5869 60.748 45.2829 60.876 44.9629 60.964C44.6429 61.044 44.3309 61.084 44.0269 61.084C43.1229 61.084 42.4069 60.816 41.8789 60.28C41.3589 59.744 41.0989 59.004 41.0989 58.06C41.0989 57.46 41.2149 56.932 41.4469 56.476C41.6789 56.012 42.0029 55.652 42.4189 55.396C42.8429 55.14 43.3229 55.012 43.8589 55.012C44.6189 55.012 45.2229 55.26 45.6709 55.756C46.1189 56.252 46.3429 56.924 46.3429 57.772C46.3429 57.932 46.3109 58.048 46.2469 58.12C46.1829 58.192 46.0789 58.228 45.9349 58.228H42.0709C42.1429 59.604 42.7949 60.292 44.0269 60.292C44.3389 60.292 44.6069 60.252 44.8309 60.172C45.0549 60.084 45.2949 59.968 45.5509 59.824C45.7589 59.704 45.8989 59.644 45.9709 59.644ZM43.8709 55.768C43.3589 55.768 42.9469 55.928 42.6349 56.248C42.3309 56.568 42.1509 57.02 42.0949 57.604H45.4909C45.4749 57.012 45.3269 56.56 45.0469 56.248C44.7669 55.928 44.3749 55.768 43.8709 55.768ZM50.4398 60.292C50.7198 60.316 50.8598 60.444 50.8598 60.676C50.8598 60.812 50.8078 60.916 50.7038 60.988C50.6078 61.052 50.4598 61.076 50.2598 61.06L49.9358 61.036C49.2958 60.988 48.8238 60.796 48.5198 60.46C48.2158 60.124 48.0638 59.616 48.0638 58.936V55.924H47.2598C47.1238 55.924 47.0158 55.892 46.9358 55.828C46.8638 55.756 46.8278 55.664 46.8278 55.552C46.8278 55.432 46.8638 55.336 46.9358 55.264C47.0158 55.192 47.1238 55.156 47.2598 55.156H48.0638V53.8C48.0638 53.648 48.1078 53.532 48.1958 53.452C48.2838 53.364 48.4038 53.32 48.5558 53.32C48.6998 53.32 48.8158 53.364 48.9038 53.452C48.9918 53.532 49.0358 53.648 49.0358 53.8V55.156H50.3678C50.4958 55.156 50.5958 55.192 50.6678 55.264C50.7478 55.336 50.7878 55.432 50.7878 55.552C50.7878 55.664 50.7478 55.756 50.6678 55.828C50.5958 55.892 50.4958 55.924 50.3678 55.924H49.0358V58.984C49.0358 59.424 49.1238 59.744 49.2998 59.944C49.4838 60.136 49.7558 60.244 50.1158 60.268L50.4398 60.292ZM53.786 61.084C53.418 61.084 53.066 61.04 52.73 60.952C52.402 60.864 52.11 60.74 51.854 60.58C51.71 60.484 51.606 60.396 51.542 60.316C51.486 60.228 51.458 60.124 51.458 60.004C51.458 59.9 51.486 59.816 51.542 59.752C51.606 59.68 51.686 59.644 51.782 59.644C51.878 59.644 52.018 59.704 52.202 59.824C52.442 59.968 52.678 60.084 52.91 60.172C53.15 60.252 53.446 60.292 53.798 60.292C54.23 60.292 54.566 60.216 54.806 60.064C55.046 59.912 55.166 59.692 55.166 59.404C55.166 59.228 55.122 59.088 55.034 58.984C54.946 58.872 54.794 58.776 54.578 58.696C54.362 58.608 54.046 58.52 53.63 58.432C52.926 58.28 52.422 58.076 52.118 57.82C51.814 57.564 51.662 57.216 51.662 56.776C51.662 56.432 51.758 56.128 51.95 55.864C52.142 55.6 52.406 55.392 52.742 55.24C53.086 55.088 53.474 55.012 53.906 55.012C54.218 55.012 54.518 55.056 54.806 55.144C55.102 55.224 55.362 55.34 55.586 55.492C55.858 55.684 55.994 55.884 55.994 56.092C55.994 56.196 55.962 56.284 55.898 56.356C55.834 56.428 55.758 56.464 55.67 56.464C55.574 56.464 55.43 56.396 55.238 56.26C55.014 56.116 54.802 56.004 54.602 55.924C54.402 55.844 54.154 55.804 53.858 55.804C53.482 55.804 53.178 55.888 52.946 56.056C52.722 56.224 52.61 56.448 52.61 56.728C52.61 56.904 52.65 57.048 52.73 57.16C52.818 57.264 52.958 57.36 53.15 57.448C53.35 57.528 53.634 57.608 54.002 57.688C54.546 57.808 54.966 57.94 55.262 58.084C55.566 58.228 55.782 58.404 55.91 58.612C56.038 58.82 56.102 59.084 56.102 59.404C56.102 59.908 55.89 60.316 55.466 60.628C55.042 60.932 54.482 61.084 53.786 61.084Z"></path>
<rect stroke="#DCC3E6" rx="7.5" height="26" width="58" y="44.5" x="17.5"></rect>
<rect fill="#FCF2FF" rx="7.5" height="26" width="58" y="78.5" x="94.5"></rect>
<path fill="#4F4F4F" d="M111.536 95.06C111.384 95.06 111.264 95.016 111.176 94.928C111.088 94.832 111.044 94.708 111.044 94.556V87.02C111.044 86.876 111.088 86.76 111.176 86.672C111.272 86.584 111.396 86.54 111.548 86.54H114.392C115.28 86.54 115.968 86.756 116.456 87.188C116.952 87.62 117.2 88.232 117.2 89.024C117.2 89.816 116.952 90.432 116.456 90.872C115.96 91.312 115.272 91.532 114.392 91.532H112.028V94.556C112.028 94.708 111.984 94.832 111.896 94.928C111.808 95.016 111.688 95.06 111.536 95.06ZM114.296 90.716C115.584 90.716 116.228 90.152 116.228 89.024C116.228 87.912 115.584 87.356 114.296 87.356H112.028V90.716H114.296ZM122.971 93.644C123.059 93.644 123.135 93.68 123.199 93.752C123.263 93.824 123.295 93.916 123.295 94.028C123.295 94.228 123.155 94.412 122.875 94.58C122.587 94.748 122.283 94.876 121.963 94.964C121.643 95.044 121.331 95.084 121.027 95.084C120.123 95.084 119.407 94.816 118.879 94.28C118.359 93.744 118.099 93.004 118.099 92.06C118.099 91.46 118.215 90.932 118.447 90.476C118.679 90.012 119.003 89.652 119.419 89.396C119.843 89.14 120.323 89.012 120.859 89.012C121.619 89.012 122.223 89.26 122.671 89.756C123.119 90.252 123.343 90.924 123.343 91.772C123.343 91.932 123.311 92.048 123.247 92.12C123.183 92.192 123.079 92.228 122.935 92.228H119.071C119.143 93.604 119.795 94.292 121.027 94.292C121.339 94.292 121.607 94.252 121.831 94.172C122.055 94.084 122.295 93.968 122.551 93.824C122.759 93.704 122.899 93.644 122.971 93.644ZM120.871 89.768C120.359 89.768 119.947 89.928 119.635 90.248C119.331 90.568 119.151 91.02 119.095 91.604H122.491C122.475 91.012 122.327 90.56 122.047 90.248C121.767 89.928 121.375 89.768 120.871 89.768ZM127.44 94.292C127.72 94.316 127.86 94.444 127.86 94.676C127.86 94.812 127.808 94.916 127.704 94.988C127.608 95.052 127.46 95.076 127.26 95.06L126.936 95.036C126.296 94.988 125.824 94.796 125.52 94.46C125.216 94.124 125.064 93.616 125.064 92.936V89.924H124.26C124.124 89.924 124.016 89.892 123.936 89.828C123.864 89.756 123.828 89.664 123.828 89.552C123.828 89.432 123.864 89.336 123.936 89.264C124.016 89.192 124.124 89.156 124.26 89.156H125.064V87.8C125.064 87.648 125.108 87.532 125.196 87.452C125.284 87.364 125.404 87.32 125.556 87.32C125.7 87.32 125.816 87.364 125.904 87.452C125.992 87.532 126.036 87.648 126.036 87.8V89.156H127.368C127.496 89.156 127.596 89.192 127.668 89.264C127.748 89.336 127.788 89.432 127.788 89.552C127.788 89.664 127.748 89.756 127.668 89.828C127.596 89.892 127.496 89.924 127.368 89.924H126.036V92.984C126.036 93.424 126.124 93.744 126.3 93.944C126.484 94.136 126.756 94.244 127.116 94.268L127.44 94.292ZM130.786 95.084C130.418 95.084 130.066 95.04 129.73 94.952C129.402 94.864 129.11 94.74 128.854 94.58C128.71 94.484 128.606 94.396 128.542 94.316C128.486 94.228 128.458 94.124 128.458 94.004C128.458 93.9 128.486 93.816 128.542 93.752C128.606 93.68 128.686 93.644 128.782 93.644C128.878 93.644 129.018 93.704 129.202 93.824C129.442 93.968 129.678 94.084 129.91 94.172C130.15 94.252 130.446 94.292 130.798 94.292C131.23 94.292 131.566 94.216 131.806 94.064C132.046 93.912 132.166 93.692 132.166 93.404C132.166 93.228 132.122 93.088 132.034 92.984C131.946 92.872 131.794 92.776 131.578 92.696C131.362 92.608 131.046 92.52 130.63 92.432C129.926 92.28 129.422 92.076 129.118 91.82C128.814 91.564 128.662 91.216 128.662 90.776C128.662 90.432 128.758 90.128 128.95 89.864C129.142 89.6 129.406 89.392 129.742 89.24C130.086 89.088 130.474 89.012 130.906 89.012C131.218 89.012 131.518 89.056 131.806 89.144C132.102 89.224 132.362 89.34 132.586 89.492C132.858 89.684 132.994 89.884 132.994 90.092C132.994 90.196 132.962 90.284 132.898 90.356C132.834 90.428 132.758 90.464 132.67 90.464C132.574 90.464 132.43 90.396 132.238 90.26C132.014 90.116 131.802 90.004 131.602 89.924C131.402 89.844 131.154 89.804 130.858 89.804C130.482 89.804 130.178 89.888 129.946 90.056C129.722 90.224 129.61 90.448 129.61 90.728C129.61 90.904 129.65 91.048 129.73 91.16C129.818 91.264 129.958 91.36 130.15 91.448C130.35 91.528 130.634 91.608 131.002 91.688C131.546 91.808 131.966 91.94 132.262 92.084C132.566 92.228 132.782 92.404 132.91 92.612C133.038 92.82 133.102 93.084 133.102 93.404C133.102 93.908 132.89 94.316 132.466 94.628C132.042 94.932 131.482 95.084 130.786 95.084Z"></path>
<rect stroke="#DCC3E6" rx="7.5" height="26" width="58" y="78.5" x="94.5"></rect>
<rect fill="#FCF2FF" rx="7.5" height="26" width="97" y="43.5" x="84.5"></rect>
<path fill="#4F4F4F" d="M107.5 59.388C107.556 59.476 107.584 59.568 107.584 59.664C107.584 59.784 107.536 59.884 107.44 59.964C107.352 60.036 107.248 60.072 107.128 60.072C106.944 60.072 106.8 59.992 106.696 59.832L105.088 57.288C104.88 56.96 104.664 56.736 104.44 56.616C104.216 56.488 103.912 56.424 103.528 56.424H102.016V59.556C102.016 59.708 101.972 59.832 101.884 59.928C101.796 60.016 101.68 60.06 101.536 60.06C101.384 60.06 101.264 60.016 101.176 59.928C101.088 59.832 101.044 59.708 101.044 59.556V52.02C101.044 51.876 101.088 51.76 101.176 51.672C101.272 51.584 101.396 51.54 101.548 51.54H104.524C105.444 51.54 106.144 51.744 106.624 52.152C107.112 52.56 107.356 53.16 107.356 53.952C107.356 54.624 107.16 55.164 106.768 55.572C106.384 55.98 105.832 56.228 105.112 56.316C105.312 56.38 105.492 56.484 105.652 56.628C105.812 56.772 105.972 56.972 106.132 57.228L107.5 59.388ZM104.44 55.608C105.096 55.608 105.584 55.472 105.904 55.2C106.232 54.928 106.396 54.516 106.396 53.964C106.396 53.42 106.236 53.016 105.916 52.752C105.596 52.488 105.104 52.356 104.44 52.356H102.016V55.608H104.44ZM111.503 54.012C112.967 54.012 113.699 54.78 113.699 56.316V59.58C113.699 59.724 113.655 59.84 113.567 59.928C113.487 60.016 113.375 60.06 113.231 60.06C113.087 60.06 112.971 60.016 112.883 59.928C112.795 59.84 112.751 59.724 112.751 59.58V59.004C112.599 59.348 112.367 59.616 112.055 59.808C111.743 59.992 111.383 60.084 110.975 60.084C110.599 60.084 110.251 60.008 109.931 59.856C109.619 59.704 109.371 59.492 109.187 59.22C109.003 58.948 108.911 58.648 108.911 58.32C108.911 57.88 109.023 57.54 109.247 57.3C109.471 57.052 109.839 56.876 110.351 56.772C110.863 56.66 111.575 56.604 112.487 56.604H112.751V56.208C112.751 55.728 112.651 55.376 112.451 55.152C112.259 54.928 111.943 54.816 111.503 54.816C110.959 54.816 110.407 54.964 109.847 55.26C109.631 55.396 109.479 55.464 109.391 55.464C109.295 55.464 109.215 55.428 109.151 55.356C109.087 55.284 109.055 55.192 109.055 55.08C109.055 54.968 109.087 54.872 109.151 54.792C109.223 54.704 109.335 54.616 109.487 54.528C109.767 54.368 110.083 54.244 110.435 54.156C110.795 54.06 111.151 54.012 111.503 54.012ZM111.107 59.316C111.587 59.316 111.979 59.156 112.283 58.836C112.595 58.508 112.751 58.088 112.751 57.576V57.228H112.535C111.831 57.228 111.295 57.26 110.927 57.324C110.559 57.38 110.295 57.48 110.135 57.624C109.983 57.76 109.907 57.964 109.907 58.236C109.907 58.548 110.019 58.808 110.243 59.016C110.475 59.216 110.763 59.316 111.107 59.316ZM118.418 54.012C119.818 54.012 120.518 54.784 120.518 56.328V59.58C120.518 59.732 120.474 59.852 120.386 59.94C120.306 60.02 120.19 60.06 120.038 60.06C119.886 60.06 119.766 60.02 119.678 59.94C119.59 59.852 119.546 59.732 119.546 59.58V56.388C119.546 55.844 119.438 55.448 119.222 55.2C119.014 54.952 118.678 54.828 118.214 54.828C117.678 54.828 117.25 54.992 116.93 55.32C116.61 55.648 116.45 56.092 116.45 56.652V59.58C116.45 59.732 116.406 59.852 116.318 59.94C116.238 60.02 116.122 60.06 115.97 60.06C115.818 60.06 115.698 60.02 115.61 59.94C115.522 59.852 115.478 59.732 115.478 59.58V54.516C115.478 54.372 115.522 54.256 115.61 54.168C115.698 54.08 115.818 54.036 115.97 54.036C116.114 54.036 116.226 54.08 116.306 54.168C116.394 54.256 116.438 54.368 116.438 54.504V55.116C116.63 54.756 116.898 54.484 117.242 54.3C117.586 54.108 117.978 54.012 118.418 54.012ZM127.038 54.036C127.19 54.036 127.31 54.08 127.398 54.168C127.486 54.256 127.53 54.372 127.53 54.516V59.604C127.53 60.476 127.306 61.132 126.858 61.572C126.41 62.02 125.746 62.244 124.866 62.244C124.01 62.244 123.298 62.076 122.73 61.74C122.442 61.58 122.298 61.396 122.298 61.188C122.298 61.076 122.326 60.984 122.382 60.912C122.446 60.84 122.526 60.804 122.622 60.804C122.702 60.804 122.846 60.86 123.054 60.972C123.334 61.116 123.61 61.232 123.882 61.32C124.154 61.408 124.478 61.452 124.854 61.452C125.422 61.452 125.85 61.3 126.138 60.996C126.426 60.7 126.57 60.264 126.57 59.688V58.656C126.402 59.032 126.142 59.32 125.79 59.52C125.446 59.72 125.038 59.82 124.566 59.82C124.054 59.82 123.598 59.7 123.198 59.46C122.806 59.22 122.498 58.88 122.274 58.44C122.058 58 121.95 57.492 121.95 56.916C121.95 56.34 122.058 55.832 122.274 55.392C122.498 54.952 122.806 54.612 123.198 54.372C123.598 54.132 124.054 54.012 124.566 54.012C125.03 54.012 125.434 54.112 125.778 54.312C126.122 54.512 126.382 54.796 126.558 55.164V54.516C126.558 54.372 126.598 54.256 126.678 54.168C126.766 54.08 126.886 54.036 127.038 54.036ZM124.758 59.016C125.318 59.016 125.758 58.832 126.078 58.464C126.398 58.088 126.558 57.572 126.558 56.916C126.558 56.268 126.398 55.76 126.078 55.392C125.766 55.016 125.326 54.828 124.758 54.828C124.19 54.828 123.742 55.016 123.414 55.392C123.094 55.76 122.934 56.268 122.934 56.916C122.934 57.572 123.094 58.088 123.414 58.464C123.742 58.832 124.19 59.016 124.758 59.016ZM133.854 58.644C133.942 58.644 134.018 58.68 134.082 58.752C134.146 58.824 134.178 58.916 134.178 59.028C134.178 59.228 134.038 59.412 133.758 59.58C133.47 59.748 133.166 59.876 132.846 59.964C132.526 60.044 132.214 60.084 131.91 60.084C131.006 60.084 130.29 59.816 129.762 59.28C129.242 58.744 128.982 58.004 128.982 57.06C128.982 56.46 129.098 55.932 129.33 55.476C129.562 55.012 129.886 54.652 130.302 54.396C130.726 54.14 131.206 54.012 131.742 54.012C132.502 54.012 133.106 54.26 133.554 54.756C134.002 55.252 134.226 55.924 134.226 56.772C134.226 56.932 134.194 57.048 134.13 57.12C134.066 57.192 133.962 57.228 133.818 57.228H129.954C130.026 58.604 130.678 59.292 131.91 59.292C132.222 59.292 132.49 59.252 132.714 59.172C132.938 59.084 133.178 58.968 133.434 58.824C133.642 58.704 133.782 58.644 133.854 58.644ZM131.754 54.768C131.242 54.768 130.83 54.928 130.518 55.248C130.214 55.568 130.034 56.02 129.978 56.604H133.374C133.358 56.012 133.21 55.56 132.93 55.248C132.65 54.928 132.258 54.768 131.754 54.768ZM145.352 59.388C145.408 59.476 145.436 59.568 145.436 59.664C145.436 59.784 145.388 59.884 145.292 59.964C145.204 60.036 145.1 60.072 144.98 60.072C144.796 60.072 144.652 59.992 144.548 59.832L142.94 57.288C142.732 56.96 142.516 56.736 142.292 56.616C142.068 56.488 141.764 56.424 141.38 56.424H139.868V59.556C139.868 59.708 139.824 59.832 139.736 59.928C139.648 60.016 139.532 60.06 139.388 60.06C139.236 60.06 139.116 60.016 139.028 59.928C138.94 59.832 138.896 59.708 138.896 59.556V52.02C138.896 51.876 138.94 51.76 139.028 51.672C139.124 51.584 139.248 51.54 139.4 51.54H142.376C143.296 51.54 143.996 51.744 144.476 52.152C144.964 52.56 145.208 53.16 145.208 53.952C145.208 54.624 145.012 55.164 144.62 55.572C144.236 55.98 143.684 56.228 142.964 56.316C143.164 56.38 143.344 56.484 143.504 56.628C143.664 56.772 143.824 56.972 143.984 57.228L145.352 59.388ZM142.292 55.608C142.948 55.608 143.436 55.472 143.756 55.2C144.084 54.928 144.248 54.516 144.248 53.964C144.248 53.42 144.088 53.016 143.768 52.752C143.448 52.488 142.956 52.356 142.292 52.356H139.868V55.608H142.292ZM149.402 60.084C148.85 60.084 148.362 59.96 147.938 59.712C147.522 59.464 147.198 59.112 146.966 58.656C146.742 58.192 146.63 57.656 146.63 57.048C146.63 56.44 146.742 55.908 146.966 55.452C147.198 54.988 147.522 54.632 147.938 54.384C148.362 54.136 148.85 54.012 149.402 54.012C149.954 54.012 150.442 54.136 150.866 54.384C151.29 54.632 151.614 54.988 151.838 55.452C152.07 55.908 152.186 56.44 152.186 57.048C152.186 57.656 152.07 58.192 151.838 58.656C151.614 59.112 151.29 59.464 150.866 59.712C150.442 59.96 149.954 60.084 149.402 60.084ZM149.402 59.28C149.978 59.28 150.418 59.092 150.722 58.716C151.034 58.332 151.19 57.776 151.19 57.048C151.19 56.336 151.034 55.788 150.722 55.404C150.41 55.012 149.97 54.816 149.402 54.816C148.834 54.816 148.394 55.012 148.082 55.404C147.77 55.788 147.614 56.336 147.614 57.048C147.614 57.768 147.766 58.32 148.07 58.704C148.382 59.088 148.826 59.28 149.402 59.28ZM157.776 54.336C157.864 54.144 158.004 54.048 158.196 54.048C158.316 54.048 158.424 54.088 158.52 54.168C158.616 54.248 158.664 54.348 158.664 54.468C158.664 54.54 158.648 54.604 158.616 54.66L156.276 59.7C156.228 59.804 156.156 59.888 156.06 59.952C155.964 60.008 155.86 60.036 155.748 60.036C155.644 60.036 155.544 60.008 155.448 59.952C155.352 59.888 155.276 59.804 155.22 59.7L152.892 54.66C152.86 54.604 152.844 54.544 152.844 54.48C152.844 54.36 152.896 54.256 153 54.168C153.112 54.08 153.232 54.036 153.36 54.036C153.44 54.036 153.516 54.06 153.588 54.108C153.668 54.156 153.728 54.224 153.768 54.312L155.772 58.812L157.776 54.336ZM164.182 58.644C164.27 58.644 164.346 58.68 164.41 58.752C164.474 58.824 164.506 58.916 164.506 59.028C164.506 59.228 164.366 59.412 164.086 59.58C163.798 59.748 163.494 59.876 163.174 59.964C162.854 60.044 162.542 60.084 162.238 60.084C161.334 60.084 160.618 59.816 160.09 59.28C159.57 58.744 159.31 58.004 159.31 57.06C159.31 56.46 159.426 55.932 159.658 55.476C159.89 55.012 160.214 54.652 160.63 54.396C161.054 54.14 161.534 54.012 162.07 54.012C162.83 54.012 163.434 54.26 163.882 54.756C164.33 55.252 164.554 55.924 164.554 56.772C164.554 56.932 164.522 57.048 164.458 57.12C164.394 57.192 164.29 57.228 164.146 57.228H160.282C160.354 58.604 161.006 59.292 162.238 59.292C162.55 59.292 162.818 59.252 163.042 59.172C163.266 59.084 163.506 58.968 163.762 58.824C163.97 58.704 164.11 58.644 164.182 58.644ZM162.082 54.768C161.57 54.768 161.158 54.928 160.846 55.248C160.542 55.568 160.362 56.02 160.306 56.604H163.702C163.686 56.012 163.538 55.56 163.258 55.248C162.978 54.928 162.586 54.768 162.082 54.768ZM168.878 54.036C169.214 54.012 169.382 54.148 169.382 54.444C169.382 54.572 169.346 54.676 169.274 54.756C169.202 54.828 169.078 54.872 168.902 54.888L168.542 54.924C168.006 54.972 167.606 55.164 167.342 55.5C167.086 55.828 166.958 56.216 166.958 56.664V59.58C166.958 59.74 166.914 59.86 166.826 59.94C166.738 60.02 166.622 60.06 166.478 60.06C166.334 60.06 166.214 60.02 166.118 59.94C166.03 59.852 165.986 59.732 165.986 59.58V54.516C165.986 54.364 166.034 54.248 166.13 54.168C166.226 54.08 166.342 54.036 166.478 54.036C166.606 54.036 166.714 54.08 166.802 54.168C166.89 54.248 166.934 54.36 166.934 54.504V55.176C167.102 54.824 167.338 54.556 167.642 54.372C167.954 54.188 168.31 54.08 168.71 54.048L168.878 54.036Z"></path>
<rect stroke="#DCC3E6" rx="7.5" height="26" width="97" y="43.5" x="84.5"></rect>
<rect fill="#FCF2FF" rx="7.5" height="26" width="97" y="77.5" x="163.5"></rect>
<path fill="#4F4F4F" d="M186.5 93.388C186.556 93.476 186.584 93.568 186.584 93.664C186.584 93.784 186.536 93.884 186.44 93.964C186.352 94.036 186.248 94.072 186.128 94.072C185.944 94.072 185.8 93.992 185.696 93.832L184.088 91.288C183.88 90.96 183.664 90.736 183.44 90.616C183.216 90.488 182.912 90.424 182.528 90.424H181.016V93.556C181.016 93.708 180.972 93.832 180.884 93.928C180.796 94.016 180.68 94.06 180.536 94.06C180.384 94.06 180.264 94.016 180.176 93.928C180.088 93.832 180.044 93.708 180.044 93.556V86.02C180.044 85.876 180.088 85.76 180.176 85.672C180.272 85.584 180.396 85.54 180.548 85.54H183.524C184.444 85.54 185.144 85.744 185.624 86.152C186.112 86.56 186.356 87.16 186.356 87.952C186.356 88.624 186.16 89.164 185.768 89.572C185.384 89.98 184.832 90.228 184.112 90.316C184.312 90.38 184.492 90.484 184.652 90.628C184.812 90.772 184.972 90.972 185.132 91.228L186.5 93.388ZM183.44 89.608C184.096 89.608 184.584 89.472 184.904 89.2C185.232 88.928 185.396 88.516 185.396 87.964C185.396 87.42 185.236 87.016 184.916 86.752C184.596 86.488 184.104 86.356 183.44 86.356H181.016V89.608H183.44ZM190.503 88.012C191.967 88.012 192.699 88.78 192.699 90.316V93.58C192.699 93.724 192.655 93.84 192.567 93.928C192.487 94.016 192.375 94.06 192.231 94.06C192.087 94.06 191.971 94.016 191.883 93.928C191.795 93.84 191.751 93.724 191.751 93.58V93.004C191.599 93.348 191.367 93.616 191.055 93.808C190.743 93.992 190.383 94.084 189.975 94.084C189.599 94.084 189.251 94.008 188.931 93.856C188.619 93.704 188.371 93.492 188.187 93.22C188.003 92.948 187.911 92.648 187.911 92.32C187.911 91.88 188.023 91.54 188.247 91.3C188.471 91.052 188.839 90.876 189.351 90.772C189.863 90.66 190.575 90.604 191.487 90.604H191.751V90.208C191.751 89.728 191.651 89.376 191.451 89.152C191.259 88.928 190.943 88.816 190.503 88.816C189.959 88.816 189.407 88.964 188.847 89.26C188.631 89.396 188.479 89.464 188.391 89.464C188.295 89.464 188.215 89.428 188.151 89.356C188.087 89.284 188.055 89.192 188.055 89.08C188.055 88.968 188.087 88.872 188.151 88.792C188.223 88.704 188.335 88.616 188.487 88.528C188.767 88.368 189.083 88.244 189.435 88.156C189.795 88.06 190.151 88.012 190.503 88.012ZM190.107 93.316C190.587 93.316 190.979 93.156 191.283 92.836C191.595 92.508 191.751 92.088 191.751 91.576V91.228H191.535C190.831 91.228 190.295 91.26 189.927 91.324C189.559 91.38 189.295 91.48 189.135 91.624C188.983 91.76 188.907 91.964 188.907 92.236C188.907 92.548 189.019 92.808 189.243 93.016C189.475 93.216 189.763 93.316 190.107 93.316ZM197.418 88.012C198.818 88.012 199.518 88.784 199.518 90.328V93.58C199.518 93.732 199.474 93.852 199.386 93.94C199.306 94.02 199.19 94.06 199.038 94.06C198.886 94.06 198.766 94.02 198.678 93.94C198.59 93.852 198.546 93.732 198.546 93.58V90.388C198.546 89.844 198.438 89.448 198.222 89.2C198.014 88.952 197.678 88.828 197.214 88.828C196.678 88.828 196.25 88.992 195.93 89.32C195.61 89.648 195.45 90.092 195.45 90.652V93.58C195.45 93.732 195.406 93.852 195.318 93.94C195.238 94.02 195.122 94.06 194.97 94.06C194.818 94.06 194.698 94.02 194.61 93.94C194.522 93.852 194.478 93.732 194.478 93.58V88.516C194.478 88.372 194.522 88.256 194.61 88.168C194.698 88.08 194.818 88.036 194.97 88.036C195.114 88.036 195.226 88.08 195.306 88.168C195.394 88.256 195.438 88.368 195.438 88.504V89.116C195.63 88.756 195.898 88.484 196.242 88.3C196.586 88.108 196.978 88.012 197.418 88.012ZM206.038 88.036C206.19 88.036 206.31 88.08 206.398 88.168C206.486 88.256 206.53 88.372 206.53 88.516V93.604C206.53 94.476 206.306 95.132 205.858 95.572C205.41 96.02 204.746 96.244 203.866 96.244C203.01 96.244 202.298 96.076 201.73 95.74C201.442 95.58 201.298 95.396 201.298 95.188C201.298 95.076 201.326 94.984 201.382 94.912C201.446 94.84 201.526 94.804 201.622 94.804C201.702 94.804 201.846 94.86 202.054 94.972C202.334 95.116 202.61 95.232 202.882 95.32C203.154 95.408 203.478 95.452 203.854 95.452C204.422 95.452 204.85 95.3 205.138 94.996C205.426 94.7 205.57 94.264 205.57 93.688V92.656C205.402 93.032 205.142 93.32 204.79 93.52C204.446 93.72 204.038 93.82 203.566 93.82C203.054 93.82 202.598 93.7 202.198 93.46C201.806 93.22 201.498 92.88 201.274 92.44C201.058 92 200.95 91.492 200.95 90.916C200.95 90.34 201.058 89.832 201.274 89.392C201.498 88.952 201.806 88.612 202.198 88.372C202.598 88.132 203.054 88.012 203.566 88.012C204.03 88.012 204.434 88.112 204.778 88.312C205.122 88.512 205.382 88.796 205.558 89.164V88.516C205.558 88.372 205.598 88.256 205.678 88.168C205.766 88.08 205.886 88.036 206.038 88.036ZM203.758 93.016C204.318 93.016 204.758 92.832 205.078 92.464C205.398 92.088 205.558 91.572 205.558 90.916C205.558 90.268 205.398 89.76 205.078 89.392C204.766 89.016 204.326 88.828 203.758 88.828C203.19 88.828 202.742 89.016 202.414 89.392C202.094 89.76 201.934 90.268 201.934 90.916C201.934 91.572 202.094 92.088 202.414 92.464C202.742 92.832 203.19 93.016 203.758 93.016ZM212.854 92.644C212.942 92.644 213.018 92.68 213.082 92.752C213.146 92.824 213.178 92.916 213.178 93.028C213.178 93.228 213.038 93.412 212.758 93.58C212.47 93.748 212.166 93.876 211.846 93.964C211.526 94.044 211.214 94.084 210.91 94.084C210.006 94.084 209.29 93.816 208.762 93.28C208.242 92.744 207.982 92.004 207.982 91.06C207.982 90.46 208.098 89.932 208.33 89.476C208.562 89.012 208.886 88.652 209.302 88.396C209.726 88.14 210.206 88.012 210.742 88.012C211.502 88.012 212.106 88.26 212.554 88.756C213.002 89.252 213.226 89.924 213.226 90.772C213.226 90.932 213.194 91.048 213.13 91.12C213.066 91.192 212.962 91.228 212.818 91.228H208.954C209.026 92.604 209.678 93.292 210.91 93.292C211.222 93.292 211.49 93.252 211.714 93.172C211.938 93.084 212.178 92.968 212.434 92.824C212.642 92.704 212.782 92.644 212.854 92.644ZM210.754 88.768C210.242 88.768 209.83 88.928 209.518 89.248C209.214 89.568 209.034 90.02 208.978 90.604H212.374C212.358 90.012 212.21 89.56 211.93 89.248C211.65 88.928 211.258 88.768 210.754 88.768ZM224.352 93.388C224.408 93.476 224.436 93.568 224.436 93.664C224.436 93.784 224.388 93.884 224.292 93.964C224.204 94.036 224.1 94.072 223.98 94.072C223.796 94.072 223.652 93.992 223.548 93.832L221.94 91.288C221.732 90.96 221.516 90.736 221.292 90.616C221.068 90.488 220.764 90.424 220.38 90.424H218.868V93.556C218.868 93.708 218.824 93.832 218.736 93.928C218.648 94.016 218.532 94.06 218.388 94.06C218.236 94.06 218.116 94.016 218.028 93.928C217.94 93.832 217.896 93.708 217.896 93.556V86.02C217.896 85.876 217.94 85.76 218.028 85.672C218.124 85.584 218.248 85.54 218.4 85.54H221.376C222.296 85.54 222.996 85.744 223.476 86.152C223.964 86.56 224.208 87.16 224.208 87.952C224.208 88.624 224.012 89.164 223.62 89.572C223.236 89.98 222.684 90.228 221.964 90.316C222.164 90.38 222.344 90.484 222.504 90.628C222.664 90.772 222.824 90.972 222.984 91.228L224.352 93.388ZM221.292 89.608C221.948 89.608 222.436 89.472 222.756 89.2C223.084 88.928 223.248 88.516 223.248 87.964C223.248 87.42 223.088 87.016 222.768 86.752C222.448 86.488 221.956 86.356 221.292 86.356H218.868V89.608H221.292ZM228.402 94.084C227.85 94.084 227.362 93.96 226.938 93.712C226.522 93.464 226.198 93.112 225.966 92.656C225.742 92.192 225.63 91.656 225.63 91.048C225.63 90.44 225.742 89.908 225.966 89.452C226.198 88.988 226.522 88.632 226.938 88.384C227.362 88.136 227.85 88.012 228.402 88.012C228.954 88.012 229.442 88.136 229.866 88.384C230.29 88.632 230.614 88.988 230.838 89.452C231.07 89.908 231.186 90.44 231.186 91.048C231.186 91.656 231.07 92.192 230.838 92.656C230.614 93.112 230.29 93.464 229.866 93.712C229.442 93.96 228.954 94.084 228.402 94.084ZM228.402 93.28C228.978 93.28 229.418 93.092 229.722 92.716C230.034 92.332 230.19 91.776 230.19 91.048C230.19 90.336 230.034 89.788 229.722 89.404C229.41 89.012 228.97 88.816 228.402 88.816C227.834 88.816 227.394 89.012 227.082 89.404C226.77 89.788 226.614 90.336 226.614 91.048C226.614 91.768 226.766 92.32 227.07 92.704C227.382 93.088 227.826 93.28 228.402 93.28ZM236.776 88.336C236.864 88.144 237.004 88.048 237.196 88.048C237.316 88.048 237.424 88.088 237.52 88.168C237.616 88.248 237.664 88.348 237.664 88.468C237.664 88.54 237.648 88.604 237.616 88.66L235.276 93.7C235.228 93.804 235.156 93.888 235.06 93.952C234.964 94.008 234.86 94.036 234.748 94.036C234.644 94.036 234.544 94.008 234.448 93.952C234.352 93.888 234.276 93.804 234.22 93.7L231.892 88.66C231.86 88.604 231.844 88.544 231.844 88.48C231.844 88.36 231.896 88.256 232 88.168C232.112 88.08 232.232 88.036 232.36 88.036C232.44 88.036 232.516 88.06 232.588 88.108C232.668 88.156 232.728 88.224 232.768 88.312L234.772 92.812L236.776 88.336ZM243.182 92.644C243.27 92.644 243.346 92.68 243.41 92.752C243.474 92.824 243.506 92.916 243.506 93.028C243.506 93.228 243.366 93.412 243.086 93.58C242.798 93.748 242.494 93.876 242.174 93.964C241.854 94.044 241.542 94.084 241.238 94.084C240.334 94.084 239.618 93.816 239.09 93.28C238.57 92.744 238.31 92.004 238.31 91.06C238.31 90.46 238.426 89.932 238.658 89.476C238.89 89.012 239.214 88.652 239.63 88.396C240.054 88.14 240.534 88.012 241.07 88.012C241.83 88.012 242.434 88.26 242.882 88.756C243.33 89.252 243.554 89.924 243.554 90.772C243.554 90.932 243.522 91.048 243.458 91.12C243.394 91.192 243.29 91.228 243.146 91.228H239.282C239.354 92.604 240.006 93.292 241.238 93.292C241.55 93.292 241.818 93.252 242.042 93.172C242.266 93.084 242.506 92.968 242.762 92.824C242.97 92.704 243.11 92.644 243.182 92.644ZM241.082 88.768C240.57 88.768 240.158 88.928 239.846 89.248C239.542 89.568 239.362 90.02 239.306 90.604H242.702C242.686 90.012 242.538 89.56 242.258 89.248C241.978 88.928 241.586 88.768 241.082 88.768ZM247.878 88.036C248.214 88.012 248.382 88.148 248.382 88.444C248.382 88.572 248.346 88.676 248.274 88.756C248.202 88.828 248.078 88.872 247.902 88.888L247.542 88.924C247.006 88.972 246.606 89.164 246.342 89.5C246.086 89.828 245.958 90.216 245.958 90.664V93.58C245.958 93.74 245.914 93.86 245.826 93.94C245.738 94.02 245.622 94.06 245.478 94.06C245.334 94.06 245.214 94.02 245.118 93.94C245.03 93.852 244.986 93.732 244.986 93.58V88.516C244.986 88.364 245.034 88.248 245.13 88.168C245.226 88.08 245.342 88.036 245.478 88.036C245.606 88.036 245.714 88.08 245.802 88.168C245.89 88.248 245.934 88.36 245.934 88.504V89.176C246.102 88.824 246.338 88.556 246.642 88.372C246.954 88.188 247.31 88.08 247.71 88.048L247.878 88.036Z"></path>
<rect stroke="#DCC3E6" rx="7.5" height="26" width="97" y="77.5" x="163.5"></rect>
<rect fill="#FCF2FF" rx="7.5" height="26" width="67" y="77.5" x="16.5"></rect>
<path fill="#4F4F4F" d="M39.248 85.732C39.288 85.644 39.344 85.576 39.416 85.528C39.496 85.48 39.58 85.456 39.668 85.456C39.796 85.456 39.908 85.5 40.004 85.588C40.108 85.668 40.16 85.768 40.16 85.888C40.16 85.952 40.144 86.016 40.112 86.08L36.668 93.736C36.62 93.84 36.548 93.92 36.452 93.976C36.356 94.032 36.252 94.06 36.14 94.06C36.028 94.06 35.924 94.032 35.828 93.976C35.732 93.92 35.66 93.84 35.612 93.736L32.18 86.08C32.156 86.016 32.144 85.956 32.144 85.9C32.144 85.772 32.196 85.668 32.3 85.588C32.404 85.5 32.52 85.456 32.648 85.456C32.84 85.456 32.98 85.548 33.068 85.732L36.164 92.728L39.248 85.732ZM45.0529 92.644C45.1409 92.644 45.2169 92.68 45.2809 92.752C45.3449 92.824 45.3769 92.916 45.3769 93.028C45.3769 93.228 45.2369 93.412 44.9569 93.58C44.6689 93.748 44.3649 93.876 44.0449 93.964C43.7249 94.044 43.4129 94.084 43.1089 94.084C42.2049 94.084 41.4889 93.816 40.9609 93.28C40.4409 92.744 40.1809 92.004 40.1809 91.06C40.1809 90.46 40.2969 89.932 40.5289 89.476C40.7609 89.012 41.0849 88.652 41.5009 88.396C41.9249 88.14 42.4049 88.012 42.9409 88.012C43.7009 88.012 44.3049 88.26 44.7529 88.756C45.2009 89.252 45.4249 89.924 45.4249 90.772C45.4249 90.932 45.3929 91.048 45.3289 91.12C45.2649 91.192 45.1609 91.228 45.0169 91.228H41.1529C41.2249 92.604 41.8769 93.292 43.1089 93.292C43.4209 93.292 43.6889 93.252 43.9129 93.172C44.1369 93.084 44.3769 92.968 44.6329 92.824C44.8409 92.704 44.9809 92.644 45.0529 92.644ZM42.9529 88.768C42.4409 88.768 42.0289 88.928 41.7169 89.248C41.4129 89.568 41.2329 90.02 41.1769 90.604H44.5729C44.5569 90.012 44.4089 89.56 44.1289 89.248C43.8489 88.928 43.4569 88.768 42.9529 88.768ZM51.597 88.036C51.749 88.036 51.869 88.08 51.957 88.168C52.045 88.256 52.089 88.372 52.089 88.516V93.604C52.089 94.476 51.865 95.132 51.417 95.572C50.969 96.02 50.305 96.244 49.425 96.244C48.569 96.244 47.857 96.076 47.289 95.74C47.001 95.58 46.857 95.396 46.857 95.188C46.857 95.076 46.885 94.984 46.941 94.912C47.005 94.84 47.085 94.804 47.181 94.804C47.261 94.804 47.405 94.86 47.613 94.972C47.893 95.116 48.169 95.232 48.441 95.32C48.713 95.408 49.037 95.452 49.413 95.452C49.981 95.452 50.409 95.3 50.697 94.996C50.985 94.7 51.129 94.264 51.129 93.688V92.656C50.961 93.032 50.701 93.32 50.349 93.52C50.005 93.72 49.597 93.82 49.125 93.82C48.613 93.82 48.157 93.7 47.757 93.46C47.365 93.22 47.057 92.88 46.833 92.44C46.617 92 46.509 91.492 46.509 90.916C46.509 90.34 46.617 89.832 46.833 89.392C47.057 88.952 47.365 88.612 47.757 88.372C48.157 88.132 48.613 88.012 49.125 88.012C49.589 88.012 49.993 88.112 50.337 88.312C50.681 88.512 50.941 88.796 51.117 89.164V88.516C51.117 88.372 51.157 88.256 51.237 88.168C51.325 88.08 51.445 88.036 51.597 88.036ZM49.317 93.016C49.877 93.016 50.317 92.832 50.637 92.464C50.957 92.088 51.117 91.572 51.117 90.916C51.117 90.268 50.957 89.76 50.637 89.392C50.325 89.016 49.885 88.828 49.317 88.828C48.749 88.828 48.301 89.016 47.973 89.392C47.653 89.76 47.493 90.268 47.493 90.916C47.493 91.572 47.653 92.088 47.973 92.464C48.301 92.832 48.749 93.016 49.317 93.016ZM56.2763 88.012C57.7403 88.012 58.4723 88.78 58.4723 90.316V93.58C58.4723 93.724 58.4283 93.84 58.3403 93.928C58.2603 94.016 58.1483 94.06 58.0043 94.06C57.8603 94.06 57.7443 94.016 57.6563 93.928C57.5683 93.84 57.5243 93.724 57.5243 93.58V93.004C57.3723 93.348 57.1403 93.616 56.8283 93.808C56.5163 93.992 56.1563 94.084 55.7483 94.084C55.3723 94.084 55.0243 94.008 54.7043 93.856C54.3923 93.704 54.1443 93.492 53.9603 93.22C53.7763 92.948 53.6843 92.648 53.6843 92.32C53.6843 91.88 53.7963 91.54 54.0203 91.3C54.2443 91.052 54.6123 90.876 55.1243 90.772C55.6363 90.66 56.3483 90.604 57.2603 90.604H57.5243V90.208C57.5243 89.728 57.4243 89.376 57.2243 89.152C57.0323 88.928 56.7163 88.816 56.2763 88.816C55.7323 88.816 55.1803 88.964 54.6203 89.26C54.4043 89.396 54.2523 89.464 54.1643 89.464C54.0683 89.464 53.9883 89.428 53.9243 89.356C53.8603 89.284 53.8283 89.192 53.8283 89.08C53.8283 88.968 53.8603 88.872 53.9243 88.792C53.9963 88.704 54.1083 88.616 54.2603 88.528C54.5403 88.368 54.8563 88.244 55.2083 88.156C55.5683 88.06 55.9243 88.012 56.2763 88.012ZM55.8803 93.316C56.3603 93.316 56.7523 93.156 57.0563 92.836C57.3683 92.508 57.5243 92.088 57.5243 91.576V91.228H57.3083C56.6043 91.228 56.0683 91.26 55.7003 91.324C55.3323 91.38 55.0683 91.48 54.9083 91.624C54.7563 91.76 54.6803 91.964 54.6803 92.236C54.6803 92.548 54.7923 92.808 55.0163 93.016C55.2483 93.216 55.5363 93.316 55.8803 93.316ZM63.1916 88.012C64.5916 88.012 65.2916 88.784 65.2916 90.328V93.58C65.2916 93.732 65.2476 93.852 65.1596 93.94C65.0796 94.02 64.9636 94.06 64.8116 94.06C64.6596 94.06 64.5396 94.02 64.4516 93.94C64.3636 93.852 64.3196 93.732 64.3196 93.58V90.388C64.3196 89.844 64.2116 89.448 63.9956 89.2C63.7876 88.952 63.4516 88.828 62.9876 88.828C62.4516 88.828 62.0236 88.992 61.7036 89.32C61.3836 89.648 61.2236 90.092 61.2236 90.652V93.58C61.2236 93.732 61.1796 93.852 61.0916 93.94C61.0116 94.02 60.8956 94.06 60.7436 94.06C60.5916 94.06 60.4716 94.02 60.3836 93.94C60.2956 93.852 60.2516 93.732 60.2516 93.58V88.516C60.2516 88.372 60.2956 88.256 60.3836 88.168C60.4716 88.08 60.5916 88.036 60.7436 88.036C60.8876 88.036 60.9996 88.08 61.0796 88.168C61.1676 88.256 61.2116 88.368 61.2116 88.504V89.116C61.4036 88.756 61.6716 88.484 62.0156 88.3C62.3596 88.108 62.7516 88.012 63.1916 88.012Z"></path>
<rect stroke="#DCC3E6" rx="7.5" height="26" width="67" y="77.5" x="16.5"></rect>
</svg>
