<?xml version="1.0" encoding="utf-8"?>
<!-- Generator: Adobe Illustrator 24.1.3, SVG Export Plug-In . SVG Version: 6.00 Build 0)  -->
<svg version="1.1" id="Layer_1" xmlns="http://www.w3.org/2000/svg" xmlns:xlink="http://www.w3.org/1999/xlink" x="0px" y="0px"
	 viewBox="0 0 766.59 272.3" style="enable-background:new 0 0 766.59 272.3;" xml:space="preserve">
<style type="text/css">
	.st0{fill:url(#SVGID_1_);}
	.st1{fill:url(#SVGID_2_);}
	.st2{fill:url(#SVGID_3_);}
	.st3{fill:url(#SVGID_4_);}
	.st4{fill:url(#SVGID_5_);}
	.st5{fill:url(#SVGID_6_);}
	.st6{fill:url(#SVGID_7_);}
	.st7{fill:url(#SVGID_8_);}
</style>
<g>
	<g>
		<linearGradient id="SVGID_1_" gradientUnits="userSpaceOnUse" x1="292.4579" y1="-201.0629" x2="87.7372" y2="183.9606">
			<stop  offset="0" style="stop-color:#0063A7"/>
			<stop  offset="0.1487" style="stop-color:#0A5DA5"/>
			<stop  offset="0.333" style="stop-color:#1D51A2"/>
			<stop  offset="0.666" style="stop-color:#613392"/>
			<stop  offset="1" style="stop-color:#843693"/>
		</linearGradient>
		<path class="st0" d="M22.25,250.99C7.41,236.78,0,214.4,0,183.84c0-31.45,7.37-54.23,22.11-68.35
			c14.74-14.11,36.76-21.18,66.07-21.18c29.3,0,51.33,7.1,66.07,21.31c14.74,14.21,22.11,36.95,22.11,68.22
			c0,30.38-7.42,52.72-22.25,67.01c-14.83,14.3-36.81,21.44-65.94,21.44C59.06,272.3,37.08,265.19,22.25,250.99z M116.2,218.55
			c5.8-7.24,8.71-18.8,8.71-34.71c0-16.79-2.86-28.77-8.58-35.92c-5.72-7.14-15.1-10.72-28.14-10.72
			c-13.05,0-22.43,3.58-28.14,10.72c-5.72,7.15-8.58,19.12-8.58,35.92c0,15.91,2.9,27.47,8.71,34.71
			c5.8,7.24,15.14,10.86,28.01,10.86C101.05,229.41,110.39,225.79,116.2,218.55z"/>
		<linearGradient id="SVGID_2_" gradientUnits="userSpaceOnUse" x1="429.7318" y1="-127.6005" x2="225.0438" y2="257.3617">
			<stop  offset="0" style="stop-color:#0063A7"/>
			<stop  offset="0.1487" style="stop-color:#0A5DA5"/>
			<stop  offset="0.333" style="stop-color:#1D51A2"/>
			<stop  offset="0.666" style="stop-color:#613392"/>
			<stop  offset="1" style="stop-color:#843693"/>
		</linearGradient>
		<path class="st1" d="M189.77,97h89.79c20.37,0,35.74,5.54,46.1,16.62c10.36,11.08,15.55,26,15.55,44.76
			c0,11.44-2.86,21.58-8.58,30.42c-5.72,8.85-13.49,15.68-23.32,20.51c1.96,1.61,3.66,3.48,5.09,5.63c1.43,2.14,3.04,5.27,4.82,9.38
			l19.83,45.3h-52.54l-18.23-41.55c-1.43-3.22-3.17-5.49-5.23-6.84c-2.06-1.34-4.96-2.01-8.71-2.01h-14.21v50.39h-50.39V97z
			 M266.7,180.63c7.33,0,13-1.92,17.02-5.76c4.02-3.84,6.03-9.34,6.03-16.48c0-15.19-7.15-22.78-21.44-22.78h-28.14v45.03H266.7z"/>
		<linearGradient id="SVGID_3_" gradientUnits="userSpaceOnUse" x1="519.6968" y1="-79.7836" x2="314.8169" y2="305.5395">
			<stop  offset="0" style="stop-color:#0063A7"/>
			<stop  offset="0.1487" style="stop-color:#0A5DA5"/>
			<stop  offset="0.333" style="stop-color:#1D51A2"/>
			<stop  offset="0.666" style="stop-color:#613392"/>
			<stop  offset="1" style="stop-color:#843693"/>
		</linearGradient>
		<path class="st2" d="M354.61,97H405v172.62h-50.39V97z"/>
		<linearGradient id="SVGID_4_" gradientUnits="userSpaceOnUse" x1="618.2204" y1="-26.8235" x2="413.4997" y2="358.2">
			<stop  offset="0" style="stop-color:#0063A7"/>
			<stop  offset="0.1487" style="stop-color:#0A5DA5"/>
			<stop  offset="0.333" style="stop-color:#1D51A2"/>
			<stop  offset="0.666" style="stop-color:#613392"/>
			<stop  offset="1" style="stop-color:#843693"/>
		</linearGradient>
		<path class="st3" d="M440.65,250.99c-14.83-14.21-22.25-36.59-22.25-67.14c0-31.45,7.37-54.23,22.11-68.35
			c14.74-14.11,36.76-21.18,66.07-21.18c29.3,0,51.33,7.1,66.07,21.31c14.74,14.21,22.11,36.95,22.11,68.22
			c0,30.38-7.42,52.72-22.25,67.01c-14.83,14.3-36.81,21.44-65.94,21.44C477.46,272.3,455.48,265.19,440.65,250.99z M534.6,218.55
			c5.8-7.24,8.71-18.8,8.71-34.71c0-16.79-2.86-28.77-8.58-35.92c-5.72-7.14-15.1-10.72-28.14-10.72
			c-13.05,0-22.43,3.58-28.14,10.72c-5.72,7.15-8.58,19.12-8.58,35.92c0,15.91,2.9,27.47,8.71,34.71
			c5.8,7.24,15.14,10.86,28.01,10.86C519.46,229.41,528.79,225.79,534.6,218.55z"/>
		<linearGradient id="SVGID_5_" gradientUnits="userSpaceOnUse" x1="759.0273" y1="48.5633" x2="554.3946" y2="433.4214">
			<stop  offset="0" style="stop-color:#0063A7"/>
			<stop  offset="0.1487" style="stop-color:#0A5DA5"/>
			<stop  offset="0.333" style="stop-color:#1D51A2"/>
			<stop  offset="0.666" style="stop-color:#613392"/>
			<stop  offset="1" style="stop-color:#843693"/>
		</linearGradient>
		<path class="st4" d="M608.18,97h42.89l65.13,91.4V97h50.39v172.62h-43.15l-64.87-91.13v91.13h-50.39V97z"/>
	</g>
	<g>
		<linearGradient id="SVGID_6_" gradientUnits="userSpaceOnUse" x1="462.2519" y1="-110.6109" x2="257.2001" y2="275.0356">
			<stop  offset="0" style="stop-color:#0063A7"/>
			<stop  offset="0.1487" style="stop-color:#0A5DA5"/>
			<stop  offset="0.333" style="stop-color:#1D51A2"/>
			<stop  offset="0.666" style="stop-color:#613392"/>
			<stop  offset="1" style="stop-color:#843693"/>
		</linearGradient>
		<path class="st5" d="M340.81,44.44c0,0,25.79-1.76,31.52-7.49c5.73-5.73,7.49-31.51,7.49-31.51s1.75,25.79,7.48,31.52
			c5.73,5.73,31.51,7.48,31.51,7.48s-25.79,1.76-31.52,7.49c-5.73,5.73-7.49,31.51-7.49,31.51s-1.75-25.79-7.48-31.52
			C366.6,46.2,340.81,44.44,340.81,44.44z"/>
	</g>
	<g>
		<linearGradient id="SVGID_7_" gradientUnits="userSpaceOnUse" x1="546.9669" y1="-65.1706" x2="341.915" y2="320.4758">
			<stop  offset="0" style="stop-color:#0063A7"/>
			<stop  offset="0.1487" style="stop-color:#0A5DA5"/>
			<stop  offset="0.333" style="stop-color:#1D51A2"/>
			<stop  offset="0.666" style="stop-color:#613392"/>
			<stop  offset="1" style="stop-color:#843693"/>
		</linearGradient>
		<path class="st6" d="M474.4,24.75c0,0,16.37-1.12,20.01-4.75c3.63-3.63,4.75-20,4.75-20s1.11,16.37,4.75,20
			c3.63,3.63,20,4.75,20,4.75s-16.37,1.11-20.01,4.75c-3.63,3.63-4.75,20-4.75,20s-1.11-16.37-4.75-20
			C490.77,25.87,474.4,24.75,474.4,24.75z"/>
	</g>
	<g>
		<linearGradient id="SVGID_8_" gradientUnits="userSpaceOnUse" x1="627.3674" y1="-22.1392" x2="422.3156" y2="363.5073">
			<stop  offset="0" style="stop-color:#0063A7"/>
			<stop  offset="0.1487" style="stop-color:#0A5DA5"/>
			<stop  offset="0.333" style="stop-color:#1D51A2"/>
			<stop  offset="0.666" style="stop-color:#613392"/>
			<stop  offset="1" style="stop-color:#843693"/>
		</linearGradient>
		<path class="st7" d="M547.02,59.5c0,0,24.42-1.66,29.85-7.09c5.42-5.42,7.09-29.84,7.09-29.84s1.66,24.42,7.08,29.85
			c5.42,5.42,29.85,7.09,29.85,7.09s-24.42,1.66-29.85,7.09c-5.42,5.42-7.09,29.85-7.09,29.85s-1.66-24.43-7.08-29.85
			C571.44,61.17,547.02,59.5,547.02,59.5z"/>
	</g>
</g>
</svg>
