<?xml version="1.0" encoding="utf-8"?>
<!-- Generator: Adobe Illustrator 24.1.0, SVG Export Plug-In . SVG Version: 6.00 Build 0)  -->
<svg version="1.1" id="Layer_1" xmlns="http://www.w3.org/2000/svg" xmlns:xlink="http://www.w3.org/1999/xlink" x="0px" y="0px"
	 viewBox="0 0 143.43 88.5" style="enable-background:new 0 0 143.43 88.5;" xml:space="preserve">
<style type="text/css">
	.st0{fill:#863399;}
	.st1{fill:#0047BA;}
	.st2{fill:#005CB9;}
	.st3{fill:#60269E;}
</style>
<g>
	<polygon class="st0" points="46.87,63.13 15.8,13.43 23.3,13.43 50.62,57.13 	"/>
	<path class="st1" d="M139.46,79.31H89.9l29.49-47.17c1.73-2.77,2.28-6.05,1.54-9.24c-0.74-3.19-2.67-5.9-5.44-7.63
		c-5.73-3.58-13.29-1.83-16.86,3.89l-41.6,66.49h7.48l39.5-63.12c1.72-2.76,5.37-3.6,8.12-1.88c1.34,0.83,2.27,2.14,2.62,3.67
		c0.35,1.53,0.09,3.11-0.74,4.45L78.49,85.65h64.94L139.46,79.31z"/>
	<path class="st2" d="M131.52,66.6H113.6l17.16-27.36c3.63-5.81,4.78-12.69,3.24-19.36c-1.54-6.67-5.59-12.35-11.4-15.98
		c-5.81-3.63-12.68-4.78-19.36-3.24s-12.35,5.59-15.97,11.4l-2.86,4.51l5.39,3.37l2.85-4.52c2.73-4.37,7-7.42,12.02-8.58
		c5.02-1.16,10.2-0.3,14.57,2.43c9.03,5.64,11.78,17.57,6.14,26.6l-23.22,37.06h33.34L131.52,66.6z"/>
	<polygon class="st3" points="80.61,22.64 46.96,76.49 7.48,13.43 0,13.43 46.93,88.5 86,26.01 	"/>
</g>
</svg>
