<svg xmlns="http://www.w3.org/2000/svg" fill="none" viewBox="0 0 337 92" height="92" width="337">
<path fill="#4F4F4F" d="M30.8667 86.632C31.3547 86.768 31.7307 87.016 31.9947 87.376C32.2667 87.736 32.4027 88.176 32.4027 88.696C32.4027 89.416 32.1427 89.98 31.6227 90.388C31.1107 90.796 30.4027 91 29.4987 91H26.4027C26.1707 91 25.9867 90.936 25.8507 90.808C25.7227 90.68 25.6587 90.5 25.6587 90.268V83.272C25.6587 83.04 25.7227 82.86 25.8507 82.732C25.9867 82.604 26.1707 82.54 26.4027 82.54H29.3787C30.2587 82.54 30.9467 82.736 31.4427 83.128C31.9467 83.512 32.1987 84.052 32.1987 84.748C32.1987 85.196 32.0787 85.584 31.8387 85.912C31.6067 86.24 31.2827 86.48 30.8667 86.632ZM27.1707 86.104H29.1267C30.1907 86.104 30.7227 85.708 30.7227 84.916C30.7227 84.516 30.5907 84.22 30.3267 84.028C30.0627 83.836 29.6627 83.74 29.1267 83.74H27.1707V86.104ZM29.3307 89.8C29.8907 89.8 30.2987 89.7 30.5547 89.5C30.8107 89.3 30.9387 88.988 30.9387 88.564C30.9387 88.14 30.8067 87.824 30.5427 87.616C30.2867 87.408 29.8827 87.304 29.3307 87.304H27.1707V89.8H29.3307ZM36.1421 84.988C36.9581 84.988 37.5621 85.192 37.9541 85.6C38.3541 86 38.5541 86.612 38.5541 87.436V90.364C38.5541 90.58 38.4901 90.752 38.3621 90.88C38.2341 91 38.0581 91.06 37.8341 91.06C37.6261 91.06 37.4541 90.996 37.3181 90.868C37.1901 90.74 37.1261 90.572 37.1261 90.364V90.1C36.9901 90.412 36.7741 90.656 36.4781 90.832C36.1901 91.008 35.8541 91.096 35.4701 91.096C35.0781 91.096 34.7221 91.016 34.4021 90.856C34.0821 90.696 33.8301 90.476 33.6461 90.196C33.4621 89.916 33.3701 89.604 33.3701 89.26C33.3701 88.828 33.4781 88.488 33.6941 88.24C33.9181 87.992 34.2781 87.812 34.7741 87.7C35.2701 87.588 35.9541 87.532 36.8261 87.532H37.1261V87.256C37.1261 86.864 37.0421 86.58 36.8741 86.404C36.7061 86.22 36.4341 86.128 36.0581 86.128C35.8261 86.128 35.5901 86.164 35.3501 86.236C35.1101 86.3 34.8261 86.396 34.4981 86.524C34.2901 86.628 34.1381 86.68 34.0421 86.68C33.8981 86.68 33.7781 86.628 33.6821 86.524C33.5941 86.42 33.5501 86.284 33.5501 86.116C33.5501 85.98 33.5821 85.864 33.6461 85.768C33.7181 85.664 33.8341 85.568 33.9941 85.48C34.2741 85.328 34.6061 85.208 34.9901 85.12C35.3821 85.032 35.7661 84.988 36.1421 84.988ZM35.7701 90.016C36.1701 90.016 36.4941 89.884 36.7421 89.62C36.9981 89.348 37.1261 89 37.1261 88.576V88.324H36.9101C36.3741 88.324 35.9581 88.348 35.6621 88.396C35.3661 88.444 35.1541 88.528 35.0261 88.648C34.8981 88.768 34.8341 88.932 34.8341 89.14C34.8341 89.396 34.9221 89.608 35.0981 89.776C35.2821 89.936 35.5061 90.016 35.7701 90.016ZM42.0826 91.096C41.2106 91.096 40.5066 90.924 39.9706 90.58C39.7146 90.428 39.5866 90.212 39.5866 89.932C39.5866 89.772 39.6306 89.644 39.7186 89.548C39.8066 89.444 39.9146 89.392 40.0426 89.392C40.1786 89.392 40.3666 89.456 40.6066 89.584C40.8626 89.704 41.0946 89.796 41.3026 89.86C41.5186 89.924 41.7906 89.956 42.1186 89.956C42.4546 89.956 42.7146 89.9 42.8986 89.788C43.0906 89.676 43.1866 89.52 43.1866 89.32C43.1866 89.184 43.1466 89.076 43.0666 88.996C42.9946 88.916 42.8586 88.844 42.6586 88.78C42.4666 88.708 42.1706 88.628 41.7706 88.54C41.0586 88.396 40.5466 88.192 40.2346 87.928C39.9306 87.664 39.7786 87.3 39.7786 86.836C39.7786 86.484 39.8826 86.168 40.0906 85.888C40.2986 85.6 40.5826 85.38 40.9426 85.228C41.3106 85.068 41.7266 84.988 42.1906 84.988C42.5266 84.988 42.8506 85.032 43.1626 85.12C43.4746 85.2 43.7546 85.32 44.0026 85.48C44.2586 85.64 44.3866 85.852 44.3866 86.116C44.3866 86.276 44.3426 86.412 44.2546 86.524C44.1666 86.628 44.0586 86.68 43.9306 86.68C43.8426 86.68 43.7546 86.664 43.6666 86.632C43.5866 86.592 43.4826 86.536 43.3546 86.464C43.1226 86.344 42.9226 86.256 42.7546 86.2C42.5866 86.136 42.3786 86.104 42.1306 86.104C41.8346 86.104 41.5986 86.164 41.4226 86.284C41.2546 86.404 41.1706 86.568 41.1706 86.776C41.1706 86.976 41.2586 87.128 41.4346 87.232C41.6106 87.336 41.9506 87.44 42.4546 87.544C42.9906 87.656 43.4106 87.784 43.7146 87.928C44.0186 88.072 44.2346 88.252 44.3626 88.468C44.4986 88.684 44.5666 88.96 44.5666 89.296C44.5666 89.84 44.3386 90.276 43.8826 90.604C43.4346 90.932 42.8346 91.096 42.0826 91.096ZM46.4068 91.072C46.1908 91.072 46.0108 91.012 45.8668 90.892C45.7308 90.764 45.6628 90.584 45.6628 90.352V85.72C45.6628 85.488 45.7308 85.312 45.8668 85.192C46.0108 85.072 46.1908 85.012 46.4068 85.012C46.6228 85.012 46.8028 85.072 46.9468 85.192C47.0908 85.312 47.1628 85.488 47.1628 85.72V90.352C47.1628 90.584 47.0908 90.764 46.9468 90.892C46.8028 91.012 46.6228 91.072 46.4068 91.072ZM46.4068 83.944C46.1348 83.944 45.9188 83.872 45.7588 83.728C45.5988 83.576 45.5188 83.38 45.5188 83.14C45.5188 82.9 45.5988 82.708 45.7588 82.564C45.9188 82.42 46.1348 82.348 46.4068 82.348C46.6708 82.348 46.8828 82.42 47.0428 82.564C47.2108 82.708 47.2948 82.9 47.2948 83.14C47.2948 83.38 47.2148 83.576 47.0548 83.728C46.8948 83.872 46.6788 83.944 46.4068 83.944ZM51.1937 91.096C50.6097 91.096 50.0937 90.972 49.6457 90.724C49.2057 90.476 48.8657 90.124 48.6257 89.668C48.3857 89.212 48.2657 88.68 48.2657 88.072C48.2657 87.464 48.3897 86.928 48.6377 86.464C48.8937 85.992 49.2497 85.628 49.7057 85.372C50.1617 85.116 50.6857 84.988 51.2777 84.988C51.5897 84.988 51.9017 85.032 52.2137 85.12C52.5337 85.208 52.8137 85.328 53.0537 85.48C53.3097 85.648 53.4377 85.86 53.4377 86.116C53.4377 86.292 53.3937 86.436 53.3057 86.548C53.2257 86.652 53.1177 86.704 52.9817 86.704C52.8937 86.704 52.8017 86.684 52.7057 86.644C52.6097 86.604 52.5137 86.556 52.4177 86.5C52.2417 86.396 52.0737 86.316 51.9137 86.26C51.7537 86.196 51.5697 86.164 51.3617 86.164C50.8657 86.164 50.4817 86.328 50.2097 86.656C49.9457 86.976 49.8137 87.44 49.8137 88.048C49.8137 88.648 49.9457 89.112 50.2097 89.44C50.4817 89.76 50.8657 89.92 51.3617 89.92C51.5617 89.92 51.7377 89.892 51.8897 89.836C52.0497 89.772 52.2257 89.688 52.4177 89.584C52.5377 89.512 52.6417 89.46 52.7297 89.428C52.8177 89.388 52.9057 89.368 52.9937 89.368C53.1217 89.368 53.2297 89.424 53.3177 89.536C53.4057 89.648 53.4497 89.788 53.4497 89.956C53.4497 90.092 53.4177 90.212 53.3537 90.316C53.2977 90.412 53.2017 90.5 53.0657 90.58C52.8177 90.74 52.5297 90.868 52.2017 90.964C51.8737 91.052 51.5377 91.096 51.1937 91.096ZM56.4531 91.096C55.5811 91.096 54.8771 90.924 54.3411 90.58C54.0851 90.428 53.9571 90.212 53.9571 89.932C53.9571 89.772 54.0011 89.644 54.0891 89.548C54.1771 89.444 54.2851 89.392 54.4131 89.392C54.5491 89.392 54.7371 89.456 54.9771 89.584C55.2331 89.704 55.4651 89.796 55.6731 89.86C55.8891 89.924 56.1611 89.956 56.4891 89.956C56.8251 89.956 57.0851 89.9 57.2691 89.788C57.4611 89.676 57.5571 89.52 57.5571 89.32C57.5571 89.184 57.5171 89.076 57.4371 88.996C57.3651 88.916 57.2291 88.844 57.0291 88.78C56.8371 88.708 56.5411 88.628 56.1411 88.54C55.4291 88.396 54.9171 88.192 54.6051 87.928C54.3011 87.664 54.1491 87.3 54.1491 86.836C54.1491 86.484 54.2531 86.168 54.4611 85.888C54.6691 85.6 54.9531 85.38 55.3131 85.228C55.6811 85.068 56.0971 84.988 56.5611 84.988C56.8971 84.988 57.2211 85.032 57.5331 85.12C57.8451 85.2 58.1251 85.32 58.3731 85.48C58.6291 85.64 58.7571 85.852 58.7571 86.116C58.7571 86.276 58.7131 86.412 58.6251 86.524C58.5371 86.628 58.4291 86.68 58.3011 86.68C58.2131 86.68 58.1251 86.664 58.0371 86.632C57.9571 86.592 57.8531 86.536 57.7251 86.464C57.4931 86.344 57.2931 86.256 57.1251 86.2C56.9571 86.136 56.7491 86.104 56.5011 86.104C56.2051 86.104 55.9691 86.164 55.7931 86.284C55.6251 86.404 55.5411 86.568 55.5411 86.776C55.5411 86.976 55.6291 87.128 55.8051 87.232C55.9811 87.336 56.3211 87.44 56.8251 87.544C57.3611 87.656 57.7811 87.784 58.0851 87.928C58.3891 88.072 58.6051 88.252 58.7331 88.468C58.8691 88.684 58.9371 88.96 58.9371 89.296C58.9371 89.84 58.7091 90.276 58.2531 90.604C57.8051 90.932 57.2051 91.096 56.4531 91.096Z"></path>
<path fill="#828282" d="M126.326 86.596C126.446 86.596 126.542 86.632 126.614 86.704C126.694 86.776 126.734 86.876 126.734 87.004V89.992C126.734 90.184 126.702 90.328 126.638 90.424C126.582 90.52 126.474 90.596 126.314 90.652C125.994 90.788 125.606 90.896 125.15 90.976C124.694 91.056 124.238 91.096 123.782 91.096C122.942 91.096 122.218 90.924 121.61 90.58C121.002 90.236 120.534 89.74 120.206 89.092C119.886 88.444 119.726 87.668 119.726 86.764C119.726 85.876 119.886 85.108 120.206 84.46C120.526 83.812 120.986 83.316 121.586 82.972C122.186 82.62 122.89 82.444 123.698 82.444C124.258 82.444 124.778 82.532 125.258 82.708C125.738 82.876 126.142 83.12 126.47 83.44C126.606 83.576 126.674 83.716 126.674 83.86C126.674 83.972 126.642 84.072 126.578 84.16C126.514 84.24 126.434 84.28 126.338 84.28C126.242 84.28 126.13 84.232 126.002 84.136C125.586 83.816 125.21 83.596 124.874 83.476C124.538 83.348 124.15 83.284 123.71 83.284C122.758 83.284 122.026 83.584 121.514 84.184C121.01 84.784 120.758 85.644 120.758 86.764C120.758 87.908 121.014 88.78 121.526 89.38C122.046 89.972 122.806 90.268 123.806 90.268C124.55 90.268 125.226 90.156 125.834 89.932V87.364H124.082C123.946 87.364 123.838 87.328 123.758 87.256C123.678 87.184 123.638 87.092 123.638 86.98C123.638 86.86 123.678 86.768 123.758 86.704C123.838 86.632 123.946 86.596 124.082 86.596H126.326ZM130.882 91.084C130.329 91.084 129.841 90.96 129.417 90.712C129.001 90.464 128.677 90.112 128.445 89.656C128.221 89.192 128.109 88.656 128.109 88.048C128.109 87.44 128.221 86.908 128.445 86.452C128.677 85.988 129.001 85.632 129.417 85.384C129.841 85.136 130.329 85.012 130.882 85.012C131.434 85.012 131.922 85.136 132.346 85.384C132.77 85.632 133.094 85.988 133.318 86.452C133.549 86.908 133.665 87.44 133.665 88.048C133.665 88.656 133.549 89.192 133.318 89.656C133.094 90.112 132.77 90.464 132.346 90.712C131.922 90.96 131.434 91.084 130.882 91.084ZM130.882 90.28C131.457 90.28 131.898 90.092 132.202 89.716C132.514 89.332 132.67 88.776 132.67 88.048C132.67 87.336 132.514 86.788 132.202 86.404C131.89 86.012 131.45 85.816 130.882 85.816C130.314 85.816 129.874 86.012 129.562 86.404C129.249 86.788 129.093 87.336 129.093 88.048C129.093 88.768 129.245 89.32 129.549 89.704C129.862 90.088 130.306 90.28 130.882 90.28ZM137.382 85.012C138.846 85.012 139.578 85.78 139.578 87.316V90.58C139.578 90.724 139.534 90.84 139.446 90.928C139.366 91.016 139.254 91.06 139.11 91.06C138.966 91.06 138.85 91.016 138.762 90.928C138.674 90.84 138.63 90.724 138.63 90.58V90.004C138.478 90.348 138.246 90.616 137.934 90.808C137.622 90.992 137.262 91.084 136.854 91.084C136.478 91.084 136.13 91.008 135.81 90.856C135.498 90.704 135.25 90.492 135.066 90.22C134.882 89.948 134.79 89.648 134.79 89.32C134.79 88.88 134.902 88.54 135.126 88.3C135.35 88.052 135.718 87.876 136.23 87.772C136.742 87.66 137.454 87.604 138.366 87.604H138.63V87.208C138.63 86.728 138.53 86.376 138.33 86.152C138.138 85.928 137.822 85.816 137.382 85.816C136.838 85.816 136.286 85.964 135.726 86.26C135.51 86.396 135.358 86.464 135.27 86.464C135.174 86.464 135.094 86.428 135.03 86.356C134.966 86.284 134.934 86.192 134.934 86.08C134.934 85.968 134.966 85.872 135.03 85.792C135.102 85.704 135.214 85.616 135.366 85.528C135.646 85.368 135.962 85.244 136.314 85.156C136.674 85.06 137.03 85.012 137.382 85.012ZM136.986 90.316C137.466 90.316 137.858 90.156 138.162 89.836C138.474 89.508 138.63 89.088 138.63 88.576V88.228H138.414C137.71 88.228 137.174 88.26 136.806 88.324C136.438 88.38 136.174 88.48 136.014 88.624C135.862 88.76 135.786 88.964 135.786 89.236C135.786 89.548 135.898 89.808 136.122 90.016C136.354 90.216 136.642 90.316 136.986 90.316ZM141.729 91.06C141.585 91.06 141.465 91.02 141.369 90.94C141.281 90.852 141.237 90.732 141.237 90.58V82.96C141.237 82.808 141.281 82.692 141.369 82.612C141.465 82.524 141.585 82.48 141.729 82.48C141.865 82.48 141.977 82.524 142.065 82.612C142.161 82.692 142.209 82.808 142.209 82.96V90.58C142.209 90.732 142.161 90.852 142.065 90.94C141.977 91.02 141.865 91.06 141.729 91.06Z"></path>
<path fill="#828282" d="M207.589 90.436C207.621 90.5 207.637 90.568 207.637 90.64C207.637 90.76 207.589 90.86 207.493 90.94C207.405 91.02 207.297 91.06 207.169 91.06C206.969 91.06 206.829 90.964 206.749 90.772L205.897 88.828H201.373L200.509 90.772C200.429 90.964 200.289 91.06 200.089 91.06C199.961 91.06 199.849 91.02 199.753 90.94C199.657 90.852 199.609 90.748 199.609 90.628C199.609 90.564 199.625 90.5 199.657 90.436L203.089 82.804C203.137 82.692 203.209 82.608 203.305 82.552C203.401 82.496 203.505 82.468 203.617 82.468C203.737 82.468 203.845 82.5 203.941 82.564C204.037 82.62 204.109 82.7 204.157 82.804L207.589 90.436ZM201.733 88.012H205.537L203.629 83.704L201.733 88.012ZM213.2 85.036C213.352 85.036 213.468 85.08 213.548 85.168C213.636 85.256 213.68 85.372 213.68 85.516V90.592C213.68 90.728 213.636 90.84 213.548 90.928C213.468 91.016 213.352 91.06 213.2 91.06C213.056 91.06 212.94 91.02 212.852 90.94C212.772 90.852 212.732 90.74 212.732 90.604V90.004C212.548 90.356 212.288 90.624 211.952 90.808C211.624 90.992 211.252 91.084 210.836 91.084C210.14 91.084 209.616 90.892 209.264 90.508C208.912 90.116 208.736 89.54 208.736 88.78V85.516C208.736 85.372 208.78 85.256 208.868 85.168C208.956 85.08 209.076 85.036 209.228 85.036C209.38 85.036 209.496 85.08 209.576 85.168C209.664 85.256 209.708 85.372 209.708 85.516V88.756C209.708 89.276 209.812 89.66 210.02 89.908C210.228 90.148 210.556 90.268 211.004 90.268C211.516 90.268 211.928 90.104 212.24 89.776C212.552 89.44 212.708 89 212.708 88.456V85.516C212.708 85.372 212.752 85.256 212.84 85.168C212.928 85.08 213.048 85.036 213.2 85.036ZM220.059 82.48C220.211 82.48 220.331 82.524 220.419 82.612C220.507 82.7 220.551 82.812 220.551 82.948V90.58C220.551 90.724 220.507 90.84 220.419 90.928C220.331 91.016 220.211 91.06 220.059 91.06C219.907 91.06 219.787 91.016 219.699 90.928C219.619 90.84 219.579 90.724 219.579 90.58V89.932C219.403 90.3 219.143 90.584 218.799 90.784C218.463 90.984 218.067 91.084 217.611 91.084C217.099 91.084 216.647 90.956 216.255 90.7C215.863 90.444 215.559 90.088 215.343 89.632C215.127 89.168 215.019 88.632 215.019 88.024C215.019 87.424 215.127 86.896 215.343 86.44C215.559 85.984 215.863 85.632 216.255 85.384C216.647 85.136 217.099 85.012 217.611 85.012C218.067 85.012 218.463 85.112 218.799 85.312C219.143 85.512 219.403 85.796 219.579 86.164V82.948C219.579 82.804 219.619 82.692 219.699 82.612C219.787 82.524 219.907 82.48 220.059 82.48ZM217.803 90.28C218.371 90.28 218.807 90.088 219.111 89.704C219.423 89.312 219.579 88.76 219.579 88.048C219.579 87.336 219.423 86.788 219.111 86.404C218.807 86.02 218.371 85.828 217.803 85.828C217.235 85.828 216.791 86.02 216.471 86.404C216.159 86.788 216.003 87.328 216.003 88.024C216.003 88.736 216.159 89.292 216.471 89.692C216.791 90.084 217.235 90.28 217.803 90.28ZM222.723 91.06C222.579 91.06 222.459 91.02 222.363 90.94C222.275 90.852 222.231 90.732 222.231 90.58V85.516C222.231 85.364 222.275 85.248 222.363 85.168C222.459 85.08 222.579 85.036 222.723 85.036C222.867 85.036 222.983 85.08 223.071 85.168C223.159 85.248 223.203 85.364 223.203 85.516V90.58C223.203 90.74 223.159 90.86 223.071 90.94C222.983 91.02 222.867 91.06 222.723 91.06ZM222.723 83.776C222.531 83.776 222.375 83.72 222.255 83.608C222.135 83.496 222.075 83.348 222.075 83.164C222.075 82.988 222.135 82.844 222.255 82.732C222.375 82.62 222.531 82.564 222.723 82.564C222.915 82.564 223.071 82.62 223.191 82.732C223.311 82.844 223.371 82.988 223.371 83.164C223.371 83.348 223.311 83.496 223.191 83.608C223.071 83.72 222.915 83.776 222.723 83.776ZM229.424 89.644C229.512 89.644 229.588 89.68 229.652 89.752C229.716 89.824 229.748 89.916 229.748 90.028C229.748 90.228 229.608 90.412 229.328 90.58C229.04 90.748 228.736 90.876 228.416 90.964C228.096 91.044 227.784 91.084 227.48 91.084C226.576 91.084 225.86 90.816 225.332 90.28C224.812 89.744 224.552 89.004 224.552 88.06C224.552 87.46 224.668 86.932 224.9 86.476C225.132 86.012 225.456 85.652 225.872 85.396C226.296 85.14 226.776 85.012 227.312 85.012C228.072 85.012 228.676 85.26 229.124 85.756C229.572 86.252 229.796 86.924 229.796 87.772C229.796 87.932 229.764 88.048 229.7 88.12C229.636 88.192 229.532 88.228 229.388 88.228H225.524C225.596 89.604 226.248 90.292 227.48 90.292C227.792 90.292 228.06 90.252 228.284 90.172C228.508 90.084 228.748 89.968 229.004 89.824C229.212 89.704 229.352 89.644 229.424 89.644ZM227.324 85.768C226.812 85.768 226.4 85.928 226.088 86.248C225.784 86.568 225.604 87.02 225.548 87.604H228.944C228.928 87.012 228.78 86.56 228.5 86.248C228.22 85.928 227.828 85.768 227.324 85.768ZM234.048 85.012C235.448 85.012 236.148 85.784 236.148 87.328V90.58C236.148 90.732 236.104 90.852 236.016 90.94C235.936 91.02 235.82 91.06 235.668 91.06C235.516 91.06 235.396 91.02 235.308 90.94C235.22 90.852 235.176 90.732 235.176 90.58V87.388C235.176 86.844 235.068 86.448 234.852 86.2C234.644 85.952 234.308 85.828 233.844 85.828C233.308 85.828 232.88 85.992 232.56 86.32C232.24 86.648 232.08 87.092 232.08 87.652V90.58C232.08 90.732 232.036 90.852 231.948 90.94C231.868 91.02 231.752 91.06 231.6 91.06C231.448 91.06 231.328 91.02 231.24 90.94C231.152 90.852 231.108 90.732 231.108 90.58V85.516C231.108 85.372 231.152 85.256 231.24 85.168C231.328 85.08 231.448 85.036 231.6 85.036C231.744 85.036 231.856 85.08 231.936 85.168C232.024 85.256 232.068 85.368 232.068 85.504V86.116C232.26 85.756 232.528 85.484 232.872 85.3C233.216 85.108 233.608 85.012 234.048 85.012ZM240.22 91.084C239.676 91.084 239.192 90.96 238.768 90.712C238.352 90.464 238.028 90.112 237.796 89.656C237.572 89.2 237.46 88.672 237.46 88.072C237.46 87.472 237.576 86.94 237.808 86.476C238.048 86.012 238.38 85.652 238.804 85.396C239.228 85.14 239.716 85.012 240.268 85.012C240.572 85.012 240.872 85.056 241.168 85.144C241.472 85.224 241.736 85.344 241.96 85.504C242.104 85.6 242.204 85.696 242.26 85.792C242.324 85.88 242.356 85.98 242.356 86.092C242.356 86.204 242.324 86.296 242.26 86.368C242.204 86.44 242.128 86.476 242.032 86.476C241.976 86.476 241.916 86.46 241.852 86.428C241.788 86.396 241.732 86.364 241.684 86.332C241.644 86.3 241.616 86.28 241.6 86.272C241.392 86.136 241.192 86.028 241 85.948C240.816 85.868 240.588 85.828 240.316 85.828C239.732 85.828 239.276 86.028 238.948 86.428C238.628 86.82 238.468 87.368 238.468 88.072C238.468 88.776 238.628 89.32 238.948 89.704C239.276 90.088 239.732 90.28 240.316 90.28C240.588 90.28 240.82 90.24 241.012 90.16C241.212 90.08 241.412 89.972 241.612 89.836C241.7 89.78 241.784 89.732 241.864 89.692C241.944 89.652 242.012 89.632 242.068 89.632C242.156 89.632 242.228 89.668 242.284 89.74C242.348 89.812 242.38 89.904 242.38 90.016C242.38 90.12 242.352 90.216 242.296 90.304C242.24 90.384 242.136 90.476 241.984 90.58C241.76 90.732 241.488 90.856 241.168 90.952C240.856 91.04 240.54 91.084 240.22 91.084ZM247.955 89.644C248.043 89.644 248.119 89.68 248.183 89.752C248.247 89.824 248.279 89.916 248.279 90.028C248.279 90.228 248.139 90.412 247.859 90.58C247.571 90.748 247.267 90.876 246.947 90.964C246.627 91.044 246.315 91.084 246.011 91.084C245.107 91.084 244.391 90.816 243.863 90.28C243.343 89.744 243.083 89.004 243.083 88.06C243.083 87.46 243.199 86.932 243.431 86.476C243.663 86.012 243.987 85.652 244.403 85.396C244.827 85.14 245.307 85.012 245.843 85.012C246.603 85.012 247.207 85.26 247.655 85.756C248.103 86.252 248.327 86.924 248.327 87.772C248.327 87.932 248.295 88.048 248.231 88.12C248.167 88.192 248.063 88.228 247.919 88.228H244.055C244.127 89.604 244.779 90.292 246.011 90.292C246.323 90.292 246.591 90.252 246.815 90.172C247.039 90.084 247.279 89.968 247.535 89.824C247.743 89.704 247.883 89.644 247.955 89.644ZM245.855 85.768C245.343 85.768 244.931 85.928 244.619 86.248C244.315 86.568 244.135 87.02 244.079 87.604H247.475C247.459 87.012 247.311 86.56 247.031 86.248C246.751 85.928 246.359 85.768 245.855 85.768Z"></path>
<path fill="#828282" d="M296.391 90.436C296.423 90.5 296.439 90.568 296.439 90.64C296.439 90.76 296.391 90.86 296.295 90.94C296.207 91.02 296.099 91.06 295.971 91.06C295.771 91.06 295.631 90.964 295.551 90.772L294.699 88.828H290.175L289.311 90.772C289.231 90.964 289.091 91.06 288.891 91.06C288.763 91.06 288.651 91.02 288.555 90.94C288.459 90.852 288.411 90.748 288.411 90.628C288.411 90.564 288.427 90.5 288.459 90.436L291.891 82.804C291.939 82.692 292.011 82.608 292.107 82.552C292.203 82.496 292.307 82.468 292.419 82.468C292.539 82.468 292.647 82.5 292.743 82.564C292.839 82.62 292.911 82.7 292.959 82.804L296.391 90.436ZM290.535 88.012H294.339L292.431 83.704L290.535 88.012ZM300.072 83.308C299.648 83.34 299.328 83.476 299.112 83.716C298.896 83.948 298.788 84.3 298.788 84.772V85.156H300.12C300.256 85.156 300.36 85.192 300.432 85.264C300.504 85.336 300.54 85.432 300.54 85.552C300.54 85.672 300.504 85.764 300.432 85.828C300.36 85.892 300.256 85.924 300.12 85.924H298.788V90.58C298.788 90.732 298.74 90.852 298.644 90.94C298.556 91.02 298.444 91.06 298.308 91.06C298.164 91.06 298.044 91.02 297.948 90.94C297.86 90.852 297.816 90.732 297.816 90.58V85.924H297.012C296.876 85.924 296.768 85.892 296.688 85.828C296.616 85.756 296.58 85.664 296.58 85.552C296.58 85.432 296.616 85.336 296.688 85.264C296.768 85.192 296.876 85.156 297.012 85.156H297.816V84.94C297.816 84.22 297.996 83.656 298.356 83.248C298.716 82.832 299.232 82.6 299.904 82.552L300.216 82.528C300.424 82.512 300.572 82.532 300.66 82.588C300.756 82.644 300.804 82.744 300.804 82.888C300.804 83.12 300.664 83.252 300.384 83.284L300.072 83.308ZM305.785 85.156C305.921 85.156 306.025 85.192 306.097 85.264C306.169 85.336 306.205 85.432 306.205 85.552V90.58C306.205 90.732 306.157 90.852 306.061 90.94C305.973 91.02 305.861 91.06 305.725 91.06C305.581 91.06 305.461 91.02 305.365 90.94C305.277 90.852 305.233 90.732 305.233 90.58V85.924H302.605V90.58C302.605 90.732 302.557 90.852 302.461 90.94C302.373 91.02 302.261 91.06 302.125 91.06C301.981 91.06 301.861 91.02 301.765 90.94C301.677 90.852 301.633 90.732 301.633 90.58V85.924H300.829C300.693 85.924 300.585 85.892 300.505 85.828C300.433 85.756 300.397 85.664 300.397 85.552C300.397 85.432 300.433 85.336 300.505 85.264C300.585 85.192 300.693 85.156 300.829 85.156H301.633V84.952C301.633 84.232 301.813 83.668 302.173 83.26C302.533 82.844 303.049 82.608 303.721 82.552L304.009 82.528C304.393 82.496 304.585 82.616 304.585 82.888C304.585 83.12 304.449 83.252 304.177 83.284L303.889 83.308C303.465 83.34 303.145 83.476 302.929 83.716C302.713 83.948 302.605 84.3 302.605 84.772V85.156H305.785ZM305.725 82.564C305.909 82.564 306.061 82.62 306.181 82.732C306.309 82.844 306.373 82.988 306.373 83.164C306.373 83.348 306.313 83.496 306.193 83.608C306.073 83.72 305.917 83.776 305.725 83.776C305.533 83.776 305.377 83.72 305.257 83.608C305.137 83.496 305.077 83.348 305.077 83.164C305.077 82.988 305.137 82.844 305.257 82.732C305.377 82.62 305.533 82.564 305.725 82.564ZM310.833 85.012C312.233 85.012 312.933 85.784 312.933 87.328V90.58C312.933 90.732 312.889 90.852 312.801 90.94C312.721 91.02 312.605 91.06 312.453 91.06C312.301 91.06 312.181 91.02 312.093 90.94C312.005 90.852 311.961 90.732 311.961 90.58V87.388C311.961 86.844 311.853 86.448 311.637 86.2C311.429 85.952 311.093 85.828 310.629 85.828C310.093 85.828 309.665 85.992 309.345 86.32C309.025 86.648 308.865 87.092 308.865 87.652V90.58C308.865 90.732 308.821 90.852 308.733 90.94C308.653 91.02 308.537 91.06 308.385 91.06C308.233 91.06 308.113 91.02 308.025 90.94C307.937 90.852 307.893 90.732 307.893 90.58V85.516C307.893 85.372 307.937 85.256 308.025 85.168C308.113 85.08 308.233 85.036 308.385 85.036C308.529 85.036 308.641 85.08 308.721 85.168C308.809 85.256 308.853 85.368 308.853 85.504V86.116C309.045 85.756 309.313 85.484 309.657 85.3C310.001 85.108 310.393 85.012 310.833 85.012ZM315.085 91.06C314.941 91.06 314.821 91.02 314.725 90.94C314.637 90.852 314.593 90.732 314.593 90.58V85.516C314.593 85.364 314.637 85.248 314.725 85.168C314.821 85.08 314.941 85.036 315.085 85.036C315.229 85.036 315.345 85.08 315.433 85.168C315.521 85.248 315.565 85.364 315.565 85.516V90.58C315.565 90.74 315.521 90.86 315.433 90.94C315.345 91.02 315.229 91.06 315.085 91.06ZM315.085 83.776C314.893 83.776 314.737 83.72 314.617 83.608C314.497 83.496 314.437 83.348 314.437 83.164C314.437 82.988 314.497 82.844 314.617 82.732C314.737 82.62 314.893 82.564 315.085 82.564C315.277 82.564 315.433 82.62 315.553 82.732C315.673 82.844 315.733 82.988 315.733 83.164C315.733 83.348 315.673 83.496 315.553 83.608C315.433 83.72 315.277 83.776 315.085 83.776ZM320.056 90.292C320.336 90.316 320.476 90.444 320.476 90.676C320.476 90.812 320.424 90.916 320.32 90.988C320.224 91.052 320.076 91.076 319.876 91.06L319.552 91.036C318.912 90.988 318.44 90.796 318.136 90.46C317.832 90.124 317.68 89.616 317.68 88.936V85.924H316.876C316.74 85.924 316.632 85.892 316.552 85.828C316.48 85.756 316.444 85.664 316.444 85.552C316.444 85.432 316.48 85.336 316.552 85.264C316.632 85.192 316.74 85.156 316.876 85.156H317.68V83.8C317.68 83.648 317.724 83.532 317.812 83.452C317.9 83.364 318.02 83.32 318.172 83.32C318.316 83.32 318.432 83.364 318.52 83.452C318.608 83.532 318.652 83.648 318.652 83.8V85.156H319.984C320.112 85.156 320.212 85.192 320.284 85.264C320.364 85.336 320.404 85.432 320.404 85.552C320.404 85.664 320.364 85.756 320.284 85.828C320.212 85.892 320.112 85.924 319.984 85.924H318.652V88.984C318.652 89.424 318.74 89.744 318.916 89.944C319.1 90.136 319.372 90.244 319.732 90.268L320.056 90.292ZM321.806 91.06C321.662 91.06 321.542 91.02 321.446 90.94C321.358 90.852 321.314 90.732 321.314 90.58V85.516C321.314 85.364 321.358 85.248 321.446 85.168C321.542 85.08 321.662 85.036 321.806 85.036C321.95 85.036 322.066 85.08 322.154 85.168C322.242 85.248 322.286 85.364 322.286 85.516V90.58C322.286 90.74 322.242 90.86 322.154 90.94C322.066 91.02 321.95 91.06 321.806 91.06ZM321.806 83.776C321.614 83.776 321.458 83.72 321.338 83.608C321.218 83.496 321.158 83.348 321.158 83.164C321.158 82.988 321.218 82.844 321.338 82.732C321.458 82.62 321.614 82.564 321.806 82.564C321.998 82.564 322.154 82.62 322.274 82.732C322.394 82.844 322.454 82.988 322.454 83.164C322.454 83.348 322.394 83.496 322.274 83.608C322.154 83.72 321.998 83.776 321.806 83.776ZM328.507 89.644C328.595 89.644 328.671 89.68 328.735 89.752C328.799 89.824 328.831 89.916 328.831 90.028C328.831 90.228 328.691 90.412 328.411 90.58C328.123 90.748 327.819 90.876 327.499 90.964C327.179 91.044 326.867 91.084 326.563 91.084C325.659 91.084 324.943 90.816 324.415 90.28C323.895 89.744 323.635 89.004 323.635 88.06C323.635 87.46 323.751 86.932 323.983 86.476C324.215 86.012 324.539 85.652 324.955 85.396C325.379 85.14 325.859 85.012 326.395 85.012C327.155 85.012 327.759 85.26 328.207 85.756C328.655 86.252 328.879 86.924 328.879 87.772C328.879 87.932 328.847 88.048 328.783 88.12C328.719 88.192 328.615 88.228 328.471 88.228H324.607C324.679 89.604 325.331 90.292 326.563 90.292C326.875 90.292 327.143 90.252 327.367 90.172C327.591 90.084 327.831 89.968 328.087 89.824C328.295 89.704 328.435 89.644 328.507 89.644ZM326.407 85.768C325.895 85.768 325.483 85.928 325.171 86.248C324.867 86.568 324.687 87.02 324.631 87.604H328.027C328.011 87.012 327.863 86.56 327.583 86.248C327.303 85.928 326.911 85.768 326.407 85.768ZM332.159 91.084C331.791 91.084 331.439 91.04 331.103 90.952C330.775 90.864 330.483 90.74 330.227 90.58C330.083 90.484 329.979 90.396 329.915 90.316C329.859 90.228 329.831 90.124 329.831 90.004C329.831 89.9 329.859 89.816 329.915 89.752C329.979 89.68 330.059 89.644 330.155 89.644C330.251 89.644 330.391 89.704 330.575 89.824C330.815 89.968 331.051 90.084 331.283 90.172C331.523 90.252 331.819 90.292 332.171 90.292C332.603 90.292 332.939 90.216 333.179 90.064C333.419 89.912 333.539 89.692 333.539 89.404C333.539 89.228 333.495 89.088 333.407 88.984C333.319 88.872 333.167 88.776 332.951 88.696C332.735 88.608 332.419 88.52 332.003 88.432C331.299 88.28 330.795 88.076 330.491 87.82C330.187 87.564 330.035 87.216 330.035 86.776C330.035 86.432 330.131 86.128 330.323 85.864C330.515 85.6 330.779 85.392 331.115 85.24C331.459 85.088 331.847 85.012 332.279 85.012C332.591 85.012 332.891 85.056 333.179 85.144C333.475 85.224 333.735 85.34 333.959 85.492C334.231 85.684 334.367 85.884 334.367 86.092C334.367 86.196 334.335 86.284 334.271 86.356C334.207 86.428 334.131 86.464 334.043 86.464C333.947 86.464 333.803 86.396 333.611 86.26C333.387 86.116 333.175 86.004 332.975 85.924C332.775 85.844 332.527 85.804 332.231 85.804C331.855 85.804 331.551 85.888 331.319 86.056C331.095 86.224 330.983 86.448 330.983 86.728C330.983 86.904 331.023 87.048 331.103 87.16C331.191 87.264 331.331 87.36 331.523 87.448C331.723 87.528 332.007 87.608 332.375 87.688C332.919 87.808 333.339 87.94 333.635 88.084C333.939 88.228 334.155 88.404 334.283 88.612C334.411 88.82 334.475 89.084 334.475 89.404C334.475 89.908 334.263 90.316 333.839 90.628C333.415 90.932 332.855 91.084 332.159 91.084Z"></path>
<path stroke-dasharray="2 2" stroke-linecap="round" stroke="#B8B8B8" d="M32 42.4999C40.3468 38.5079 66.1723 -5.95148 127.5 27.5001C149.5 39.5001 163.5 47.0001 192.5 47C221.5 46.9999 244 25.5004 269 19.5003C294 13.5001 309.5 27.5001 309.5 27.5001"></path>
<g filter="url(#filter0_d)">
<path fill="url(#paint0_linear)" d="M6 39.0024C6 39.0024 29.8586 37.3489 35.1595 31.9657C40.4603 26.5825 42.0885 2.36279 42.0885 2.36279C42.0885 2.36279 43.7075 26.5919 49.0084 31.9751C54.3092 37.3583 78.1586 39.0024 78.1586 39.0024C78.1586 39.0024 54.3 40.6559 48.9991 46.0391C43.6982 51.4223 42.07 75.642 42.07 75.642C42.07 75.642 40.4511 51.4129 35.1502 46.0297C29.8586 40.6559 6 39.0024 6 39.0024Z"></path>
</g>
<path stroke="#E0E0E0" fill="#FAF8FB" d="M126.585 24.9771L126.586 24.9766C127.688 23.8538 128.549 21.818 129.234 19.5001C129.927 17.1569 130.464 14.4331 130.873 11.8514C131.132 10.2169 131.341 8.63461 131.504 7.23527C131.667 8.63458 131.875 10.2168 132.134 11.8513C132.542 14.433 133.079 17.1569 133.772 19.5002C134.458 21.8182 135.32 23.8543 136.426 24.9771C137.53 26.1008 139.531 26.9786 141.809 27.6765C144.111 28.3821 146.787 28.9297 149.322 29.3465C150.958 29.6154 152.54 29.8305 153.934 29.9987C152.54 30.1662 150.957 30.3808 149.321 30.6492C146.785 31.0653 144.108 31.6126 141.804 32.3188C139.525 33.0174 137.521 33.8967 136.414 35.0234C135.312 36.1462 134.451 38.182 133.766 40.4999C133.074 42.8431 132.536 45.5669 132.127 48.1486C131.868 49.7831 131.659 51.3654 131.496 52.7647C131.333 51.3654 131.125 49.7832 130.866 48.1487C130.458 45.567 129.921 42.8431 129.228 40.4998C128.542 38.1822 127.68 36.1463 126.575 35.0234C125.471 33.8995 123.469 33.0215 121.192 32.3235C118.889 31.6179 116.213 31.0703 113.678 30.6535C112.038 30.384 110.452 30.1684 109.056 30C110.452 29.8317 112.039 29.6161 113.679 29.3465C116.215 28.9297 118.892 28.3821 121.196 27.6765C123.475 26.9785 125.479 26.1006 126.585 24.9771Z"></path>
<path stroke="#E0E0E0" fill="#FAF8FB" d="M230.367 32.3939L230.367 32.3942C231.716 33.7642 234.178 34.8457 237.007 35.7105C239.861 36.5829 243.181 37.2607 246.33 37.7767C248.772 38.1769 251.118 38.4811 253.076 38.7035C251.119 38.9252 248.774 39.2287 246.334 39.6283C243.185 40.1438 239.866 40.8213 237.011 41.6941C234.181 42.5594 231.718 43.6421 230.367 45.0144C229.019 46.3834 227.955 48.881 227.104 51.753C226.245 54.6504 225.578 58.0206 225.07 61.2179C224.68 63.6671 224.384 66.0217 224.165 67.995C223.948 66.0217 223.652 63.6672 223.264 61.2181C222.757 58.0208 222.09 54.6505 221.233 51.7532C220.382 48.8811 219.319 46.3834 217.971 45.0144C216.62 43.6421 214.157 42.5589 211.327 41.6927C208.472 40.8189 205.153 40.1403 202.004 39.6236C199.563 39.2229 197.217 38.9185 195.259 38.6959C197.217 38.4741 199.563 38.1706 202.004 37.7709C205.153 37.2554 208.472 36.5779 211.327 35.705C214.157 34.8397 216.619 33.7571 217.971 32.3848C219.319 31.0158 220.383 28.5188 221.234 25.6476C222.093 22.7512 222.76 19.3821 223.268 16.186C223.657 13.7378 223.954 11.3841 224.172 9.41155C224.39 11.3843 224.686 13.7383 225.074 16.187C225.581 19.3837 226.247 22.7536 227.105 25.6514C227.955 28.524 229.019 31.0226 230.367 32.3939Z"></path>
<path fill="white" d="M44.0354 41.7764C44.5154 41.7764 44.7554 41.9804 44.7554 42.3884C44.7554 42.8124 44.5154 43.0244 44.0354 43.0244H39.9794C39.4914 43.0244 39.2474 42.8124 39.2474 42.3884C39.2474 41.9804 39.4914 41.7764 39.9794 41.7764H41.2274V36.3044L40.0754 37.0124C39.9634 37.0764 39.8634 37.1084 39.7754 37.1084C39.6074 37.1084 39.4634 37.0364 39.3434 36.8924C39.2314 36.7484 39.1754 36.5884 39.1754 36.4124C39.1754 36.1804 39.2794 36.0004 39.4874 35.8724L41.3474 34.7204C41.5874 34.5764 41.8154 34.5044 42.0314 34.5044C42.2554 34.5044 42.4354 34.5724 42.5714 34.7084C42.7074 34.8444 42.7754 35.0324 42.7754 35.2724V41.7764H44.0354Z"></path>
<path fill="#4F4F4F" d="M133.793 32.813C134.273 32.813 134.513 33.017 134.513 33.425C134.513 33.849 134.273 34.061 133.793 34.061H129.233C129.025 34.061 128.861 34.001 128.741 33.881C128.621 33.753 128.561 33.597 128.561 33.413C128.561 33.173 128.653 32.957 128.837 32.765L131.573 29.825C131.909 29.457 132.153 29.121 132.305 28.817C132.465 28.505 132.545 28.197 132.545 27.893C132.545 27.517 132.437 27.229 132.221 27.029C132.005 26.829 131.697 26.729 131.297 26.729C130.969 26.729 130.649 26.793 130.337 26.921C130.033 27.041 129.725 27.209 129.413 27.425C129.333 27.481 129.253 27.529 129.173 27.569C129.093 27.601 129.013 27.617 128.933 27.617C128.797 27.617 128.677 27.553 128.573 27.425C128.477 27.297 128.429 27.145 128.429 26.969C128.429 26.849 128.449 26.745 128.489 26.657C128.537 26.569 128.609 26.485 128.705 26.405C129.057 26.125 129.469 25.905 129.941 25.745C130.413 25.577 130.885 25.493 131.357 25.493C132.181 25.493 132.837 25.701 133.325 26.117C133.821 26.533 134.069 27.093 134.069 27.797C134.069 28.285 133.965 28.745 133.757 29.177C133.549 29.601 133.197 30.077 132.701 30.605L130.625 32.813H133.793Z"></path>
<path fill="#4F4F4F" d="M225.626 38.6057C226.13 38.7337 226.514 38.9777 226.778 39.3377C227.05 39.6897 227.186 40.1297 227.186 40.6577C227.186 41.3857 226.918 41.9657 226.382 42.3977C225.846 42.8297 225.122 43.0457 224.21 43.0457C223.69 43.0457 223.19 42.9657 222.71 42.8057C222.23 42.6457 221.822 42.4217 221.486 42.1337C221.302 41.9737 221.21 41.7857 221.21 41.5697C221.21 41.3937 221.258 41.2457 221.354 41.1257C221.458 40.9977 221.578 40.9337 221.714 40.9337C221.794 40.9337 221.866 40.9497 221.93 40.9817C221.994 41.0057 222.082 41.0497 222.194 41.1137C222.53 41.3377 222.85 41.5097 223.154 41.6297C223.458 41.7497 223.79 41.8097 224.15 41.8097C224.678 41.8097 225.07 41.7057 225.326 41.4977C225.582 41.2817 225.71 40.9577 225.71 40.5257C225.71 40.1017 225.574 39.7897 225.302 39.5897C225.038 39.3817 224.626 39.2777 224.066 39.2777H223.382C223.198 39.2777 223.054 39.2177 222.95 39.0977C222.854 38.9697 222.806 38.8257 222.806 38.6657C222.806 38.4977 222.854 38.3537 222.95 38.2337C223.054 38.1137 223.198 38.0537 223.382 38.0537H223.862C224.958 38.0537 225.506 37.6417 225.506 36.8177C225.506 36.4337 225.39 36.1377 225.158 35.9297C224.926 35.7217 224.606 35.6177 224.198 35.6177C223.614 35.6177 222.99 35.8497 222.326 36.3137C222.214 36.3777 222.126 36.4257 222.062 36.4577C221.998 36.4817 221.926 36.4937 221.846 36.4937C221.71 36.4937 221.59 36.4337 221.486 36.3137C221.39 36.1857 221.342 36.0337 221.342 35.8577C221.342 35.7377 221.362 35.6377 221.402 35.5577C221.45 35.4697 221.522 35.3817 221.618 35.2937C221.954 35.0137 222.354 34.7937 222.818 34.6337C223.29 34.4657 223.77 34.3817 224.258 34.3817C225.09 34.3817 225.75 34.5857 226.238 34.9937C226.734 35.4017 226.982 35.9457 226.982 36.6257C226.974 37.0897 226.85 37.4977 226.61 37.8497C226.378 38.1937 226.05 38.4457 225.626 38.6057Z"></path>
<path stroke="#E0E0E0" fill="#FAF8FB" d="M314.822 24.5718L314.822 24.5722C315.908 25.6781 317.877 26.5412 320.114 27.2268C322.375 27.9201 325.004 28.4581 327.494 28.8674C329.073 29.1269 330.601 29.3354 331.952 29.4992C330.602 29.6627 329.075 29.8707 327.497 30.1298C325.007 30.5386 322.379 31.0764 320.117 31.77C317.879 32.4561 315.91 33.3201 314.822 34.4278C313.738 35.5326 312.891 37.5342 312.218 39.8108C311.538 42.1128 311.01 44.7883 310.608 47.3239C310.358 48.8999 310.157 50.4264 309.997 51.782C309.838 50.4264 309.637 48.9 309.388 47.3241C308.987 44.7885 308.46 42.1129 307.78 39.811C307.108 37.5343 306.262 35.5327 305.178 34.4278C304.09 33.3201 302.121 32.4557 299.883 31.7689C297.621 31.0746 294.993 30.5359 292.503 30.1261C290.924 29.8663 289.396 29.6575 288.046 29.4936C289.396 29.3301 290.924 29.122 292.503 28.8628C294.993 28.4539 297.621 27.9162 299.883 27.2225C302.121 26.5364 304.09 25.6725 305.178 24.5647C306.262 23.46 307.109 21.4589 307.782 19.1829C308.462 16.8817 308.99 14.2071 309.392 11.6724C309.642 10.097 309.843 8.57116 310.003 7.21611C310.161 8.57133 310.363 10.0974 310.612 11.6731C311.013 14.2083 311.54 16.8836 312.219 19.1859C312.892 21.4629 313.738 23.4653 314.822 24.5718Z"></path>
<path fill="#4F4F4F" d="M312.762 31.144C313.002 31.144 313.182 31.196 313.302 31.3C313.422 31.404 313.482 31.552 313.482 31.744C313.482 32.144 313.242 32.344 312.762 32.344H312.15V33.292C312.15 33.54 312.078 33.732 311.934 33.868C311.798 34.004 311.618 34.072 311.394 34.072C311.17 34.072 310.986 34.004 310.842 33.868C310.706 33.732 310.638 33.54 310.638 33.292V32.344H307.494C307.278 32.344 307.11 32.284 306.99 32.164C306.87 32.036 306.81 31.88 306.81 31.696C306.81 31.504 306.874 31.32 307.002 31.144L310.71 25.816C310.79 25.704 310.89 25.62 311.01 25.564C311.13 25.5 311.254 25.468 311.382 25.468C311.59 25.468 311.77 25.536 311.922 25.672C312.074 25.808 312.15 26 312.15 26.248V31.144H312.762ZM308.406 31.144H310.638V27.916L308.406 31.144Z"></path>
<defs>
<filter color-interpolation-filters="sRGB" filterUnits="userSpaceOnUse" height="85.2792" width="84.1586" y="0.362793" x="0" id="filter0_d">
<feFlood result="BackgroundImageFix" flood-opacity="0"></feFlood>
<feColorMatrix values="0 0 0 0 0 0 0 0 0 0 0 0 0 0 0 0 0 0 127 0" type="matrix" in="SourceAlpha"></feColorMatrix>
<feOffset dy="4"></feOffset>
<feGaussianBlur stdDeviation="3"></feGaussianBlur>
<feColorMatrix values="0 0 0 0 0.113725 0 0 0 0 0.317647 0 0 0 0 0.635294 0 0 0 0.5 0" type="matrix"></feColorMatrix>
<feBlend result="effect1_dropShadow" in2="BackgroundImageFix" mode="normal"></feBlend>
<feBlend result="shape" in2="effect1_dropShadow" in="SourceGraphic" mode="normal"></feBlend>
</filter>
<linearGradient gradientUnits="userSpaceOnUse" y2="33.7371" x2="104.833" y1="18.4842" x1="14.6227" id="paint0_linear">
<stop stop-color="#57107C"></stop>
<stop stop-color="#57107C" offset="0.151042"></stop>
<stop stop-color="#1D51A2" offset="1"></stop>
</linearGradient>
</defs>
</svg>
