<svg width="21" height="21" viewBox="0 0 21 21" fill="none" xmlns="http://www.w3.org/2000/svg">
<g clip-path="url(#clip0)">
<path d="M19.8476 12.7802L18.2026 12.9894C18.067 13.4068 17.8999 13.8092 17.7048 14.1916L18.7206 15.4998C19.1319 16.0291 19.0838 16.7764 18.6139 17.2314L17.2358 18.6095C16.7764 19.0837 16.0291 19.131 15.4989 18.7206L14.1925 17.7048C13.8101 17.8999 13.4076 18.067 12.9894 18.2026L12.7803 19.845C12.7015 20.5039 12.1424 21 11.48 21H9.52C8.85763 21 8.2985 20.5039 8.21975 19.8476L8.01062 18.2026C7.59238 18.067 7.18988 17.9007 6.8075 17.7048L5.50025 18.7206C4.97175 19.131 4.2245 19.0838 3.76863 18.6139L2.3905 17.2366C1.91625 16.7764 1.86813 16.0291 2.27938 15.4989L3.29525 14.1916C3.09925 13.8092 2.933 13.4068 2.79738 12.9894L1.155 12.7802C0.496125 12.7015 0 12.1424 0 11.48V9.52C0 8.85763 0.496125 8.2985 1.15238 8.21975L2.79738 8.01062C2.933 7.59325 3.10013 7.19075 3.29525 6.80838L2.27938 5.50025C1.86813 4.97087 1.91625 4.22363 2.38613 3.76862L3.76425 2.3905C4.2245 1.91713 4.97088 1.86987 5.50113 2.28025L6.80838 3.29613C7.19075 3.10012 7.59325 2.933 8.01062 2.79825L8.21975 1.15675C8.2985 0.496126 8.85763 0 9.52 0H11.48C12.1424 0 12.7015 0.496124 12.7803 1.15237L12.9894 2.79737C13.4068 2.933 13.8093 3.10013 14.1916 3.29525L15.4998 2.27938C16.0291 1.86812 16.7764 1.91625 17.2314 2.38612L18.6095 3.76425C19.0838 4.2245 19.1319 4.97087 18.7206 5.50113L17.7048 6.80838C17.9008 7.19075 18.0679 7.59325 18.2026 8.01062L19.8441 8.21975C20.503 8.2985 20.9991 8.85763 20.9991 9.52V11.48C21 12.1424 20.5039 12.7015 19.8476 12.7802ZM10.5 6.125C8.08763 6.125 6.125 8.08763 6.125 10.5C6.125 12.9124 8.08763 14.875 10.5 14.875C12.9124 14.875 14.875 12.9124 14.875 10.5C14.875 8.08763 12.9124 6.125 10.5 6.125Z" fill="#58107C"/>
</g>
<defs>
<clipPath id="clip0">
<rect width="21" height="21" fill="white" transform="matrix(1 0 0 -1 0 21)"/>
</clipPath>
</defs>
</svg>
