<svg width="337" height="94" viewBox="0 0 337 94" fill="none" xmlns="http://www.w3.org/2000/svg">
<path d="M27.5877 91.096C27.0597 91.096 26.7957 90.824 26.7957 90.28V83.356C26.7957 82.812 27.0677 82.54 27.6117 82.54H31.7997C32.2157 82.54 32.4237 82.74 32.4237 83.14C32.4237 83.556 32.2157 83.764 31.7997 83.764H28.3317V86.152H31.5477C31.9637 86.152 32.1717 86.352 32.1717 86.752C32.1717 87.168 31.9637 87.376 31.5477 87.376H28.3317V90.28C28.3317 90.824 28.0837 91.096 27.5877 91.096ZM35.7545 91.12C34.4185 91.12 33.7505 90.372 33.7505 88.876V83.2C33.7505 82.696 33.9985 82.444 34.4945 82.444C34.9985 82.444 35.2505 82.696 35.2505 83.2V88.804C35.2505 89.524 35.5505 89.884 36.1505 89.884C36.2145 89.884 36.2745 89.884 36.3305 89.884C36.3865 89.876 36.4425 89.868 36.4985 89.86C36.6105 89.844 36.6865 89.876 36.7265 89.956C36.7665 90.028 36.7865 90.18 36.7865 90.412C36.7865 90.612 36.7465 90.768 36.6665 90.88C36.5865 90.992 36.4545 91.06 36.2705 91.084C36.1025 91.108 35.9305 91.12 35.7545 91.12ZM38.2065 83.932C37.9265 83.932 37.7065 83.864 37.5465 83.728C37.3945 83.584 37.3185 83.388 37.3185 83.14C37.3185 82.884 37.3945 82.688 37.5465 82.552C37.7065 82.416 37.9265 82.348 38.2065 82.348C38.7985 82.348 39.0945 82.612 39.0945 83.14C39.0945 83.668 38.7985 83.932 38.2065 83.932ZM38.2065 91.084C37.9665 91.084 37.7825 91.012 37.6545 90.868C37.5265 90.724 37.4625 90.524 37.4625 90.268V85.864C37.4625 85.32 37.7105 85.048 38.2065 85.048C38.7105 85.048 38.9625 85.32 38.9625 85.864V90.268C38.9625 90.524 38.8985 90.724 38.7705 90.868C38.6425 91.012 38.4545 91.084 38.2065 91.084ZM43.1371 93.28C42.7051 93.28 42.2851 93.24 41.8771 93.16C41.4771 93.08 41.1131 92.956 40.7851 92.788C40.5931 92.692 40.4771 92.568 40.4371 92.416C40.4051 92.272 40.4211 92.132 40.4851 91.996C40.5491 91.86 40.6451 91.76 40.7731 91.696C40.9091 91.64 41.0531 91.648 41.2051 91.72C41.5571 91.896 41.8891 92.008 42.2011 92.056C42.5211 92.112 42.7931 92.14 43.0171 92.14C44.0891 92.14 44.6251 91.624 44.6251 90.592V89.788C44.4571 90.116 44.1971 90.376 43.8451 90.568C43.5011 90.76 43.1171 90.856 42.6931 90.856C42.1651 90.856 41.7051 90.736 41.3131 90.496C40.9211 90.248 40.6171 89.904 40.4011 89.464C40.1851 89.024 40.0771 88.512 40.0771 87.928C40.0771 87.344 40.1851 86.836 40.4011 86.404C40.6171 85.964 40.9211 85.624 41.3131 85.384C41.7051 85.136 42.1651 85.012 42.6931 85.012C43.1171 85.012 43.5011 85.104 43.8451 85.288C44.1891 85.472 44.4411 85.724 44.6011 86.044V85.792C44.6011 85.544 44.6651 85.356 44.7931 85.228C44.9291 85.1 45.1131 85.036 45.3451 85.036C45.8411 85.036 46.0891 85.288 46.0891 85.792V90.412C46.0891 91.364 45.8371 92.08 45.3331 92.56C44.8291 93.04 44.0971 93.28 43.1371 93.28ZM43.1011 89.716C43.5651 89.716 43.9331 89.556 44.2051 89.236C44.4771 88.916 44.6131 88.48 44.6131 87.928C44.6131 87.376 44.4771 86.944 44.2051 86.632C43.9331 86.312 43.5651 86.152 43.1011 86.152C42.6371 86.152 42.2691 86.312 41.9971 86.632C41.7251 86.944 41.5891 87.376 41.5891 87.928C41.5891 88.48 41.7251 88.916 41.9971 89.236C42.2691 89.556 42.6371 89.716 43.1011 89.716ZM48.2673 91.096C47.7713 91.096 47.5233 90.84 47.5233 90.328V83.2C47.5233 82.696 47.7713 82.444 48.2673 82.444C48.7713 82.444 49.0233 82.696 49.0233 83.2V85.984C49.2233 85.664 49.4913 85.424 49.8273 85.264C50.1633 85.096 50.5353 85.012 50.9433 85.012C52.3273 85.012 53.0193 85.816 53.0193 87.424V90.328C53.0193 90.84 52.7713 91.096 52.2753 91.096C51.7713 91.096 51.5193 90.84 51.5193 90.328V87.496C51.5193 87.04 51.4313 86.708 51.2553 86.5C51.0873 86.292 50.8233 86.188 50.4633 86.188C50.0233 86.188 49.6713 86.328 49.4073 86.608C49.1513 86.88 49.0233 87.244 49.0233 87.7V90.328C49.0233 90.84 48.7713 91.096 48.2673 91.096ZM57.1108 91.12C55.5588 91.12 54.7828 90.352 54.7828 88.816V86.26H54.1588C53.7588 86.26 53.5588 86.072 53.5588 85.696C53.5588 85.32 53.7588 85.132 54.1588 85.132H54.7828V84.04C54.7828 83.536 55.0348 83.284 55.5388 83.284C56.0348 83.284 56.2828 83.536 56.2828 84.04V85.132H57.5548C57.9548 85.132 58.1548 85.32 58.1548 85.696C58.1548 86.072 57.9548 86.26 57.5548 86.26H56.2828V88.732C56.2828 89.116 56.3668 89.404 56.5348 89.596C56.7028 89.788 56.9748 89.884 57.3508 89.884C57.4868 89.884 57.6068 89.872 57.7108 89.848C57.8148 89.824 57.9068 89.808 57.9868 89.8C58.0828 89.792 58.1628 89.824 58.2268 89.896C58.2908 89.96 58.3228 90.096 58.3228 90.304C58.3228 90.464 58.2948 90.608 58.2388 90.736C58.1908 90.856 58.0988 90.94 57.9628 90.988C57.8588 91.02 57.7228 91.048 57.5548 91.072C57.3868 91.104 57.2388 91.12 57.1108 91.12Z" fill="#4F4F4F"/>
<path d="M107.553 91.108C106.769 91.108 106.085 90.932 105.501 90.58C104.925 90.22 104.477 89.716 104.157 89.068C103.845 88.42 103.689 87.652 103.689 86.764C103.689 85.876 103.845 85.108 104.157 84.46C104.469 83.812 104.913 83.312 105.489 82.96C106.073 82.608 106.761 82.432 107.553 82.432C108.353 82.432 109.041 82.608 109.617 82.96C110.201 83.312 110.649 83.812 110.961 84.46C111.281 85.1 111.441 85.864 111.441 86.752C111.441 87.64 111.281 88.412 110.961 89.068C110.641 89.716 110.189 90.22 109.605 90.58C109.029 90.932 108.345 91.108 107.553 91.108ZM107.553 90.232C108.457 90.232 109.157 89.928 109.653 89.32C110.149 88.712 110.397 87.86 110.397 86.764C110.397 85.668 110.149 84.82 109.653 84.22C109.157 83.612 108.457 83.308 107.553 83.308C106.665 83.308 105.973 83.612 105.477 84.22C104.981 84.82 104.733 85.668 104.733 86.764C104.733 87.852 104.981 88.704 105.477 89.32C105.973 89.928 106.665 90.232 107.553 90.232ZM115.901 91.108C115.445 91.108 115.041 91.008 114.689 90.808C114.337 90.6 114.077 90.316 113.909 89.956V90.58C113.909 90.916 113.749 91.084 113.429 91.084C113.109 91.084 112.949 90.916 112.949 90.58V82.948C112.949 82.62 113.109 82.456 113.429 82.456C113.757 82.456 113.921 82.62 113.921 82.948V86.176C114.089 85.832 114.349 85.56 114.701 85.36C115.053 85.16 115.453 85.06 115.901 85.06C116.421 85.06 116.873 85.184 117.257 85.432C117.649 85.672 117.949 86.02 118.157 86.476C118.373 86.924 118.481 87.46 118.481 88.084C118.481 88.7 118.373 89.236 118.157 89.692C117.949 90.14 117.649 90.488 117.257 90.736C116.873 90.984 116.421 91.108 115.901 91.108ZM115.697 90.328C116.241 90.328 116.677 90.136 117.005 89.752C117.333 89.36 117.497 88.804 117.497 88.084C117.497 87.356 117.333 86.8 117.005 86.416C116.677 86.032 116.241 85.84 115.697 85.84C115.153 85.84 114.717 86.032 114.389 86.416C114.061 86.8 113.897 87.356 113.897 88.084C113.897 88.804 114.061 89.36 114.389 89.752C114.717 90.136 115.153 90.328 115.697 90.328ZM120.341 83.764C119.917 83.764 119.705 83.564 119.705 83.164C119.705 82.772 119.917 82.576 120.341 82.576C120.773 82.576 120.989 82.772 120.989 83.164C120.989 83.564 120.773 83.764 120.341 83.764ZM118.709 93.292C118.509 93.3 118.373 93.244 118.301 93.124C118.221 93.004 118.205 92.876 118.253 92.74C118.301 92.612 118.405 92.544 118.565 92.536C119.005 92.512 119.329 92.392 119.537 92.176C119.753 91.968 119.861 91.636 119.861 91.18V85.576C119.861 85.248 120.025 85.084 120.353 85.084C120.673 85.084 120.833 85.248 120.833 85.576V91.108C120.833 91.844 120.649 92.384 120.281 92.728C119.921 93.072 119.397 93.26 118.709 93.292ZM125.169 91.108C124.249 91.108 123.521 90.84 122.985 90.304C122.449 89.76 122.181 89.024 122.181 88.096C122.181 87.496 122.301 86.968 122.541 86.512C122.781 86.048 123.109 85.692 123.525 85.444C123.949 85.188 124.437 85.06 124.989 85.06C125.781 85.06 126.401 85.316 126.849 85.828C127.297 86.332 127.521 87.028 127.521 87.916C127.521 88.164 127.381 88.288 127.101 88.288H123.129C123.161 88.952 123.353 89.46 123.705 89.812C124.057 90.156 124.545 90.328 125.169 90.328C125.433 90.328 125.701 90.296 125.973 90.232C126.245 90.16 126.509 90.036 126.765 89.86C126.949 89.74 127.101 89.716 127.221 89.788C127.349 89.86 127.413 89.972 127.413 90.124C127.421 90.268 127.341 90.396 127.173 90.508C126.909 90.7 126.593 90.848 126.225 90.952C125.865 91.056 125.513 91.108 125.169 91.108ZM125.013 85.78C124.461 85.78 124.025 85.952 123.705 86.296C123.385 86.64 123.197 87.092 123.141 87.652H126.681C126.657 87.06 126.501 86.6 126.213 86.272C125.933 85.944 125.533 85.78 125.013 85.78ZM131.279 91.108C130.695 91.108 130.191 90.984 129.767 90.736C129.343 90.48 129.015 90.124 128.783 89.668C128.559 89.204 128.447 88.664 128.447 88.048C128.447 87.12 128.699 86.392 129.203 85.864C129.707 85.328 130.399 85.06 131.279 85.06C131.567 85.06 131.867 85.108 132.179 85.204C132.491 85.292 132.775 85.44 133.031 85.648C133.167 85.744 133.223 85.864 133.199 86.008C133.183 86.152 133.115 86.26 132.995 86.332C132.883 86.404 132.751 86.388 132.599 86.284C132.383 86.124 132.167 86.012 131.951 85.948C131.743 85.884 131.539 85.852 131.339 85.852C130.731 85.852 130.263 86.044 129.935 86.428C129.607 86.804 129.443 87.348 129.443 88.06C129.443 88.756 129.607 89.308 129.935 89.716C130.263 90.116 130.731 90.316 131.339 90.316C131.539 90.316 131.743 90.284 131.951 90.22C132.167 90.156 132.383 90.044 132.599 89.884C132.751 89.78 132.883 89.768 132.995 89.848C133.107 89.92 133.167 90.028 133.175 90.172C133.191 90.316 133.135 90.432 133.007 90.52C132.751 90.728 132.471 90.88 132.167 90.976C131.863 91.064 131.567 91.108 131.279 91.108ZM136.582 91.108C135.894 91.108 135.378 90.928 135.034 90.568C134.69 90.2 134.518 89.672 134.518 88.984V85.924H133.714C133.434 85.924 133.294 85.796 133.294 85.54C133.294 85.292 133.434 85.168 133.714 85.168H134.518V83.788C134.518 83.46 134.682 83.296 135.01 83.296C135.33 83.296 135.49 83.46 135.49 83.788V85.168H137.002C137.282 85.168 137.422 85.292 137.422 85.54C137.422 85.796 137.282 85.924 137.002 85.924H135.49V88.888C135.49 89.344 135.586 89.692 135.778 89.932C135.97 90.164 136.282 90.28 136.714 90.28C136.866 90.28 136.994 90.264 137.098 90.232C137.202 90.2 137.294 90.184 137.374 90.184C137.446 90.176 137.506 90.2 137.554 90.256C137.602 90.312 137.626 90.408 137.626 90.544C137.626 90.64 137.606 90.728 137.566 90.808C137.534 90.888 137.474 90.944 137.386 90.976C137.29 91.008 137.162 91.036 137.002 91.06C136.85 91.092 136.71 91.108 136.582 91.108ZM138.868 83.764C138.444 83.764 138.232 83.564 138.232 83.164C138.232 82.772 138.444 82.576 138.868 82.576C139.292 82.576 139.504 82.772 139.504 83.164C139.504 83.564 139.292 83.764 138.868 83.764ZM138.868 91.06C138.548 91.06 138.388 90.884 138.388 90.532V85.624C138.388 85.28 138.548 85.108 138.868 85.108C139.196 85.108 139.36 85.28 139.36 85.624V90.532C139.36 90.884 139.196 91.06 138.868 91.06ZM143.229 91.084C142.949 91.084 142.741 90.928 142.605 90.616L140.529 85.768C140.449 85.584 140.445 85.424 140.517 85.288C140.589 85.152 140.733 85.084 140.949 85.084C141.173 85.084 141.337 85.212 141.441 85.468L143.253 89.896L145.089 85.468C145.145 85.324 145.209 85.224 145.281 85.168C145.353 85.112 145.457 85.084 145.593 85.084C145.777 85.084 145.901 85.152 145.965 85.288C146.029 85.424 146.025 85.58 145.953 85.756L143.853 90.616C143.725 90.928 143.517 91.084 143.229 91.084ZM149.659 91.108C148.739 91.108 148.011 90.84 147.475 90.304C146.939 89.76 146.671 89.024 146.671 88.096C146.671 87.496 146.791 86.968 147.031 86.512C147.271 86.048 147.599 85.692 148.015 85.444C148.439 85.188 148.927 85.06 149.479 85.06C150.271 85.06 150.891 85.316 151.339 85.828C151.787 86.332 152.011 87.028 152.011 87.916C152.011 88.164 151.871 88.288 151.591 88.288H147.619C147.651 88.952 147.843 89.46 148.195 89.812C148.547 90.156 149.035 90.328 149.659 90.328C149.923 90.328 150.191 90.296 150.463 90.232C150.735 90.16 150.999 90.036 151.255 89.86C151.439 89.74 151.591 89.716 151.711 89.788C151.839 89.86 151.903 89.972 151.903 90.124C151.911 90.268 151.831 90.396 151.663 90.508C151.399 90.7 151.083 90.848 150.715 90.952C150.355 91.056 150.003 91.108 149.659 91.108ZM149.503 85.78C148.951 85.78 148.515 85.952 148.195 86.296C147.875 86.64 147.687 87.092 147.631 87.652H151.171C151.147 87.06 150.991 86.6 150.703 86.272C150.423 85.944 150.023 85.78 149.503 85.78ZM155.265 91.108C154.905 91.108 154.541 91.064 154.173 90.976C153.813 90.88 153.477 90.728 153.165 90.52C153.021 90.432 152.949 90.32 152.949 90.184C152.957 90.04 153.013 89.928 153.117 89.848C153.221 89.768 153.353 89.768 153.513 89.848C153.825 90.04 154.125 90.176 154.413 90.256C154.709 90.328 155.001 90.364 155.289 90.364C155.745 90.364 156.089 90.28 156.321 90.112C156.553 89.944 156.669 89.716 156.669 89.428C156.669 89.204 156.593 89.028 156.441 88.9C156.289 88.764 156.049 88.66 155.721 88.588L154.629 88.348C153.637 88.132 153.141 87.62 153.141 86.812C153.141 86.284 153.349 85.86 153.765 85.54C154.189 85.22 154.741 85.06 155.421 85.06C155.765 85.06 156.097 85.108 156.417 85.204C156.737 85.292 157.025 85.436 157.281 85.636C157.417 85.732 157.477 85.848 157.461 85.984C157.445 86.12 157.381 86.228 157.269 86.308C157.165 86.38 157.037 86.368 156.885 86.272C156.645 86.112 156.401 85.996 156.153 85.924C155.905 85.844 155.661 85.804 155.421 85.804C154.973 85.804 154.633 85.892 154.401 86.068C154.169 86.244 154.053 86.476 154.053 86.764C154.053 87.212 154.349 87.5 154.941 87.628L156.033 87.856C156.545 87.968 156.933 88.148 157.197 88.396C157.461 88.636 157.593 88.964 157.593 89.38C157.593 89.916 157.381 90.34 156.957 90.652C156.533 90.956 155.969 91.108 155.265 91.108Z" fill="#828282"/>
<path d="M187.398 91C187.038 91 186.858 90.82 186.858 90.46V83.08C186.858 82.72 187.038 82.54 187.398 82.54H189.714C191.082 82.54 192.138 82.904 192.882 83.632C193.626 84.352 193.998 85.396 193.998 86.764C193.998 88.132 193.626 89.18 192.882 89.908C192.138 90.636 191.082 91 189.714 91H187.398ZM187.842 90.16H189.642C191.85 90.16 192.954 89.028 192.954 86.764C192.954 84.508 191.85 83.38 189.642 83.38H187.842V90.16ZM198.14 91.108C197.22 91.108 196.492 90.84 195.956 90.304C195.42 89.76 195.152 89.024 195.152 88.096C195.152 87.496 195.272 86.968 195.512 86.512C195.752 86.048 196.08 85.692 196.496 85.444C196.92 85.188 197.408 85.06 197.96 85.06C198.752 85.06 199.372 85.316 199.82 85.828C200.268 86.332 200.492 87.028 200.492 87.916C200.492 88.164 200.352 88.288 200.072 88.288H196.1C196.132 88.952 196.324 89.46 196.676 89.812C197.028 90.156 197.516 90.328 198.14 90.328C198.404 90.328 198.672 90.296 198.944 90.232C199.216 90.16 199.48 90.036 199.736 89.86C199.92 89.74 200.072 89.716 200.192 89.788C200.32 89.86 200.384 89.972 200.384 90.124C200.392 90.268 200.312 90.396 200.144 90.508C199.88 90.7 199.564 90.848 199.196 90.952C198.836 91.056 198.484 91.108 198.14 91.108ZM197.984 85.78C197.432 85.78 196.996 85.952 196.676 86.296C196.356 86.64 196.168 87.092 196.112 87.652H199.652C199.628 87.06 199.472 86.6 199.184 86.272C198.904 85.944 198.504 85.78 197.984 85.78ZM202.283 91.084C201.963 91.084 201.803 90.916 201.803 90.58V85.576C201.803 85.248 201.959 85.084 202.271 85.084C202.591 85.084 202.751 85.248 202.751 85.576V86.152C202.927 85.8 203.171 85.532 203.483 85.348C203.795 85.156 204.159 85.06 204.575 85.06C205.487 85.06 206.071 85.456 206.327 86.248C206.503 85.88 206.763 85.592 207.107 85.384C207.451 85.168 207.847 85.06 208.295 85.06C209.591 85.06 210.239 85.828 210.239 87.364V90.58C210.239 90.916 210.075 91.084 209.747 91.084C209.427 91.084 209.267 90.916 209.267 90.58V87.412C209.267 86.876 209.171 86.484 208.979 86.236C208.795 85.98 208.487 85.852 208.055 85.852C207.583 85.852 207.207 86.02 206.927 86.356C206.647 86.692 206.507 87.14 206.507 87.7V90.58C206.507 90.916 206.343 91.084 206.015 91.084C205.695 91.084 205.535 90.916 205.535 90.58V87.412C205.535 86.876 205.439 86.484 205.247 86.236C205.063 85.98 204.755 85.852 204.323 85.852C203.843 85.852 203.463 86.02 203.183 86.356C202.911 86.692 202.775 87.14 202.775 87.7V90.58C202.775 90.916 202.611 91.084 202.283 91.084ZM214.36 91.108C213.792 91.108 213.3 90.984 212.884 90.736C212.468 90.488 212.144 90.14 211.912 89.692C211.688 89.236 211.576 88.7 211.576 88.084C211.576 87.468 211.688 86.936 211.912 86.488C212.144 86.032 212.468 85.68 212.884 85.432C213.3 85.184 213.792 85.06 214.36 85.06C214.92 85.06 215.408 85.184 215.824 85.432C216.248 85.68 216.572 86.032 216.796 86.488C217.028 86.936 217.144 87.468 217.144 88.084C217.144 88.7 217.028 89.236 216.796 89.692C216.572 90.14 216.248 90.488 215.824 90.736C215.408 90.984 214.92 91.108 214.36 91.108ZM214.36 90.328C214.904 90.328 215.34 90.136 215.668 89.752C215.996 89.36 216.16 88.804 216.16 88.084C216.16 87.356 215.996 86.8 215.668 86.416C215.34 86.032 214.904 85.84 214.36 85.84C213.808 85.84 213.368 86.032 213.04 86.416C212.72 86.8 212.56 87.356 212.56 88.084C212.56 88.804 212.72 89.36 213.04 89.752C213.368 90.136 213.808 90.328 214.36 90.328ZM221.064 93.268C220.64 93.268 220.224 93.216 219.816 93.112C219.416 93.016 219.052 92.86 218.724 92.644C218.604 92.572 218.532 92.484 218.508 92.38C218.492 92.284 218.508 92.188 218.556 92.092C218.604 92.004 218.672 91.94 218.76 91.9C218.856 91.86 218.956 91.868 219.06 91.924C219.412 92.14 219.748 92.288 220.068 92.368C220.388 92.448 220.704 92.488 221.016 92.488C222.168 92.488 222.744 91.896 222.744 90.712V89.68C222.576 90.048 222.312 90.34 221.952 90.556C221.6 90.764 221.196 90.868 220.74 90.868C220.204 90.868 219.74 90.744 219.348 90.496C218.956 90.248 218.652 89.908 218.436 89.476C218.228 89.036 218.124 88.528 218.124 87.952C218.124 87.376 218.228 86.872 218.436 86.44C218.652 86 218.956 85.66 219.348 85.42C219.74 85.18 220.204 85.06 220.74 85.06C221.196 85.06 221.6 85.16 221.952 85.36C222.304 85.56 222.564 85.84 222.732 86.2V85.576C222.732 85.248 222.892 85.084 223.212 85.084C223.532 85.084 223.692 85.248 223.692 85.576V90.58C223.692 91.476 223.468 92.148 223.02 92.596C222.58 93.044 221.928 93.268 221.064 93.268ZM220.92 90.076C221.48 90.076 221.924 89.884 222.252 89.5C222.58 89.116 222.744 88.6 222.744 87.952C222.744 87.304 222.58 86.792 222.252 86.416C221.924 86.032 221.48 85.84 220.92 85.84C220.368 85.84 219.928 86.032 219.6 86.416C219.272 86.792 219.108 87.304 219.108 87.952C219.108 88.6 219.272 89.116 219.6 89.5C219.928 89.884 220.368 90.076 220.92 90.076ZM225.887 91.084C225.559 91.084 225.395 90.916 225.395 90.58V85.576C225.395 85.248 225.551 85.084 225.863 85.084C226.183 85.084 226.343 85.248 226.343 85.576V86.212C226.503 85.844 226.751 85.564 227.087 85.372C227.423 85.172 227.823 85.064 228.287 85.048C228.543 85.024 228.679 85.152 228.695 85.432C228.719 85.712 228.575 85.868 228.263 85.9L228.071 85.924C227.519 85.972 227.099 86.148 226.811 86.452C226.523 86.748 226.379 87.156 226.379 87.676V90.58C226.379 90.916 226.215 91.084 225.887 91.084ZM231.353 91.108C230.953 91.108 230.593 91.032 230.273 90.88C229.961 90.72 229.713 90.504 229.529 90.232C229.345 89.96 229.253 89.656 229.253 89.32C229.253 88.896 229.361 88.56 229.577 88.312C229.801 88.064 230.165 87.888 230.669 87.784C231.181 87.672 231.877 87.616 232.757 87.616H233.141V87.244C233.141 86.748 233.037 86.392 232.829 86.176C232.629 85.952 232.305 85.84 231.857 85.84C231.577 85.84 231.293 85.876 231.005 85.948C230.725 86.02 230.433 86.136 230.129 86.296C229.993 86.368 229.877 86.384 229.781 86.344C229.693 86.296 229.629 86.224 229.589 86.128C229.557 86.024 229.557 85.92 229.589 85.816C229.629 85.704 229.709 85.62 229.829 85.564C230.173 85.388 230.517 85.26 230.861 85.18C231.213 85.1 231.545 85.06 231.857 85.06C232.609 85.06 233.165 85.244 233.525 85.612C233.893 85.98 234.077 86.552 234.077 87.328V90.58C234.077 90.916 233.929 91.084 233.633 91.084C233.321 91.084 233.165 90.916 233.165 90.58V89.992C233.013 90.336 232.777 90.608 232.457 90.808C232.145 91.008 231.777 91.108 231.353 91.108ZM231.509 90.376C231.989 90.376 232.381 90.212 232.685 89.884C232.989 89.548 233.141 89.124 233.141 88.612V88.252H232.769C232.121 88.252 231.609 88.284 231.233 88.348C230.865 88.404 230.605 88.508 230.453 88.66C230.309 88.804 230.237 89.004 230.237 89.26C230.237 89.588 230.349 89.856 230.573 90.064C230.805 90.272 231.117 90.376 231.509 90.376ZM236.241 93.244C235.921 93.244 235.761 93.08 235.761 92.752V85.576C235.761 85.248 235.917 85.084 236.229 85.084C236.557 85.084 236.721 85.248 236.721 85.576V86.2C236.889 85.848 237.149 85.572 237.501 85.372C237.853 85.164 238.257 85.06 238.713 85.06C239.233 85.06 239.685 85.184 240.069 85.432C240.461 85.672 240.761 86.02 240.969 86.476C241.185 86.924 241.293 87.46 241.293 88.084C241.293 88.7 241.185 89.236 240.969 89.692C240.761 90.14 240.461 90.488 240.069 90.736C239.685 90.984 239.233 91.108 238.713 91.108C238.265 91.108 237.865 91.008 237.513 90.808C237.161 90.608 236.901 90.332 236.733 89.98V92.752C236.733 93.08 236.569 93.244 236.241 93.244ZM238.509 90.328C239.053 90.328 239.489 90.136 239.817 89.752C240.145 89.36 240.309 88.804 240.309 88.084C240.309 87.356 240.145 86.8 239.817 86.416C239.489 86.032 239.053 85.84 238.509 85.84C237.965 85.84 237.529 86.032 237.201 86.416C236.873 86.8 236.709 87.356 236.709 88.084C236.709 88.804 236.873 89.36 237.201 89.752C237.529 90.136 237.965 90.328 238.509 90.328ZM243.117 91.084C242.797 91.084 242.637 90.916 242.637 90.58V82.948C242.637 82.62 242.797 82.456 243.117 82.456C243.445 82.456 243.609 82.62 243.609 82.948V86.128C243.801 85.776 244.069 85.512 244.413 85.336C244.765 85.152 245.157 85.06 245.589 85.06C246.973 85.06 247.665 85.828 247.665 87.364V90.58C247.665 90.916 247.505 91.084 247.185 91.084C246.857 91.084 246.693 90.916 246.693 90.58V87.424C246.693 86.88 246.585 86.484 246.369 86.236C246.161 85.98 245.825 85.852 245.361 85.852C244.825 85.852 244.397 86.02 244.077 86.356C243.765 86.684 243.609 87.124 243.609 87.676V90.58C243.609 90.916 243.445 91.084 243.117 91.084ZM249.817 83.764C249.393 83.764 249.181 83.564 249.181 83.164C249.181 82.772 249.393 82.576 249.817 82.576C250.241 82.576 250.453 82.772 250.453 83.164C250.453 83.564 250.241 83.764 249.817 83.764ZM249.817 91.06C249.497 91.06 249.337 90.884 249.337 90.532V85.624C249.337 85.28 249.497 85.108 249.817 85.108C250.145 85.108 250.309 85.28 250.309 85.624V90.532C250.309 90.884 250.145 91.06 249.817 91.06ZM254.478 91.108C253.894 91.108 253.39 90.984 252.966 90.736C252.542 90.48 252.214 90.124 251.982 89.668C251.758 89.204 251.646 88.664 251.646 88.048C251.646 87.12 251.898 86.392 252.402 85.864C252.906 85.328 253.598 85.06 254.478 85.06C254.766 85.06 255.066 85.108 255.378 85.204C255.69 85.292 255.974 85.44 256.23 85.648C256.366 85.744 256.422 85.864 256.398 86.008C256.382 86.152 256.314 86.26 256.194 86.332C256.082 86.404 255.95 86.388 255.798 86.284C255.582 86.124 255.366 86.012 255.15 85.948C254.942 85.884 254.738 85.852 254.538 85.852C253.93 85.852 253.462 86.044 253.134 86.428C252.806 86.804 252.642 87.348 252.642 88.06C252.642 88.756 252.806 89.308 253.134 89.716C253.462 90.116 253.93 90.316 254.538 90.316C254.738 90.316 254.942 90.284 255.15 90.22C255.366 90.156 255.582 90.044 255.798 89.884C255.95 89.78 256.082 89.768 256.194 89.848C256.306 89.92 256.366 90.028 256.374 90.172C256.39 90.316 256.334 90.432 256.206 90.52C255.95 90.728 255.67 90.88 255.366 90.976C255.062 91.064 254.766 91.108 254.478 91.108ZM259.409 91.108C259.049 91.108 258.685 91.064 258.317 90.976C257.957 90.88 257.621 90.728 257.309 90.52C257.165 90.432 257.093 90.32 257.093 90.184C257.101 90.04 257.157 89.928 257.261 89.848C257.365 89.768 257.497 89.768 257.657 89.848C257.969 90.04 258.269 90.176 258.557 90.256C258.853 90.328 259.145 90.364 259.433 90.364C259.889 90.364 260.233 90.28 260.465 90.112C260.697 89.944 260.813 89.716 260.813 89.428C260.813 89.204 260.737 89.028 260.585 88.9C260.433 88.764 260.193 88.66 259.865 88.588L258.773 88.348C257.781 88.132 257.285 87.62 257.285 86.812C257.285 86.284 257.493 85.86 257.909 85.54C258.333 85.22 258.885 85.06 259.565 85.06C259.909 85.06 260.241 85.108 260.561 85.204C260.881 85.292 261.169 85.436 261.425 85.636C261.561 85.732 261.621 85.848 261.605 85.984C261.589 86.12 261.525 86.228 261.413 86.308C261.309 86.38 261.181 86.368 261.029 86.272C260.789 86.112 260.545 85.996 260.297 85.924C260.049 85.844 259.805 85.804 259.565 85.804C259.117 85.804 258.777 85.892 258.545 86.068C258.313 86.244 258.197 86.476 258.197 86.764C258.197 87.212 258.493 87.5 259.085 87.628L260.177 87.856C260.689 87.968 261.077 88.148 261.341 88.396C261.605 88.636 261.737 88.964 261.737 89.38C261.737 89.916 261.525 90.34 261.101 90.652C260.677 90.956 260.113 91.108 259.409 91.108Z" fill="#828282"/>
<path d="M282.873 91.084C282.681 91.084 282.549 91.02 282.477 90.892C282.405 90.764 282.413 90.604 282.501 90.412L285.801 82.9C285.929 82.604 286.125 82.456 286.389 82.456C286.509 82.456 286.617 82.492 286.713 82.564C286.817 82.628 286.901 82.74 286.965 82.9L290.277 90.412C290.365 90.604 290.377 90.764 290.313 90.892C290.249 91.02 290.121 91.084 289.929 91.084C289.785 91.084 289.669 91.048 289.581 90.976C289.493 90.896 289.421 90.784 289.365 90.64L288.585 88.84H284.181L283.413 90.64C283.285 90.936 283.105 91.084 282.873 91.084ZM286.377 83.692L284.541 88.012H288.237L286.401 83.692H286.377ZM293.607 91.108C292.207 91.108 291.507 90.336 291.507 88.792V85.576C291.507 85.248 291.667 85.084 291.987 85.084C292.315 85.084 292.479 85.248 292.479 85.576V88.78C292.479 89.3 292.583 89.684 292.791 89.932C293.007 90.18 293.343 90.304 293.799 90.304C294.295 90.304 294.699 90.14 295.011 89.812C295.323 89.476 295.479 89.032 295.479 88.48V85.576C295.479 85.248 295.643 85.084 295.971 85.084C296.291 85.084 296.451 85.248 296.451 85.576V90.58C296.451 90.916 296.295 91.084 295.983 91.084C295.663 91.084 295.503 90.916 295.503 90.58V90.016C295.319 90.368 295.059 90.64 294.723 90.832C294.395 91.016 294.023 91.108 293.607 91.108ZM300.37 91.108C299.85 91.108 299.394 90.984 299.002 90.736C298.618 90.488 298.318 90.14 298.102 89.692C297.894 89.236 297.79 88.7 297.79 88.084C297.79 87.46 297.894 86.924 298.102 86.476C298.318 86.02 298.618 85.672 299.002 85.432C299.394 85.184 299.85 85.06 300.37 85.06C300.826 85.06 301.226 85.16 301.57 85.36C301.922 85.56 302.182 85.836 302.35 86.188V82.948C302.35 82.62 302.514 82.456 302.842 82.456C303.162 82.456 303.322 82.62 303.322 82.948V90.58C303.322 90.916 303.162 91.084 302.842 91.084C302.522 91.084 302.362 90.916 302.362 90.58V89.956C302.186 90.316 301.922 90.6 301.57 90.808C301.226 91.008 300.826 91.108 300.37 91.108ZM300.574 90.328C301.118 90.328 301.554 90.136 301.882 89.752C302.21 89.36 302.374 88.804 302.374 88.084C302.374 87.356 302.21 86.8 301.882 86.416C301.554 86.032 301.118 85.84 300.574 85.84C300.022 85.84 299.582 86.032 299.254 86.416C298.934 86.8 298.774 87.356 298.774 88.084C298.774 88.804 298.934 89.36 299.254 89.752C299.582 90.136 300.022 90.328 300.574 90.328ZM305.506 83.764C305.082 83.764 304.87 83.564 304.87 83.164C304.87 82.772 305.082 82.576 305.506 82.576C305.93 82.576 306.142 82.772 306.142 83.164C306.142 83.564 305.93 83.764 305.506 83.764ZM305.506 91.06C305.186 91.06 305.026 90.884 305.026 90.532V85.624C305.026 85.28 305.186 85.108 305.506 85.108C305.834 85.108 305.998 85.28 305.998 85.624V90.532C305.998 90.884 305.834 91.06 305.506 91.06ZM310.323 91.108C309.403 91.108 308.675 90.84 308.139 90.304C307.603 89.76 307.335 89.024 307.335 88.096C307.335 87.496 307.455 86.968 307.695 86.512C307.935 86.048 308.263 85.692 308.679 85.444C309.103 85.188 309.591 85.06 310.143 85.06C310.935 85.06 311.555 85.316 312.003 85.828C312.451 86.332 312.675 87.028 312.675 87.916C312.675 88.164 312.535 88.288 312.255 88.288H308.283C308.315 88.952 308.507 89.46 308.859 89.812C309.211 90.156 309.699 90.328 310.323 90.328C310.587 90.328 310.855 90.296 311.127 90.232C311.399 90.16 311.663 90.036 311.919 89.86C312.103 89.74 312.255 89.716 312.375 89.788C312.503 89.86 312.567 89.972 312.567 90.124C312.575 90.268 312.495 90.396 312.327 90.508C312.063 90.7 311.747 90.848 311.379 90.952C311.019 91.056 310.667 91.108 310.323 91.108ZM310.167 85.78C309.615 85.78 309.179 85.952 308.859 86.296C308.539 86.64 308.351 87.092 308.295 87.652H311.835C311.811 87.06 311.655 86.6 311.367 86.272C311.087 85.944 310.687 85.78 310.167 85.78ZM314.441 91.084C314.121 91.084 313.961 90.916 313.961 90.58V85.576C313.961 85.248 314.117 85.084 314.429 85.084C314.749 85.084 314.909 85.248 314.909 85.576V86.164C315.101 85.796 315.373 85.52 315.725 85.336C316.077 85.152 316.473 85.06 316.913 85.06C318.297 85.06 318.989 85.828 318.989 87.364V90.58C318.989 90.916 318.829 91.084 318.509 91.084C318.181 91.084 318.017 90.916 318.017 90.58V87.424C318.017 86.88 317.909 86.484 317.693 86.236C317.485 85.98 317.149 85.852 316.685 85.852C316.149 85.852 315.721 86.02 315.401 86.356C315.089 86.684 314.933 87.124 314.933 87.676V90.58C314.933 90.916 314.769 91.084 314.441 91.084ZM323.134 91.108C322.55 91.108 322.046 90.984 321.622 90.736C321.198 90.48 320.87 90.124 320.638 89.668C320.414 89.204 320.302 88.664 320.302 88.048C320.302 87.12 320.554 86.392 321.058 85.864C321.562 85.328 322.254 85.06 323.134 85.06C323.422 85.06 323.722 85.108 324.034 85.204C324.346 85.292 324.63 85.44 324.886 85.648C325.022 85.744 325.078 85.864 325.054 86.008C325.038 86.152 324.97 86.26 324.85 86.332C324.738 86.404 324.606 86.388 324.454 86.284C324.238 86.124 324.022 86.012 323.806 85.948C323.598 85.884 323.394 85.852 323.194 85.852C322.586 85.852 322.118 86.044 321.79 86.428C321.462 86.804 321.298 87.348 321.298 88.06C321.298 88.756 321.462 89.308 321.79 89.716C322.118 90.116 322.586 90.316 323.194 90.316C323.394 90.316 323.598 90.284 323.806 90.22C324.022 90.156 324.238 90.044 324.454 89.884C324.606 89.78 324.738 89.768 324.85 89.848C324.962 89.92 325.022 90.028 325.03 90.172C325.046 90.316 324.99 90.432 324.862 90.52C324.606 90.728 324.326 90.88 324.022 90.976C323.718 91.064 323.422 91.108 323.134 91.108ZM328.607 91.108C327.687 91.108 326.959 90.84 326.423 90.304C325.887 89.76 325.619 89.024 325.619 88.096C325.619 87.496 325.739 86.968 325.979 86.512C326.219 86.048 326.547 85.692 326.963 85.444C327.387 85.188 327.875 85.06 328.427 85.06C329.219 85.06 329.839 85.316 330.287 85.828C330.735 86.332 330.959 87.028 330.959 87.916C330.959 88.164 330.819 88.288 330.539 88.288H326.567C326.599 88.952 326.791 89.46 327.143 89.812C327.495 90.156 327.983 90.328 328.607 90.328C328.871 90.328 329.139 90.296 329.411 90.232C329.683 90.16 329.947 90.036 330.203 89.86C330.387 89.74 330.539 89.716 330.659 89.788C330.787 89.86 330.851 89.972 330.851 90.124C330.859 90.268 330.779 90.396 330.611 90.508C330.347 90.7 330.031 90.848 329.663 90.952C329.303 91.056 328.951 91.108 328.607 91.108ZM328.451 85.78C327.899 85.78 327.463 85.952 327.143 86.296C326.823 86.64 326.635 87.092 326.579 87.652H330.119C330.095 87.06 329.939 86.6 329.651 86.272C329.371 85.944 328.971 85.78 328.451 85.78ZM334.214 91.108C333.854 91.108 333.49 91.064 333.122 90.976C332.762 90.88 332.426 90.728 332.114 90.52C331.97 90.432 331.898 90.32 331.898 90.184C331.906 90.04 331.962 89.928 332.066 89.848C332.17 89.768 332.302 89.768 332.462 89.848C332.774 90.04 333.074 90.176 333.362 90.256C333.658 90.328 333.95 90.364 334.238 90.364C334.694 90.364 335.038 90.28 335.27 90.112C335.502 89.944 335.618 89.716 335.618 89.428C335.618 89.204 335.542 89.028 335.39 88.9C335.238 88.764 334.998 88.66 334.67 88.588L333.578 88.348C332.586 88.132 332.09 87.62 332.09 86.812C332.09 86.284 332.298 85.86 332.714 85.54C333.138 85.22 333.69 85.06 334.37 85.06C334.714 85.06 335.046 85.108 335.366 85.204C335.686 85.292 335.974 85.436 336.23 85.636C336.366 85.732 336.426 85.848 336.41 85.984C336.394 86.12 336.33 86.228 336.218 86.308C336.114 86.38 335.986 86.368 335.834 86.272C335.594 86.112 335.35 85.996 335.102 85.924C334.854 85.844 334.61 85.804 334.37 85.804C333.922 85.804 333.582 85.892 333.35 86.068C333.118 86.244 333.002 86.476 333.002 86.764C333.002 87.212 333.298 87.5 333.89 87.628L334.982 87.856C335.494 87.968 335.882 88.148 336.146 88.396C336.41 88.636 336.542 88.964 336.542 89.38C336.542 89.916 336.33 90.34 335.906 90.652C335.482 90.956 334.918 91.108 334.214 91.108Z" fill="#828282"/>
<path d="M32 42.4999C40.3468 38.5079 66.1723 -5.95148 127.5 27.5001C149.5 39.5001 163.5 47.0001 192.5 47C221.5 46.9999 244 25.5004 269 19.5003C294 13.5001 309.5 27.5001 309.5 27.5001" stroke="#B8B8B8" stroke-linecap="round" stroke-dasharray="2 2"/>
<g filter="url(#filter0_d_0_1)">
<path d="M6 39.0024C6 39.0024 29.8586 37.3489 35.1595 31.9657C40.4603 26.5825 42.0885 2.36279 42.0885 2.36279C42.0885 2.36279 43.7075 26.5919 49.0084 31.9751C54.3092 37.3583 78.1586 39.0024 78.1586 39.0024C78.1586 39.0024 54.3 40.6559 48.9991 46.0391C43.6982 51.4223 42.07 75.642 42.07 75.642C42.07 75.642 40.4511 51.4129 35.1502 46.0297C29.8586 40.6559 6 39.0024 6 39.0024Z" fill="url(#paint0_linear_0_1)"/>
</g>
<path d="M126.585 24.9771L126.586 24.9766C127.688 23.8538 128.549 21.818 129.234 19.5001C129.927 17.1569 130.464 14.4331 130.873 11.8514C131.132 10.2169 131.341 8.63461 131.504 7.23527C131.667 8.63458 131.875 10.2168 132.134 11.8513C132.542 14.433 133.079 17.1569 133.772 19.5002C134.458 21.8182 135.32 23.8543 136.426 24.9771C137.53 26.1008 139.531 26.9786 141.809 27.6765C144.111 28.3821 146.787 28.9297 149.322 29.3465C150.958 29.6154 152.54 29.8305 153.934 29.9987C152.54 30.1662 150.957 30.3808 149.321 30.6492C146.785 31.0653 144.108 31.6126 141.804 32.3188C139.525 33.0174 137.521 33.8967 136.414 35.0234C135.312 36.1462 134.451 38.182 133.766 40.4999C133.074 42.8431 132.536 45.5669 132.127 48.1486C131.868 49.7831 131.659 51.3654 131.496 52.7647C131.333 51.3654 131.125 49.7832 130.866 48.1487C130.458 45.567 129.921 42.8431 129.228 40.4998C128.542 38.1822 127.68 36.1463 126.575 35.0234C125.471 33.8995 123.469 33.0215 121.192 32.3235C118.889 31.6179 116.213 31.0703 113.678 30.6535C112.038 30.384 110.452 30.1684 109.056 30C110.452 29.8317 112.039 29.6161 113.679 29.3465C116.215 28.9297 118.892 28.3821 121.196 27.6765C123.475 26.9785 125.479 26.1006 126.585 24.9771Z" fill="#FAF8FB" stroke="#E0E0E0"/>
<path d="M230.367 32.3939L230.367 32.3942C231.716 33.7642 234.178 34.8457 237.007 35.7105C239.861 36.5829 243.181 37.2607 246.33 37.7767C248.772 38.1769 251.118 38.4811 253.076 38.7035C251.119 38.9252 248.774 39.2287 246.334 39.6283C243.185 40.1438 239.866 40.8213 237.011 41.6941C234.181 42.5594 231.718 43.6421 230.367 45.0144C229.019 46.3834 227.955 48.881 227.104 51.753C226.245 54.6504 225.578 58.0206 225.07 61.2179C224.68 63.6671 224.384 66.0217 224.165 67.995C223.948 66.0217 223.652 63.6672 223.264 61.2181C222.757 58.0208 222.09 54.6505 221.233 51.7532C220.382 48.8811 219.319 46.3834 217.971 45.0144C216.62 43.6421 214.157 42.5589 211.327 41.6927C208.472 40.8189 205.153 40.1403 202.004 39.6236C199.563 39.2229 197.217 38.9185 195.259 38.6959C197.217 38.4741 199.563 38.1706 202.004 37.7709C205.153 37.2554 208.472 36.5779 211.327 35.705C214.157 34.8397 216.619 33.7571 217.971 32.3848C219.319 31.0158 220.383 28.5188 221.234 25.6476C222.093 22.7512 222.76 19.3821 223.268 16.186C223.657 13.7378 223.954 11.3841 224.172 9.41155C224.39 11.3843 224.686 13.7383 225.074 16.187C225.581 19.3837 226.247 22.7536 227.105 25.6514C227.955 28.524 229.019 31.0226 230.367 32.3939Z" fill="#FAF8FB" stroke="#E0E0E0"/>
<path d="M44.0354 41.7764C44.5154 41.7764 44.7554 41.9804 44.7554 42.3884C44.7554 42.8124 44.5154 43.0244 44.0354 43.0244H39.9794C39.4914 43.0244 39.2474 42.8124 39.2474 42.3884C39.2474 41.9804 39.4914 41.7764 39.9794 41.7764H41.2274V36.3044L40.0754 37.0124C39.9634 37.0764 39.8634 37.1084 39.7754 37.1084C39.6074 37.1084 39.4634 37.0364 39.3434 36.8924C39.2314 36.7484 39.1754 36.5884 39.1754 36.4124C39.1754 36.1804 39.2794 36.0004 39.4874 35.8724L41.3474 34.7204C41.5874 34.5764 41.8154 34.5044 42.0314 34.5044C42.2554 34.5044 42.4354 34.5724 42.5714 34.7084C42.7074 34.8444 42.7754 35.0324 42.7754 35.2724V41.7764H44.0354Z" fill="white"/>
<path d="M133.793 32.813C134.273 32.813 134.513 33.017 134.513 33.425C134.513 33.849 134.273 34.061 133.793 34.061H129.233C129.025 34.061 128.861 34.001 128.741 33.881C128.621 33.753 128.561 33.597 128.561 33.413C128.561 33.173 128.653 32.957 128.837 32.765L131.573 29.825C131.909 29.457 132.153 29.121 132.305 28.817C132.465 28.505 132.545 28.197 132.545 27.893C132.545 27.517 132.437 27.229 132.221 27.029C132.005 26.829 131.697 26.729 131.297 26.729C130.969 26.729 130.649 26.793 130.337 26.921C130.033 27.041 129.725 27.209 129.413 27.425C129.333 27.481 129.253 27.529 129.173 27.569C129.093 27.601 129.013 27.617 128.933 27.617C128.797 27.617 128.677 27.553 128.573 27.425C128.477 27.297 128.429 27.145 128.429 26.969C128.429 26.849 128.449 26.745 128.489 26.657C128.537 26.569 128.609 26.485 128.705 26.405C129.057 26.125 129.469 25.905 129.941 25.745C130.413 25.577 130.885 25.493 131.357 25.493C132.181 25.493 132.837 25.701 133.325 26.117C133.821 26.533 134.069 27.093 134.069 27.797C134.069 28.285 133.965 28.745 133.757 29.177C133.549 29.601 133.197 30.077 132.701 30.605L130.625 32.813H133.793Z" fill="#4F4F4F"/>
<path d="M225.626 38.6057C226.13 38.7337 226.514 38.9777 226.778 39.3377C227.05 39.6897 227.186 40.1297 227.186 40.6577C227.186 41.3857 226.918 41.9657 226.382 42.3977C225.846 42.8297 225.122 43.0457 224.21 43.0457C223.69 43.0457 223.19 42.9657 222.71 42.8057C222.23 42.6457 221.822 42.4217 221.486 42.1337C221.302 41.9737 221.21 41.7857 221.21 41.5697C221.21 41.3937 221.258 41.2457 221.354 41.1257C221.458 40.9977 221.578 40.9337 221.714 40.9337C221.794 40.9337 221.866 40.9497 221.93 40.9817C221.994 41.0057 222.082 41.0497 222.194 41.1137C222.53 41.3377 222.85 41.5097 223.154 41.6297C223.458 41.7497 223.79 41.8097 224.15 41.8097C224.678 41.8097 225.07 41.7057 225.326 41.4977C225.582 41.2817 225.71 40.9577 225.71 40.5257C225.71 40.1017 225.574 39.7897 225.302 39.5897C225.038 39.3817 224.626 39.2777 224.066 39.2777H223.382C223.198 39.2777 223.054 39.2177 222.95 39.0977C222.854 38.9697 222.806 38.8257 222.806 38.6657C222.806 38.4977 222.854 38.3537 222.95 38.2337C223.054 38.1137 223.198 38.0537 223.382 38.0537H223.862C224.958 38.0537 225.506 37.6417 225.506 36.8177C225.506 36.4337 225.39 36.1377 225.158 35.9297C224.926 35.7217 224.606 35.6177 224.198 35.6177C223.614 35.6177 222.99 35.8497 222.326 36.3137C222.214 36.3777 222.126 36.4257 222.062 36.4577C221.998 36.4817 221.926 36.4937 221.846 36.4937C221.71 36.4937 221.59 36.4337 221.486 36.3137C221.39 36.1857 221.342 36.0337 221.342 35.8577C221.342 35.7377 221.362 35.6377 221.402 35.5577C221.45 35.4697 221.522 35.3817 221.618 35.2937C221.954 35.0137 222.354 34.7937 222.818 34.6337C223.29 34.4657 223.77 34.3817 224.258 34.3817C225.09 34.3817 225.75 34.5857 226.238 34.9937C226.734 35.4017 226.982 35.9457 226.982 36.6257C226.974 37.0897 226.85 37.4977 226.61 37.8497C226.378 38.1937 226.05 38.4457 225.626 38.6057Z" fill="#4F4F4F"/>
<path d="M314.822 24.5718L314.822 24.5722C315.908 25.6781 317.877 26.5412 320.114 27.2268C322.375 27.9201 325.004 28.4581 327.494 28.8674C329.073 29.1269 330.601 29.3354 331.952 29.4992C330.602 29.6627 329.075 29.8707 327.497 30.1298C325.007 30.5386 322.379 31.0764 320.117 31.77C317.879 32.4561 315.91 33.3201 314.822 34.4278C313.738 35.5326 312.891 37.5342 312.218 39.8108C311.538 42.1128 311.01 44.7883 310.608 47.3239C310.358 48.8999 310.157 50.4264 309.997 51.782C309.838 50.4264 309.637 48.9 309.388 47.3241C308.987 44.7885 308.46 42.1129 307.78 39.811C307.108 37.5343 306.262 35.5327 305.178 34.4278C304.09 33.3201 302.121 32.4557 299.883 31.7689C297.621 31.0746 294.993 30.5359 292.503 30.1261C290.924 29.8663 289.396 29.6575 288.046 29.4936C289.396 29.3301 290.924 29.122 292.503 28.8628C294.993 28.4539 297.621 27.9162 299.883 27.2225C302.121 26.5364 304.09 25.6725 305.178 24.5647C306.262 23.46 307.109 21.4589 307.782 19.1829C308.462 16.8817 308.99 14.2071 309.392 11.6724C309.642 10.097 309.843 8.57116 310.003 7.21611C310.161 8.57133 310.363 10.0974 310.612 11.6731C311.013 14.2083 311.54 16.8836 312.219 19.1859C312.892 21.4629 313.738 23.4653 314.822 24.5718Z" fill="#FAF8FB" stroke="#E0E0E0"/>
<path d="M312.762 31.144C313.002 31.144 313.182 31.196 313.302 31.3C313.422 31.404 313.482 31.552 313.482 31.744C313.482 32.144 313.242 32.344 312.762 32.344H312.15V33.292C312.15 33.54 312.078 33.732 311.934 33.868C311.798 34.004 311.618 34.072 311.394 34.072C311.17 34.072 310.986 34.004 310.842 33.868C310.706 33.732 310.638 33.54 310.638 33.292V32.344H307.494C307.278 32.344 307.11 32.284 306.99 32.164C306.87 32.036 306.81 31.88 306.81 31.696C306.81 31.504 306.874 31.32 307.002 31.144L310.71 25.816C310.79 25.704 310.89 25.62 311.01 25.564C311.13 25.5 311.254 25.468 311.382 25.468C311.59 25.468 311.77 25.536 311.922 25.672C312.074 25.808 312.15 26 312.15 26.248V31.144H312.762ZM308.406 31.144H310.638V27.916L308.406 31.144Z" fill="#4F4F4F"/>
<defs>
<filter id="filter0_d_0_1" x="0" y="0.362793" width="84.1582" height="85.2793" filterUnits="userSpaceOnUse" color-interpolation-filters="sRGB">
<feFlood flood-opacity="0" result="BackgroundImageFix"/>
<feColorMatrix in="SourceAlpha" type="matrix" values="0 0 0 0 0 0 0 0 0 0 0 0 0 0 0 0 0 0 127 0" result="hardAlpha"/>
<feOffset dy="4"/>
<feGaussianBlur stdDeviation="3"/>
<feColorMatrix type="matrix" values="0 0 0 0 0.113725 0 0 0 0 0.317647 0 0 0 0 0.635294 0 0 0 0.5 0"/>
<feBlend mode="normal" in2="BackgroundImageFix" result="effect1_dropShadow_0_1"/>
<feBlend mode="normal" in="SourceGraphic" in2="effect1_dropShadow_0_1" result="shape"/>
</filter>
<linearGradient id="paint0_linear_0_1" x1="14.6227" y1="18.4842" x2="104.833" y2="33.7371" gradientUnits="userSpaceOnUse">
<stop stop-color="#57107C"/>
<stop offset="0.151042" stop-color="#57107C"/>
<stop offset="1" stop-color="#1D51A2"/>
</linearGradient>
</defs>
</svg>
