<svg width="343" height="94" viewBox="0 0 343 94" fill="none" xmlns="http://www.w3.org/2000/svg">
<path d="M27.5877 91.096C27.0597 91.096 26.7957 90.824 26.7957 90.28V83.356C26.7957 82.812 27.0677 82.54 27.6117 82.54H31.7997C32.2157 82.54 32.4237 82.74 32.4237 83.14C32.4237 83.556 32.2157 83.764 31.7997 83.764H28.3317V86.152H31.5477C31.9637 86.152 32.1717 86.352 32.1717 86.752C32.1717 87.168 31.9637 87.376 31.5477 87.376H28.3317V90.28C28.3317 90.824 28.0837 91.096 27.5877 91.096ZM35.7545 91.12C34.4185 91.12 33.7505 90.372 33.7505 88.876V83.2C33.7505 82.696 33.9985 82.444 34.4945 82.444C34.9985 82.444 35.2505 82.696 35.2505 83.2V88.804C35.2505 89.524 35.5505 89.884 36.1505 89.884C36.2145 89.884 36.2745 89.884 36.3305 89.884C36.3865 89.876 36.4425 89.868 36.4985 89.86C36.6105 89.844 36.6865 89.876 36.7265 89.956C36.7665 90.028 36.7865 90.18 36.7865 90.412C36.7865 90.612 36.7465 90.768 36.6665 90.88C36.5865 90.992 36.4545 91.06 36.2705 91.084C36.1025 91.108 35.9305 91.12 35.7545 91.12ZM38.2065 83.932C37.9265 83.932 37.7065 83.864 37.5465 83.728C37.3945 83.584 37.3185 83.388 37.3185 83.14C37.3185 82.884 37.3945 82.688 37.5465 82.552C37.7065 82.416 37.9265 82.348 38.2065 82.348C38.7985 82.348 39.0945 82.612 39.0945 83.14C39.0945 83.668 38.7985 83.932 38.2065 83.932ZM38.2065 91.084C37.9665 91.084 37.7825 91.012 37.6545 90.868C37.5265 90.724 37.4625 90.524 37.4625 90.268V85.864C37.4625 85.32 37.7105 85.048 38.2065 85.048C38.7105 85.048 38.9625 85.32 38.9625 85.864V90.268C38.9625 90.524 38.8985 90.724 38.7705 90.868C38.6425 91.012 38.4545 91.084 38.2065 91.084ZM43.1371 93.28C42.7051 93.28 42.2851 93.24 41.8771 93.16C41.4771 93.08 41.1131 92.956 40.7851 92.788C40.5931 92.692 40.4771 92.568 40.4371 92.416C40.4051 92.272 40.4211 92.132 40.4851 91.996C40.5491 91.86 40.6451 91.76 40.7731 91.696C40.9091 91.64 41.0531 91.648 41.2051 91.72C41.5571 91.896 41.8891 92.008 42.2011 92.056C42.5211 92.112 42.7931 92.14 43.0171 92.14C44.0891 92.14 44.6251 91.624 44.6251 90.592V89.788C44.4571 90.116 44.1971 90.376 43.8451 90.568C43.5011 90.76 43.1171 90.856 42.6931 90.856C42.1651 90.856 41.7051 90.736 41.3131 90.496C40.9211 90.248 40.6171 89.904 40.4011 89.464C40.1851 89.024 40.0771 88.512 40.0771 87.928C40.0771 87.344 40.1851 86.836 40.4011 86.404C40.6171 85.964 40.9211 85.624 41.3131 85.384C41.7051 85.136 42.1651 85.012 42.6931 85.012C43.1171 85.012 43.5011 85.104 43.8451 85.288C44.1891 85.472 44.4411 85.724 44.6011 86.044V85.792C44.6011 85.544 44.6651 85.356 44.7931 85.228C44.9291 85.1 45.1131 85.036 45.3451 85.036C45.8411 85.036 46.0891 85.288 46.0891 85.792V90.412C46.0891 91.364 45.8371 92.08 45.3331 92.56C44.8291 93.04 44.0971 93.28 43.1371 93.28ZM43.1011 89.716C43.5651 89.716 43.9331 89.556 44.2051 89.236C44.4771 88.916 44.6131 88.48 44.6131 87.928C44.6131 87.376 44.4771 86.944 44.2051 86.632C43.9331 86.312 43.5651 86.152 43.1011 86.152C42.6371 86.152 42.2691 86.312 41.9971 86.632C41.7251 86.944 41.5891 87.376 41.5891 87.928C41.5891 88.48 41.7251 88.916 41.9971 89.236C42.2691 89.556 42.6371 89.716 43.1011 89.716ZM48.2673 91.096C47.7713 91.096 47.5233 90.84 47.5233 90.328V83.2C47.5233 82.696 47.7713 82.444 48.2673 82.444C48.7713 82.444 49.0233 82.696 49.0233 83.2V85.984C49.2233 85.664 49.4913 85.424 49.8273 85.264C50.1633 85.096 50.5353 85.012 50.9433 85.012C52.3273 85.012 53.0193 85.816 53.0193 87.424V90.328C53.0193 90.84 52.7713 91.096 52.2753 91.096C51.7713 91.096 51.5193 90.84 51.5193 90.328V87.496C51.5193 87.04 51.4313 86.708 51.2553 86.5C51.0873 86.292 50.8233 86.188 50.4633 86.188C50.0233 86.188 49.6713 86.328 49.4073 86.608C49.1513 86.88 49.0233 87.244 49.0233 87.7V90.328C49.0233 90.84 48.7713 91.096 48.2673 91.096ZM57.1108 91.12C55.5588 91.12 54.7828 90.352 54.7828 88.816V86.26H54.1588C53.7588 86.26 53.5588 86.072 53.5588 85.696C53.5588 85.32 53.7588 85.132 54.1588 85.132H54.7828V84.04C54.7828 83.536 55.0348 83.284 55.5388 83.284C56.0348 83.284 56.2828 83.536 56.2828 84.04V85.132H57.5548C57.9548 85.132 58.1548 85.32 58.1548 85.696C58.1548 86.072 57.9548 86.26 57.5548 86.26H56.2828V88.732C56.2828 89.116 56.3668 89.404 56.5348 89.596C56.7028 89.788 56.9748 89.884 57.3508 89.884C57.4868 89.884 57.6068 89.872 57.7108 89.848C57.8148 89.824 57.9068 89.808 57.9868 89.8C58.0828 89.792 58.1628 89.824 58.2268 89.896C58.2908 89.96 58.3228 90.096 58.3228 90.304C58.3228 90.464 58.2948 90.608 58.2388 90.736C58.1908 90.856 58.0988 90.94 57.9628 90.988C57.8588 91.02 57.7228 91.048 57.5548 91.072C57.3868 91.104 57.2388 91.12 57.1108 91.12Z" fill="#4F4F4F"/>
<path d="M106.666 91.12C105.85 91.12 105.134 90.94 104.518 90.58C103.91 90.22 103.438 89.716 103.102 89.068C102.766 88.412 102.598 87.644 102.598 86.764C102.598 85.876 102.766 85.108 103.102 84.46C103.438 83.812 103.91 83.312 104.518 82.96C105.126 82.6 105.842 82.42 106.666 82.42C107.49 82.42 108.206 82.6 108.814 82.96C109.422 83.312 109.894 83.812 110.23 84.46C110.566 85.108 110.734 85.872 110.734 86.752C110.734 87.64 110.566 88.412 110.23 89.068C109.894 89.716 109.422 90.22 108.814 90.58C108.206 90.94 107.49 91.12 106.666 91.12ZM106.666 89.8C107.442 89.8 108.046 89.532 108.478 88.996C108.91 88.46 109.126 87.716 109.126 86.764C109.126 85.804 108.91 85.06 108.478 84.532C108.054 84.004 107.45 83.74 106.666 83.74C105.89 83.74 105.286 84.004 104.854 84.532C104.422 85.06 104.206 85.804 104.206 86.764C104.206 87.716 104.422 88.46 104.854 88.996C105.286 89.532 105.89 89.8 106.666 89.8ZM115.415 91.12C114.983 91.12 114.599 91.028 114.263 90.844C113.927 90.652 113.675 90.396 113.507 90.076V90.328C113.507 90.84 113.263 91.096 112.775 91.096C112.279 91.096 112.031 90.84 112.031 90.328V83.2C112.031 82.696 112.279 82.444 112.775 82.444C113.279 82.444 113.531 82.696 113.531 83.2V85.996C113.707 85.7 113.959 85.464 114.287 85.288C114.623 85.104 114.999 85.012 115.415 85.012C115.935 85.012 116.387 85.136 116.771 85.384C117.155 85.632 117.455 85.984 117.671 86.44C117.887 86.888 117.995 87.428 117.995 88.06C117.995 88.684 117.887 89.228 117.671 89.692C117.455 90.148 117.151 90.5 116.759 90.748C116.375 90.996 115.927 91.12 115.415 91.12ZM114.995 89.98C115.443 89.98 115.803 89.82 116.075 89.5C116.347 89.172 116.483 88.692 116.483 88.06C116.483 87.42 116.347 86.944 116.075 86.632C115.803 86.312 115.443 86.152 114.995 86.152C114.547 86.152 114.187 86.312 113.915 86.632C113.643 86.944 113.507 87.42 113.507 88.06C113.507 88.692 113.643 89.172 113.915 89.5C114.187 89.82 114.547 89.98 114.995 89.98ZM119.899 83.932C119.619 83.932 119.399 83.864 119.239 83.728C119.087 83.584 119.011 83.388 119.011 83.14C119.011 82.884 119.087 82.688 119.239 82.552C119.399 82.416 119.619 82.348 119.899 82.348C120.491 82.348 120.787 82.612 120.787 83.14C120.787 83.668 120.491 83.932 119.899 83.932ZM118.387 93.268C118.163 93.284 117.995 93.24 117.883 93.136C117.763 93.04 117.695 92.92 117.679 92.776C117.663 92.632 117.695 92.5 117.775 92.38C117.847 92.26 117.963 92.192 118.123 92.176C118.483 92.144 118.743 92.04 118.903 91.864C119.071 91.696 119.155 91.436 119.155 91.084V85.792C119.155 85.288 119.407 85.036 119.911 85.036C120.407 85.036 120.655 85.288 120.655 85.792V90.952C120.655 91.728 120.471 92.292 120.103 92.644C119.735 92.996 119.163 93.204 118.387 93.268ZM124.984 91.12C124.32 91.12 123.748 90.996 123.268 90.748C122.788 90.5 122.416 90.148 122.152 89.692C121.896 89.236 121.768 88.696 121.768 88.072C121.768 87.464 121.892 86.932 122.14 86.476C122.396 86.02 122.744 85.664 123.184 85.408C123.632 85.144 124.14 85.012 124.708 85.012C125.54 85.012 126.196 85.276 126.676 85.804C127.164 86.332 127.408 87.052 127.408 87.964C127.408 88.26 127.216 88.408 126.832 88.408H123.208C123.32 89.456 123.92 89.98 125.008 89.98C125.216 89.98 125.448 89.956 125.704 89.908C125.968 89.852 126.216 89.76 126.448 89.632C126.656 89.512 126.832 89.476 126.976 89.524C127.12 89.564 127.22 89.648 127.276 89.776C127.34 89.904 127.348 90.048 127.3 90.208C127.26 90.36 127.148 90.492 126.964 90.604C126.684 90.78 126.36 90.912 125.992 91C125.632 91.08 125.296 91.12 124.984 91.12ZM124.768 86.032C124.328 86.032 123.972 86.168 123.7 86.44C123.428 86.712 123.264 87.08 123.208 87.544H126.16C126.128 87.056 125.992 86.684 125.752 86.428C125.52 86.164 125.192 86.032 124.768 86.032ZM131.188 91.12C130.572 91.12 130.036 90.996 129.58 90.748C129.124 90.492 128.772 90.132 128.524 89.668C128.276 89.204 128.152 88.66 128.152 88.036C128.152 87.412 128.276 86.876 128.524 86.428C128.772 85.972 129.124 85.624 129.58 85.384C130.036 85.136 130.572 85.012 131.188 85.012C131.452 85.012 131.736 85.048 132.04 85.12C132.352 85.192 132.644 85.312 132.916 85.48C133.076 85.576 133.168 85.7 133.192 85.852C133.224 86.004 133.204 86.144 133.132 86.272C133.068 86.4 132.968 86.492 132.832 86.548C132.704 86.604 132.556 86.584 132.388 86.488C132.02 86.28 131.664 86.176 131.32 86.176C130.8 86.176 130.396 86.34 130.108 86.668C129.828 86.988 129.688 87.448 129.688 88.048C129.688 88.64 129.828 89.108 130.108 89.452C130.396 89.788 130.8 89.956 131.32 89.956C131.664 89.956 132.02 89.856 132.388 89.656C132.556 89.56 132.704 89.54 132.832 89.596C132.96 89.652 133.052 89.748 133.108 89.884C133.164 90.012 133.176 90.152 133.144 90.304C133.112 90.448 133.02 90.568 132.868 90.664C132.604 90.824 132.324 90.94 132.028 91.012C131.732 91.084 131.452 91.12 131.188 91.12ZM136.728 91.12C135.176 91.12 134.4 90.352 134.4 88.816V86.26H133.776C133.376 86.26 133.176 86.072 133.176 85.696C133.176 85.32 133.376 85.132 133.776 85.132H134.4V84.04C134.4 83.536 134.652 83.284 135.156 83.284C135.652 83.284 135.9 83.536 135.9 84.04V85.132H137.172C137.572 85.132 137.772 85.32 137.772 85.696C137.772 86.072 137.572 86.26 137.172 86.26H135.9V88.732C135.9 89.116 135.984 89.404 136.152 89.596C136.32 89.788 136.592 89.884 136.968 89.884C137.104 89.884 137.224 89.872 137.328 89.848C137.432 89.824 137.524 89.808 137.604 89.8C137.7 89.792 137.78 89.824 137.844 89.896C137.908 89.96 137.94 90.096 137.94 90.304C137.94 90.464 137.912 90.608 137.856 90.736C137.808 90.856 137.716 90.94 137.58 90.988C137.476 91.02 137.34 91.048 137.172 91.072C137.004 91.104 136.856 91.12 136.728 91.12ZM139.422 83.932C139.142 83.932 138.922 83.864 138.762 83.728C138.61 83.584 138.534 83.388 138.534 83.14C138.534 82.884 138.61 82.688 138.762 82.552C138.922 82.416 139.142 82.348 139.422 82.348C140.014 82.348 140.31 82.612 140.31 83.14C140.31 83.668 140.014 83.932 139.422 83.932ZM139.422 91.084C139.182 91.084 138.998 91.012 138.87 90.868C138.742 90.724 138.678 90.524 138.678 90.268V85.864C138.678 85.32 138.926 85.048 139.422 85.048C139.926 85.048 140.178 85.32 140.178 85.864V90.268C140.178 90.524 140.114 90.724 139.986 90.868C139.858 91.012 139.67 91.084 139.422 91.084ZM143.992 91.096C143.592 91.096 143.296 90.884 143.104 90.46L141.196 86.032C141.084 85.768 141.08 85.536 141.184 85.336C141.296 85.136 141.516 85.036 141.844 85.036C142.028 85.036 142.176 85.08 142.288 85.168C142.4 85.248 142.5 85.404 142.588 85.636L144.028 89.236L145.516 85.624C145.604 85.4 145.704 85.248 145.816 85.168C145.936 85.08 146.096 85.036 146.296 85.036C146.552 85.036 146.732 85.136 146.836 85.336C146.94 85.536 146.936 85.764 146.824 86.02L144.88 90.46C144.704 90.884 144.408 91.096 143.992 91.096ZM150.599 91.12C149.935 91.12 149.363 90.996 148.883 90.748C148.403 90.5 148.031 90.148 147.767 89.692C147.511 89.236 147.383 88.696 147.383 88.072C147.383 87.464 147.507 86.932 147.755 86.476C148.011 86.02 148.359 85.664 148.799 85.408C149.247 85.144 149.755 85.012 150.323 85.012C151.155 85.012 151.811 85.276 152.291 85.804C152.779 86.332 153.023 87.052 153.023 87.964C153.023 88.26 152.831 88.408 152.447 88.408H148.823C148.935 89.456 149.535 89.98 150.623 89.98C150.831 89.98 151.063 89.956 151.319 89.908C151.583 89.852 151.831 89.76 152.063 89.632C152.271 89.512 152.447 89.476 152.591 89.524C152.735 89.564 152.835 89.648 152.891 89.776C152.955 89.904 152.963 90.048 152.915 90.208C152.875 90.36 152.763 90.492 152.579 90.604C152.299 90.78 151.975 90.912 151.607 91C151.247 91.08 150.911 91.12 150.599 91.12ZM150.383 86.032C149.943 86.032 149.587 86.168 149.315 86.44C149.043 86.712 148.879 87.08 148.823 87.544H151.775C151.743 87.056 151.607 86.684 151.367 86.428C151.135 86.164 150.807 86.032 150.383 86.032ZM156.239 91.12C155.895 91.12 155.531 91.084 155.147 91.012C154.763 90.94 154.419 90.816 154.115 90.64C153.947 90.544 153.843 90.428 153.803 90.292C153.763 90.148 153.767 90.016 153.815 89.896C153.871 89.768 153.959 89.676 154.079 89.62C154.207 89.564 154.355 89.576 154.523 89.656C154.843 89.808 155.143 89.916 155.423 89.98C155.703 90.036 155.979 90.064 156.251 90.064C156.635 90.064 156.919 90 157.103 89.872C157.295 89.736 157.391 89.56 157.391 89.344C157.391 89.008 157.143 88.792 156.647 88.696L155.447 88.468C154.431 88.276 153.923 87.748 153.923 86.884C153.923 86.5 154.027 86.168 154.235 85.888C154.451 85.608 154.747 85.392 155.123 85.24C155.499 85.088 155.931 85.012 156.419 85.012C157.123 85.012 157.751 85.168 158.303 85.48C158.455 85.56 158.543 85.672 158.567 85.816C158.599 85.952 158.583 86.084 158.519 86.212C158.463 86.332 158.371 86.42 158.243 86.476C158.115 86.524 157.967 86.508 157.799 86.428C157.551 86.3 157.311 86.208 157.079 86.152C156.855 86.096 156.639 86.068 156.431 86.068C156.039 86.068 155.747 86.136 155.555 86.272C155.371 86.408 155.279 86.588 155.279 86.812C155.279 87.164 155.507 87.38 155.963 87.46L157.163 87.688C157.683 87.784 158.075 87.96 158.339 88.216C158.611 88.472 158.747 88.816 158.747 89.248C158.747 89.832 158.519 90.292 158.063 90.628C157.607 90.956 156.999 91.12 156.239 91.12Z" fill="#4F4F4F"/>
<path d="M186.8 91C186.256 91 185.984 90.728 185.984 90.184V83.356C185.984 82.812 186.256 82.54 186.8 82.54H189.128C190.544 82.54 191.636 82.904 192.404 83.632C193.18 84.36 193.568 85.404 193.568 86.764C193.568 88.116 193.18 89.16 192.404 89.896C191.636 90.632 190.544 91 189.128 91H186.8ZM187.52 89.728H189.032C190.984 89.728 191.96 88.74 191.96 86.764C191.96 84.796 190.984 83.812 189.032 83.812H187.52V89.728ZM197.752 91.12C197.088 91.12 196.516 90.996 196.036 90.748C195.556 90.5 195.184 90.148 194.92 89.692C194.664 89.236 194.536 88.696 194.536 88.072C194.536 87.464 194.66 86.932 194.908 86.476C195.164 86.02 195.512 85.664 195.952 85.408C196.4 85.144 196.908 85.012 197.476 85.012C198.308 85.012 198.964 85.276 199.444 85.804C199.932 86.332 200.176 87.052 200.176 87.964C200.176 88.26 199.984 88.408 199.6 88.408H195.976C196.088 89.456 196.688 89.98 197.776 89.98C197.984 89.98 198.216 89.956 198.472 89.908C198.736 89.852 198.984 89.76 199.216 89.632C199.424 89.512 199.6 89.476 199.744 89.524C199.888 89.564 199.988 89.648 200.044 89.776C200.108 89.904 200.116 90.048 200.068 90.208C200.028 90.36 199.916 90.492 199.732 90.604C199.452 90.78 199.128 90.912 198.76 91C198.4 91.08 198.064 91.12 197.752 91.12ZM197.536 86.032C197.096 86.032 196.74 86.168 196.468 86.44C196.196 86.712 196.032 87.08 195.976 87.544H198.928C198.896 87.056 198.76 86.684 198.52 86.428C198.288 86.164 197.96 86.032 197.536 86.032ZM202.012 91.096C201.516 91.096 201.268 90.84 201.268 90.328V85.792C201.268 85.288 201.512 85.036 202 85.036C202.488 85.036 202.732 85.288 202.732 85.792V86.032C202.908 85.712 203.152 85.464 203.464 85.288C203.776 85.104 204.136 85.012 204.544 85.012C205.424 85.012 206 85.396 206.272 86.164C206.456 85.804 206.72 85.524 207.064 85.324C207.408 85.116 207.8 85.012 208.24 85.012C209.56 85.012 210.22 85.816 210.22 87.424V90.328C210.22 90.84 209.968 91.096 209.464 91.096C208.968 91.096 208.72 90.84 208.72 90.328V87.484C208.72 87.036 208.644 86.708 208.492 86.5C208.348 86.292 208.1 86.188 207.748 86.188C207.356 86.188 207.048 86.328 206.824 86.608C206.6 86.88 206.488 87.26 206.488 87.748V90.328C206.488 90.84 206.24 91.096 205.744 91.096C205.24 91.096 204.988 90.84 204.988 90.328V87.484C204.988 87.036 204.912 86.708 204.76 86.5C204.616 86.292 204.372 86.188 204.028 86.188C203.636 86.188 203.328 86.328 203.104 86.608C202.88 86.88 202.768 87.26 202.768 87.748V90.328C202.768 90.84 202.516 91.096 202.012 91.096ZM214.324 91.12C213.716 91.12 213.188 90.996 212.74 90.748C212.292 90.5 211.944 90.148 211.696 89.692C211.448 89.228 211.324 88.684 211.324 88.06C211.324 87.436 211.448 86.896 211.696 86.44C211.944 85.984 212.292 85.632 212.74 85.384C213.188 85.136 213.716 85.012 214.324 85.012C214.932 85.012 215.46 85.136 215.908 85.384C216.356 85.632 216.704 85.984 216.952 86.44C217.2 86.896 217.324 87.436 217.324 88.06C217.324 88.684 217.2 89.228 216.952 89.692C216.704 90.148 216.356 90.5 215.908 90.748C215.46 90.996 214.932 91.12 214.324 91.12ZM214.324 89.98C214.772 89.98 215.132 89.82 215.404 89.5C215.676 89.172 215.812 88.692 215.812 88.06C215.812 87.42 215.676 86.944 215.404 86.632C215.132 86.312 214.772 86.152 214.324 86.152C213.876 86.152 213.516 86.312 213.244 86.632C212.972 86.944 212.836 87.42 212.836 88.06C212.836 88.692 212.972 89.172 213.244 89.5C213.516 89.82 213.876 89.98 214.324 89.98ZM221.178 93.28C220.746 93.28 220.326 93.24 219.918 93.16C219.518 93.08 219.154 92.956 218.826 92.788C218.634 92.692 218.518 92.568 218.478 92.416C218.446 92.272 218.462 92.132 218.526 91.996C218.59 91.86 218.686 91.76 218.814 91.696C218.95 91.64 219.094 91.648 219.246 91.72C219.598 91.896 219.93 92.008 220.242 92.056C220.562 92.112 220.834 92.14 221.058 92.14C222.13 92.14 222.666 91.624 222.666 90.592V89.788C222.498 90.116 222.238 90.376 221.886 90.568C221.542 90.76 221.158 90.856 220.734 90.856C220.206 90.856 219.746 90.736 219.354 90.496C218.962 90.248 218.658 89.904 218.442 89.464C218.226 89.024 218.118 88.512 218.118 87.928C218.118 87.344 218.226 86.836 218.442 86.404C218.658 85.964 218.962 85.624 219.354 85.384C219.746 85.136 220.206 85.012 220.734 85.012C221.158 85.012 221.542 85.104 221.886 85.288C222.23 85.472 222.482 85.724 222.642 86.044V85.792C222.642 85.544 222.706 85.356 222.834 85.228C222.97 85.1 223.154 85.036 223.386 85.036C223.882 85.036 224.13 85.288 224.13 85.792V90.412C224.13 91.364 223.878 92.08 223.374 92.56C222.87 93.04 222.138 93.28 221.178 93.28ZM221.142 89.716C221.606 89.716 221.974 89.556 222.246 89.236C222.518 88.916 222.654 88.48 222.654 87.928C222.654 87.376 222.518 86.944 222.246 86.632C221.974 86.312 221.606 86.152 221.142 86.152C220.678 86.152 220.31 86.312 220.038 86.632C219.766 86.944 219.63 87.376 219.63 87.928C219.63 88.48 219.766 88.916 220.038 89.236C220.31 89.556 220.678 89.716 221.142 89.716ZM226.332 91.096C225.82 91.096 225.564 90.84 225.564 90.328V85.792C225.564 85.288 225.808 85.036 226.296 85.036C226.784 85.036 227.028 85.288 227.028 85.792V86.164C227.316 85.476 227.932 85.092 228.876 85.012C229.22 84.972 229.412 85.168 229.452 85.6C229.492 86.024 229.284 86.26 228.828 86.308L228.564 86.332C227.58 86.428 227.088 86.932 227.088 87.844V90.328C227.088 90.84 226.836 91.096 226.332 91.096ZM232.017 91.12C231.593 91.12 231.213 91.04 230.877 90.88C230.549 90.712 230.289 90.488 230.097 90.208C229.913 89.928 229.821 89.612 229.821 89.26C229.821 88.828 229.933 88.488 230.157 88.24C230.381 87.984 230.745 87.8 231.249 87.688C231.753 87.576 232.429 87.52 233.277 87.52H233.697V87.268C233.697 86.868 233.609 86.58 233.433 86.404C233.257 86.228 232.961 86.14 232.545 86.14C232.313 86.14 232.061 86.168 231.789 86.224C231.525 86.28 231.245 86.376 230.949 86.512C230.757 86.6 230.597 86.612 230.469 86.548C230.341 86.476 230.253 86.368 230.205 86.224C230.165 86.072 230.173 85.92 230.229 85.768C230.293 85.616 230.417 85.504 230.601 85.432C230.969 85.28 231.321 85.172 231.657 85.108C232.001 85.044 232.313 85.012 232.593 85.012C233.449 85.012 234.085 85.212 234.501 85.612C234.917 86.004 235.125 86.616 235.125 87.448V90.328C235.125 90.84 234.893 91.096 234.429 91.096C233.957 91.096 233.721 90.84 233.721 90.328V90.064C233.585 90.392 233.369 90.652 233.073 90.844C232.777 91.028 232.425 91.12 232.017 91.12ZM232.329 90.088C232.721 90.088 233.045 89.952 233.301 89.68C233.565 89.408 233.697 89.064 233.697 88.648V88.384H233.289C232.537 88.384 232.013 88.444 231.717 88.564C231.429 88.676 231.285 88.884 231.285 89.188C231.285 89.452 231.377 89.668 231.561 89.836C231.745 90.004 232.001 90.088 232.329 90.088ZM237.271 93.256C236.775 93.256 236.527 93.004 236.527 92.5V85.792C236.527 85.288 236.771 85.036 237.259 85.036C237.755 85.036 238.003 85.288 238.003 85.792V86.044C238.171 85.732 238.423 85.484 238.759 85.3C239.095 85.108 239.479 85.012 239.911 85.012C240.423 85.012 240.871 85.136 241.255 85.384C241.647 85.632 241.951 85.984 242.167 86.44C242.383 86.888 242.491 87.428 242.491 88.06C242.491 88.684 242.383 89.228 242.167 89.692C241.951 90.148 241.651 90.5 241.267 90.748C240.883 90.996 240.431 91.12 239.911 91.12C239.495 91.12 239.119 91.032 238.783 90.856C238.455 90.672 238.203 90.428 238.027 90.124V92.5C238.027 93.004 237.775 93.256 237.271 93.256ZM239.491 89.98C239.939 89.98 240.299 89.82 240.571 89.5C240.843 89.172 240.979 88.692 240.979 88.06C240.979 87.42 240.843 86.944 240.571 86.632C240.299 86.312 239.939 86.152 239.491 86.152C239.043 86.152 238.683 86.312 238.411 86.632C238.139 86.944 238.003 87.42 238.003 88.06C238.003 88.692 238.139 89.172 238.411 89.5C238.683 89.82 239.043 89.98 239.491 89.98ZM244.347 91.096C243.851 91.096 243.603 90.84 243.603 90.328V83.2C243.603 82.696 243.851 82.444 244.347 82.444C244.851 82.444 245.103 82.696 245.103 83.2V85.984C245.303 85.664 245.571 85.424 245.907 85.264C246.243 85.096 246.615 85.012 247.023 85.012C248.407 85.012 249.099 85.816 249.099 87.424V90.328C249.099 90.84 248.851 91.096 248.355 91.096C247.851 91.096 247.599 90.84 247.599 90.328V87.496C247.599 87.04 247.511 86.708 247.335 86.5C247.167 86.292 246.903 86.188 246.543 86.188C246.103 86.188 245.751 86.328 245.487 86.608C245.231 86.88 245.103 87.244 245.103 87.7V90.328C245.103 90.84 244.851 91.096 244.347 91.096ZM251.246 83.932C250.966 83.932 250.746 83.864 250.586 83.728C250.434 83.584 250.358 83.388 250.358 83.14C250.358 82.884 250.434 82.688 250.586 82.552C250.746 82.416 250.966 82.348 251.246 82.348C251.838 82.348 252.134 82.612 252.134 83.14C252.134 83.668 251.838 83.932 251.246 83.932ZM251.246 91.084C251.006 91.084 250.822 91.012 250.694 90.868C250.566 90.724 250.502 90.524 250.502 90.268V85.864C250.502 85.32 250.75 85.048 251.246 85.048C251.75 85.048 252.002 85.32 252.002 85.864V90.268C252.002 90.524 251.938 90.724 251.81 90.868C251.682 91.012 251.494 91.084 251.246 91.084ZM256.153 91.12C255.537 91.12 255.001 90.996 254.545 90.748C254.089 90.492 253.737 90.132 253.489 89.668C253.241 89.204 253.117 88.66 253.117 88.036C253.117 87.412 253.241 86.876 253.489 86.428C253.737 85.972 254.089 85.624 254.545 85.384C255.001 85.136 255.537 85.012 256.153 85.012C256.417 85.012 256.701 85.048 257.005 85.12C257.317 85.192 257.609 85.312 257.881 85.48C258.041 85.576 258.133 85.7 258.157 85.852C258.189 86.004 258.169 86.144 258.097 86.272C258.033 86.4 257.933 86.492 257.797 86.548C257.669 86.604 257.521 86.584 257.353 86.488C256.985 86.28 256.629 86.176 256.285 86.176C255.765 86.176 255.361 86.34 255.073 86.668C254.793 86.988 254.653 87.448 254.653 88.048C254.653 88.64 254.793 89.108 255.073 89.452C255.361 89.788 255.765 89.956 256.285 89.956C256.629 89.956 256.985 89.856 257.353 89.656C257.521 89.56 257.669 89.54 257.797 89.596C257.925 89.652 258.017 89.748 258.073 89.884C258.129 90.012 258.141 90.152 258.109 90.304C258.077 90.448 257.985 90.568 257.833 90.664C257.569 90.824 257.289 90.94 256.993 91.012C256.697 91.084 256.417 91.12 256.153 91.12ZM261.129 91.12C260.785 91.12 260.421 91.084 260.037 91.012C259.653 90.94 259.309 90.816 259.005 90.64C258.837 90.544 258.733 90.428 258.693 90.292C258.653 90.148 258.657 90.016 258.705 89.896C258.761 89.768 258.849 89.676 258.969 89.62C259.097 89.564 259.245 89.576 259.413 89.656C259.733 89.808 260.033 89.916 260.313 89.98C260.593 90.036 260.869 90.064 261.141 90.064C261.525 90.064 261.809 90 261.993 89.872C262.185 89.736 262.281 89.56 262.281 89.344C262.281 89.008 262.033 88.792 261.537 88.696L260.337 88.468C259.321 88.276 258.813 87.748 258.813 86.884C258.813 86.5 258.917 86.168 259.125 85.888C259.341 85.608 259.637 85.392 260.013 85.24C260.389 85.088 260.821 85.012 261.309 85.012C262.013 85.012 262.641 85.168 263.193 85.48C263.345 85.56 263.433 85.672 263.457 85.816C263.489 85.952 263.473 86.084 263.409 86.212C263.353 86.332 263.261 86.42 263.133 86.476C263.005 86.524 262.857 86.508 262.689 86.428C262.441 86.3 262.201 86.208 261.969 86.152C261.745 86.096 261.529 86.068 261.321 86.068C260.929 86.068 260.637 86.136 260.445 86.272C260.261 86.408 260.169 86.588 260.169 86.812C260.169 87.164 260.397 87.38 260.853 87.46L262.053 87.688C262.573 87.784 262.965 87.96 263.229 88.216C263.501 88.472 263.637 88.816 263.637 89.248C263.637 89.832 263.409 90.292 262.953 90.628C262.497 90.956 261.889 91.12 261.129 91.12Z" fill="#4F4F4F"/>
<path d="M283.267 91.096C282.987 91.096 282.787 91 282.667 90.808C282.547 90.616 282.551 90.384 282.679 90.112L285.847 83.092C285.951 82.86 286.075 82.696 286.219 82.6C286.371 82.496 286.543 82.444 286.735 82.444C286.919 82.444 287.083 82.496 287.227 82.6C287.379 82.696 287.507 82.86 287.611 83.092L290.791 90.112C290.919 90.392 290.927 90.628 290.815 90.82C290.703 91.004 290.511 91.096 290.239 91.096C290.015 91.096 289.839 91.044 289.711 90.94C289.591 90.828 289.483 90.66 289.387 90.436L288.787 89.044H284.659L284.071 90.436C283.967 90.668 283.859 90.836 283.747 90.94C283.635 91.044 283.475 91.096 283.267 91.096ZM286.711 84.208L285.187 87.82H288.259L286.735 84.208H286.711ZM293.972 91.12C292.532 91.12 291.812 90.312 291.812 88.696V85.792C291.812 85.288 292.06 85.036 292.556 85.036C293.06 85.036 293.312 85.288 293.312 85.792V88.72C293.312 89.136 293.396 89.444 293.564 89.644C293.732 89.844 294 89.944 294.368 89.944C294.768 89.944 295.096 89.808 295.352 89.536C295.608 89.256 295.736 88.888 295.736 88.432V85.792C295.736 85.288 295.984 85.036 296.48 85.036C296.984 85.036 297.236 85.288 297.236 85.792V90.328C297.236 90.84 296.992 91.096 296.504 91.096C296.016 91.096 295.772 90.84 295.772 90.328V90.124C295.38 90.788 294.78 91.12 293.972 91.12ZM300.934 91.12C300.422 91.12 299.97 90.996 299.578 90.748C299.194 90.5 298.894 90.148 298.678 89.692C298.462 89.228 298.354 88.684 298.354 88.06C298.354 87.428 298.462 86.888 298.678 86.44C298.894 85.984 299.194 85.632 299.578 85.384C299.97 85.136 300.422 85.012 300.934 85.012C301.35 85.012 301.726 85.104 302.062 85.288C302.398 85.472 302.65 85.716 302.818 86.02V83.2C302.818 82.696 303.066 82.444 303.562 82.444C304.066 82.444 304.318 82.696 304.318 83.2V90.328C304.318 90.84 304.07 91.096 303.574 91.096C303.078 91.096 302.83 90.84 302.83 90.328V90.076C302.662 90.396 302.41 90.652 302.074 90.844C301.738 91.028 301.358 91.12 300.934 91.12ZM301.354 89.98C301.802 89.98 302.162 89.82 302.434 89.5C302.706 89.172 302.842 88.692 302.842 88.06C302.842 87.42 302.706 86.944 302.434 86.632C302.162 86.312 301.802 86.152 301.354 86.152C300.906 86.152 300.546 86.312 300.274 86.632C300.002 86.944 299.866 87.42 299.866 88.06C299.866 88.692 300.002 89.172 300.274 89.5C300.546 89.82 300.906 89.98 301.354 89.98ZM306.497 83.932C306.217 83.932 305.997 83.864 305.837 83.728C305.685 83.584 305.609 83.388 305.609 83.14C305.609 82.884 305.685 82.688 305.837 82.552C305.997 82.416 306.217 82.348 306.497 82.348C307.089 82.348 307.385 82.612 307.385 83.14C307.385 83.668 307.089 83.932 306.497 83.932ZM306.497 91.084C306.257 91.084 306.073 91.012 305.945 90.868C305.817 90.724 305.753 90.524 305.753 90.268V85.864C305.753 85.32 306.001 85.048 306.497 85.048C307.001 85.048 307.253 85.32 307.253 85.864V90.268C307.253 90.524 307.189 90.724 307.061 90.868C306.933 91.012 306.745 91.084 306.497 91.084ZM311.584 91.12C310.92 91.12 310.348 90.996 309.868 90.748C309.388 90.5 309.016 90.148 308.752 89.692C308.496 89.236 308.368 88.696 308.368 88.072C308.368 87.464 308.492 86.932 308.74 86.476C308.996 86.02 309.344 85.664 309.784 85.408C310.232 85.144 310.74 85.012 311.308 85.012C312.14 85.012 312.796 85.276 313.276 85.804C313.764 86.332 314.008 87.052 314.008 87.964C314.008 88.26 313.816 88.408 313.432 88.408H309.808C309.92 89.456 310.52 89.98 311.608 89.98C311.816 89.98 312.048 89.956 312.304 89.908C312.568 89.852 312.816 89.76 313.048 89.632C313.256 89.512 313.432 89.476 313.576 89.524C313.72 89.564 313.82 89.648 313.876 89.776C313.94 89.904 313.948 90.048 313.9 90.208C313.86 90.36 313.748 90.492 313.564 90.604C313.284 90.78 312.96 90.912 312.592 91C312.232 91.08 311.896 91.12 311.584 91.12ZM311.368 86.032C310.928 86.032 310.572 86.168 310.3 86.44C310.028 86.712 309.864 87.08 309.808 87.544H312.76C312.728 87.056 312.592 86.684 312.352 86.428C312.12 86.164 311.792 86.032 311.368 86.032ZM315.819 91.096C315.323 91.096 315.075 90.84 315.075 90.328V85.792C315.075 85.288 315.319 85.036 315.807 85.036C316.295 85.036 316.539 85.288 316.539 85.792V86.044C316.739 85.708 317.007 85.452 317.343 85.276C317.687 85.1 318.071 85.012 318.495 85.012C319.879 85.012 320.571 85.816 320.571 87.424V90.328C320.571 90.84 320.323 91.096 319.827 91.096C319.323 91.096 319.071 90.84 319.071 90.328V87.496C319.071 87.04 318.983 86.708 318.807 86.5C318.639 86.292 318.375 86.188 318.015 86.188C317.575 86.188 317.223 86.328 316.959 86.608C316.703 86.88 316.575 87.244 316.575 87.7V90.328C316.575 90.84 316.323 91.096 315.819 91.096ZM324.687 91.12C324.071 91.12 323.535 90.996 323.079 90.748C322.623 90.492 322.271 90.132 322.023 89.668C321.775 89.204 321.651 88.66 321.651 88.036C321.651 87.412 321.775 86.876 322.023 86.428C322.271 85.972 322.623 85.624 323.079 85.384C323.535 85.136 324.071 85.012 324.687 85.012C324.951 85.012 325.235 85.048 325.539 85.12C325.851 85.192 326.143 85.312 326.415 85.48C326.575 85.576 326.667 85.7 326.691 85.852C326.723 86.004 326.703 86.144 326.631 86.272C326.567 86.4 326.467 86.492 326.331 86.548C326.203 86.604 326.055 86.584 325.887 86.488C325.519 86.28 325.163 86.176 324.819 86.176C324.299 86.176 323.895 86.34 323.607 86.668C323.327 86.988 323.187 87.448 323.187 88.048C323.187 88.64 323.327 89.108 323.607 89.452C323.895 89.788 324.299 89.956 324.819 89.956C325.163 89.956 325.519 89.856 325.887 89.656C326.055 89.56 326.203 89.54 326.331 89.596C326.459 89.652 326.551 89.748 326.607 89.884C326.663 90.012 326.675 90.152 326.643 90.304C326.611 90.448 326.519 90.568 326.367 90.664C326.103 90.824 325.823 90.94 325.527 91.012C325.231 91.084 324.951 91.12 324.687 91.12ZM330.29 91.12C329.626 91.12 329.054 90.996 328.574 90.748C328.094 90.5 327.722 90.148 327.458 89.692C327.202 89.236 327.074 88.696 327.074 88.072C327.074 87.464 327.198 86.932 327.446 86.476C327.702 86.02 328.05 85.664 328.49 85.408C328.938 85.144 329.446 85.012 330.014 85.012C330.846 85.012 331.502 85.276 331.982 85.804C332.47 86.332 332.714 87.052 332.714 87.964C332.714 88.26 332.522 88.408 332.138 88.408H328.514C328.626 89.456 329.226 89.98 330.314 89.98C330.522 89.98 330.754 89.956 331.01 89.908C331.274 89.852 331.522 89.76 331.754 89.632C331.962 89.512 332.138 89.476 332.282 89.524C332.426 89.564 332.526 89.648 332.582 89.776C332.646 89.904 332.654 90.048 332.606 90.208C332.566 90.36 332.454 90.492 332.27 90.604C331.99 90.78 331.666 90.912 331.298 91C330.938 91.08 330.602 91.12 330.29 91.12ZM330.074 86.032C329.634 86.032 329.278 86.168 329.006 86.44C328.734 86.712 328.57 87.08 328.514 87.544H331.466C331.434 87.056 331.298 86.684 331.058 86.428C330.826 86.164 330.498 86.032 330.074 86.032ZM335.93 91.12C335.586 91.12 335.222 91.084 334.838 91.012C334.454 90.94 334.11 90.816 333.806 90.64C333.638 90.544 333.534 90.428 333.494 90.292C333.454 90.148 333.458 90.016 333.506 89.896C333.562 89.768 333.65 89.676 333.77 89.62C333.898 89.564 334.046 89.576 334.214 89.656C334.534 89.808 334.834 89.916 335.114 89.98C335.394 90.036 335.67 90.064 335.942 90.064C336.326 90.064 336.61 90 336.794 89.872C336.986 89.736 337.082 89.56 337.082 89.344C337.082 89.008 336.834 88.792 336.338 88.696L335.138 88.468C334.122 88.276 333.614 87.748 333.614 86.884C333.614 86.5 333.718 86.168 333.926 85.888C334.142 85.608 334.438 85.392 334.814 85.24C335.19 85.088 335.622 85.012 336.11 85.012C336.814 85.012 337.442 85.168 337.994 85.48C338.146 85.56 338.234 85.672 338.258 85.816C338.29 85.952 338.274 86.084 338.21 86.212C338.154 86.332 338.062 86.42 337.934 86.476C337.806 86.524 337.658 86.508 337.49 86.428C337.242 86.3 337.002 86.208 336.77 86.152C336.546 86.096 336.33 86.068 336.122 86.068C335.73 86.068 335.438 86.136 335.246 86.272C335.062 86.408 334.97 86.588 334.97 86.812C334.97 87.164 335.198 87.38 335.654 87.46L336.854 87.688C337.374 87.784 337.766 87.96 338.03 88.216C338.302 88.472 338.438 88.816 338.438 89.248C338.438 89.832 338.21 90.292 337.754 90.628C337.298 90.956 336.69 91.12 335.93 91.12Z" fill="#333333"/>
<path d="M32 42.4999C40.3468 38.5079 66.1723 -5.95148 127.5 27.5001C149.5 39.5001 163.5 47.0001 192.5 47C221.5 46.9999 244 25.5004 269 19.5003C294 13.5001 309.5 27.5001 309.5 27.5001" stroke="#B8B8B8" stroke-linecap="round" stroke-dasharray="2 2"/>
<g filter="url(#filter0_d_0_1)">
<path d="M6 39.0019C6 39.0019 29.8586 37.3484 35.1595 31.9652C40.4603 26.582 42.0885 2.3623 42.0885 2.3623C42.0885 2.3623 43.7075 26.5914 49.0084 31.9746C54.3092 37.3578 78.1586 39.0019 78.1586 39.0019C78.1586 39.0019 54.3 40.6554 48.9991 46.0386C43.6982 51.4218 42.07 75.6415 42.07 75.6415C42.07 75.6415 40.4511 51.4124 35.1502 46.0292C29.8586 40.6554 6 39.0019 6 39.0019Z" fill="url(#paint0_linear_0_1)"/>
</g>
<g filter="url(#filter1_d_0_1)">
<path d="M104 30C104 30 122.185 28.7329 126.229 24.6263C130.261 20.5196 131.506 2 131.506 2C131.506 2 132.739 20.5196 136.782 24.6263C140.815 28.7329 159 30 159 30C159 30 140.815 31.2558 136.771 35.3737C132.739 39.4804 131.494 58 131.494 58C131.494 58 130.261 39.4804 126.218 35.3737C122.185 31.2671 104 30 104 30Z" fill="url(#paint1_linear_0_1)"/>
</g>
<g filter="url(#filter2_d_0_1)">
<path d="M190 38.6949C190 38.6949 212.591 37.1354 217.614 32.034C222.629 26.942 224.174 4 224.174 4C224.174 4 225.709 26.942 230.723 32.0434C235.737 37.1354 258.338 38.7043 258.338 38.7043C258.338 38.7043 235.747 40.2638 230.723 45.3652C225.709 50.4571 224.164 73.4086 224.164 73.4086C224.164 73.4086 222.629 50.4571 217.614 45.3652C212.591 40.2638 190 38.6949 190 38.6949Z" fill="url(#paint2_linear_0_1)"/>
</g>
<path d="M44.0354 41.7764C44.5154 41.7764 44.7554 41.9804 44.7554 42.3884C44.7554 42.8124 44.5154 43.0244 44.0354 43.0244H39.9794C39.4914 43.0244 39.2474 42.8124 39.2474 42.3884C39.2474 41.9804 39.4914 41.7764 39.9794 41.7764H41.2274V36.3044L40.0754 37.0124C39.9634 37.0764 39.8634 37.1084 39.7754 37.1084C39.6074 37.1084 39.4634 37.0364 39.3434 36.8924C39.2314 36.7484 39.1754 36.5884 39.1754 36.4124C39.1754 36.1804 39.2794 36.0004 39.4874 35.8724L41.3474 34.7204C41.5874 34.5764 41.8154 34.5044 42.0314 34.5044C42.2554 34.5044 42.4354 34.5724 42.5714 34.7084C42.7074 34.8444 42.7754 35.0324 42.7754 35.2724V41.7764H44.0354Z" fill="white"/>
<path d="M133.793 32.813C134.273 32.813 134.513 33.017 134.513 33.425C134.513 33.849 134.273 34.061 133.793 34.061H129.233C129.025 34.061 128.861 34.001 128.741 33.881C128.621 33.753 128.561 33.597 128.561 33.413C128.561 33.173 128.653 32.957 128.837 32.765L131.573 29.825C131.909 29.457 132.153 29.121 132.305 28.817C132.465 28.505 132.545 28.197 132.545 27.893C132.545 27.517 132.437 27.229 132.221 27.029C132.005 26.829 131.697 26.729 131.297 26.729C130.969 26.729 130.649 26.793 130.337 26.921C130.033 27.041 129.725 27.209 129.413 27.425C129.333 27.481 129.253 27.529 129.173 27.569C129.093 27.601 129.013 27.617 128.933 27.617C128.797 27.617 128.677 27.553 128.573 27.425C128.477 27.297 128.429 27.145 128.429 26.969C128.429 26.849 128.449 26.745 128.489 26.657C128.537 26.569 128.609 26.485 128.705 26.405C129.057 26.125 129.469 25.905 129.941 25.745C130.413 25.577 130.885 25.493 131.357 25.493C132.181 25.493 132.837 25.701 133.325 26.117C133.821 26.533 134.069 27.093 134.069 27.797C134.069 28.285 133.965 28.745 133.757 29.177C133.549 29.601 133.197 30.077 132.701 30.605L130.625 32.813H133.793Z" fill="white"/>
<path d="M225.626 38.6057C226.13 38.7337 226.514 38.9777 226.778 39.3377C227.05 39.6897 227.186 40.1297 227.186 40.6577C227.186 41.3857 226.918 41.9657 226.382 42.3977C225.846 42.8297 225.122 43.0457 224.21 43.0457C223.69 43.0457 223.19 42.9657 222.71 42.8057C222.23 42.6457 221.822 42.4217 221.486 42.1337C221.302 41.9737 221.21 41.7857 221.21 41.5697C221.21 41.3937 221.258 41.2457 221.354 41.1257C221.458 40.9977 221.578 40.9337 221.714 40.9337C221.794 40.9337 221.866 40.9497 221.93 40.9817C221.994 41.0057 222.082 41.0497 222.194 41.1137C222.53 41.3377 222.85 41.5097 223.154 41.6297C223.458 41.7497 223.79 41.8097 224.15 41.8097C224.678 41.8097 225.07 41.7057 225.326 41.4977C225.582 41.2817 225.71 40.9577 225.71 40.5257C225.71 40.1017 225.574 39.7897 225.302 39.5897C225.038 39.3817 224.626 39.2777 224.066 39.2777H223.382C223.198 39.2777 223.054 39.2177 222.95 39.0977C222.854 38.9697 222.806 38.8257 222.806 38.6657C222.806 38.4977 222.854 38.3537 222.95 38.2337C223.054 38.1137 223.198 38.0537 223.382 38.0537H223.862C224.958 38.0537 225.506 37.6417 225.506 36.8177C225.506 36.4337 225.39 36.1377 225.158 35.9297C224.926 35.7217 224.606 35.6177 224.198 35.6177C223.614 35.6177 222.99 35.8497 222.326 36.3137C222.214 36.3777 222.126 36.4257 222.062 36.4577C221.998 36.4817 221.926 36.4937 221.846 36.4937C221.71 36.4937 221.59 36.4337 221.486 36.3137C221.39 36.1857 221.342 36.0337 221.342 35.8577C221.342 35.7377 221.362 35.6377 221.402 35.5577C221.45 35.4697 221.522 35.3817 221.618 35.2937C221.954 35.0137 222.354 34.7937 222.818 34.6337C223.29 34.4657 223.77 34.3817 224.258 34.3817C225.09 34.3817 225.75 34.5857 226.238 34.9937C226.734 35.4017 226.982 35.9457 226.982 36.6257C226.974 37.0897 226.85 37.4977 226.61 37.8497C226.378 38.1937 226.05 38.4457 225.626 38.6057Z" fill="white"/>
<g filter="url(#filter3_d_0_1)">
<path d="M283 29.4926C283 29.4926 300.851 28.2568 304.821 24.2144C308.783 20.1795 310.004 2 310.004 2C310.004 2 311.217 20.1795 315.179 24.2218C319.141 28.2568 337 29.5 337 29.5C337 29.5 319.149 30.7358 315.179 34.7782C311.217 38.8131 309.996 57 309.996 57C309.996 57 308.783 38.8131 304.821 34.7782C300.851 30.7358 283 29.4926 283 29.4926Z" fill="url(#paint3_linear_0_1)"/>
</g>
<path d="M312.762 31.144C313.002 31.144 313.182 31.196 313.302 31.3C313.422 31.404 313.482 31.552 313.482 31.744C313.482 32.144 313.242 32.344 312.762 32.344H312.15V33.292C312.15 33.54 312.078 33.732 311.934 33.868C311.798 34.004 311.618 34.072 311.394 34.072C311.17 34.072 310.986 34.004 310.842 33.868C310.706 33.732 310.638 33.54 310.638 33.292V32.344H307.494C307.278 32.344 307.11 32.284 306.99 32.164C306.87 32.036 306.81 31.88 306.81 31.696C306.81 31.504 306.874 31.32 307.002 31.144L310.71 25.816C310.79 25.704 310.89 25.62 311.01 25.564C311.13 25.5 311.254 25.468 311.382 25.468C311.59 25.468 311.77 25.536 311.922 25.672C312.074 25.808 312.15 26 312.15 26.248V31.144H312.762ZM308.406 31.144H310.638V27.916L308.406 31.144Z" fill="white"/>
<defs>
<filter id="filter0_d_0_1" x="0" y="0.362305" width="84.1582" height="85.2793" filterUnits="userSpaceOnUse" color-interpolation-filters="sRGB">
<feFlood flood-opacity="0" result="BackgroundImageFix"/>
<feColorMatrix in="SourceAlpha" type="matrix" values="0 0 0 0 0 0 0 0 0 0 0 0 0 0 0 0 0 0 127 0" result="hardAlpha"/>
<feOffset dy="4"/>
<feGaussianBlur stdDeviation="3"/>
<feColorMatrix type="matrix" values="0 0 0 0 0.113725 0 0 0 0 0.317647 0 0 0 0 0.635294 0 0 0 0.5 0"/>
<feBlend mode="normal" in2="BackgroundImageFix" result="effect1_dropShadow_0_1"/>
<feBlend mode="normal" in="SourceGraphic" in2="effect1_dropShadow_0_1" result="shape"/>
</filter>
<filter id="filter1_d_0_1" x="98" y="0" width="67" height="68" filterUnits="userSpaceOnUse" color-interpolation-filters="sRGB">
<feFlood flood-opacity="0" result="BackgroundImageFix"/>
<feColorMatrix in="SourceAlpha" type="matrix" values="0 0 0 0 0 0 0 0 0 0 0 0 0 0 0 0 0 0 127 0" result="hardAlpha"/>
<feOffset dy="4"/>
<feGaussianBlur stdDeviation="3"/>
<feColorMatrix type="matrix" values="0 0 0 0 0.113725 0 0 0 0 0.317647 0 0 0 0 0.635294 0 0 0 0.5 0"/>
<feBlend mode="normal" in2="BackgroundImageFix" result="effect1_dropShadow_0_1"/>
<feBlend mode="normal" in="SourceGraphic" in2="effect1_dropShadow_0_1" result="shape"/>
</filter>
<filter id="filter2_d_0_1" x="184" y="2" width="80.3379" height="81.4087" filterUnits="userSpaceOnUse" color-interpolation-filters="sRGB">
<feFlood flood-opacity="0" result="BackgroundImageFix"/>
<feColorMatrix in="SourceAlpha" type="matrix" values="0 0 0 0 0 0 0 0 0 0 0 0 0 0 0 0 0 0 127 0" result="hardAlpha"/>
<feOffset dy="4"/>
<feGaussianBlur stdDeviation="3"/>
<feColorMatrix type="matrix" values="0 0 0 0 0.113725 0 0 0 0 0.317647 0 0 0 0 0.635294 0 0 0 0.5 0"/>
<feBlend mode="normal" in2="BackgroundImageFix" result="effect1_dropShadow_0_1"/>
<feBlend mode="normal" in="SourceGraphic" in2="effect1_dropShadow_0_1" result="shape"/>
</filter>
<filter id="filter3_d_0_1" x="277" y="0" width="66" height="67" filterUnits="userSpaceOnUse" color-interpolation-filters="sRGB">
<feFlood flood-opacity="0" result="BackgroundImageFix"/>
<feColorMatrix in="SourceAlpha" type="matrix" values="0 0 0 0 0 0 0 0 0 0 0 0 0 0 0 0 0 0 127 0" result="hardAlpha"/>
<feOffset dy="4"/>
<feGaussianBlur stdDeviation="3"/>
<feColorMatrix type="matrix" values="0 0 0 0 0.113725 0 0 0 0 0.317647 0 0 0 0 0.635294 0 0 0 0.5 0"/>
<feBlend mode="normal" in2="BackgroundImageFix" result="effect1_dropShadow_0_1"/>
<feBlend mode="normal" in="SourceGraphic" in2="effect1_dropShadow_0_1" result="shape"/>
</filter>
<linearGradient id="paint0_linear_0_1" x1="14.6227" y1="18.4837" x2="104.833" y2="33.7366" gradientUnits="userSpaceOnUse">
<stop stop-color="#57107C"/>
<stop offset="0.151042" stop-color="#57107C"/>
<stop offset="1" stop-color="#1D51A2"/>
</linearGradient>
<linearGradient id="paint1_linear_0_1" x1="110.572" y1="14.32" x2="179.341" y2="25.9173" gradientUnits="userSpaceOnUse">
<stop stop-color="#57107C"/>
<stop offset="0.151042" stop-color="#57107C"/>
<stop offset="1" stop-color="#1D51A2"/>
</linearGradient>
<linearGradient id="paint2_linear_0_1" x1="198.166" y1="19.2699" x2="283.6" y2="33.7133" gradientUnits="userSpaceOnUse">
<stop stop-color="#57107C"/>
<stop offset="0.151042" stop-color="#57107C"/>
<stop offset="1" stop-color="#1D51A2"/>
</linearGradient>
<linearGradient id="paint3_linear_0_1" x1="289.453" y1="14.1" x2="356.973" y2="25.4829" gradientUnits="userSpaceOnUse">
<stop stop-color="#57107C"/>
<stop offset="0.151042" stop-color="#57107C"/>
<stop offset="1" stop-color="#1D51A2"/>
</linearGradient>
</defs>
</svg>
