<svg width="338" height="94" viewBox="0 0 338 94" fill="none" xmlns="http://www.w3.org/2000/svg">
<path d="M27.5877 91.096C27.0597 91.096 26.7957 90.824 26.7957 90.28V83.356C26.7957 82.812 27.0677 82.54 27.6117 82.54H31.7997C32.2157 82.54 32.4237 82.74 32.4237 83.14C32.4237 83.556 32.2157 83.764 31.7997 83.764H28.3317V86.152H31.5477C31.9637 86.152 32.1717 86.352 32.1717 86.752C32.1717 87.168 31.9637 87.376 31.5477 87.376H28.3317V90.28C28.3317 90.824 28.0837 91.096 27.5877 91.096ZM35.7545 91.12C34.4185 91.12 33.7505 90.372 33.7505 88.876V83.2C33.7505 82.696 33.9985 82.444 34.4945 82.444C34.9985 82.444 35.2505 82.696 35.2505 83.2V88.804C35.2505 89.524 35.5505 89.884 36.1505 89.884C36.2145 89.884 36.2745 89.884 36.3305 89.884C36.3865 89.876 36.4425 89.868 36.4985 89.86C36.6105 89.844 36.6865 89.876 36.7265 89.956C36.7665 90.028 36.7865 90.18 36.7865 90.412C36.7865 90.612 36.7465 90.768 36.6665 90.88C36.5865 90.992 36.4545 91.06 36.2705 91.084C36.1025 91.108 35.9305 91.12 35.7545 91.12ZM38.2065 83.932C37.9265 83.932 37.7065 83.864 37.5465 83.728C37.3945 83.584 37.3185 83.388 37.3185 83.14C37.3185 82.884 37.3945 82.688 37.5465 82.552C37.7065 82.416 37.9265 82.348 38.2065 82.348C38.7985 82.348 39.0945 82.612 39.0945 83.14C39.0945 83.668 38.7985 83.932 38.2065 83.932ZM38.2065 91.084C37.9665 91.084 37.7825 91.012 37.6545 90.868C37.5265 90.724 37.4625 90.524 37.4625 90.268V85.864C37.4625 85.32 37.7105 85.048 38.2065 85.048C38.7105 85.048 38.9625 85.32 38.9625 85.864V90.268C38.9625 90.524 38.8985 90.724 38.7705 90.868C38.6425 91.012 38.4545 91.084 38.2065 91.084ZM43.1371 93.28C42.7051 93.28 42.2851 93.24 41.8771 93.16C41.4771 93.08 41.1131 92.956 40.7851 92.788C40.5931 92.692 40.4771 92.568 40.4371 92.416C40.4051 92.272 40.4211 92.132 40.4851 91.996C40.5491 91.86 40.6451 91.76 40.7731 91.696C40.9091 91.64 41.0531 91.648 41.2051 91.72C41.5571 91.896 41.8891 92.008 42.2011 92.056C42.5211 92.112 42.7931 92.14 43.0171 92.14C44.0891 92.14 44.6251 91.624 44.6251 90.592V89.788C44.4571 90.116 44.1971 90.376 43.8451 90.568C43.5011 90.76 43.1171 90.856 42.6931 90.856C42.1651 90.856 41.7051 90.736 41.3131 90.496C40.9211 90.248 40.6171 89.904 40.4011 89.464C40.1851 89.024 40.0771 88.512 40.0771 87.928C40.0771 87.344 40.1851 86.836 40.4011 86.404C40.6171 85.964 40.9211 85.624 41.3131 85.384C41.7051 85.136 42.1651 85.012 42.6931 85.012C43.1171 85.012 43.5011 85.104 43.8451 85.288C44.1891 85.472 44.4411 85.724 44.6011 86.044V85.792C44.6011 85.544 44.6651 85.356 44.7931 85.228C44.9291 85.1 45.1131 85.036 45.3451 85.036C45.8411 85.036 46.0891 85.288 46.0891 85.792V90.412C46.0891 91.364 45.8371 92.08 45.3331 92.56C44.8291 93.04 44.0971 93.28 43.1371 93.28ZM43.1011 89.716C43.5651 89.716 43.9331 89.556 44.2051 89.236C44.4771 88.916 44.6131 88.48 44.6131 87.928C44.6131 87.376 44.4771 86.944 44.2051 86.632C43.9331 86.312 43.5651 86.152 43.1011 86.152C42.6371 86.152 42.2691 86.312 41.9971 86.632C41.7251 86.944 41.5891 87.376 41.5891 87.928C41.5891 88.48 41.7251 88.916 41.9971 89.236C42.2691 89.556 42.6371 89.716 43.1011 89.716ZM48.2673 91.096C47.7713 91.096 47.5233 90.84 47.5233 90.328V83.2C47.5233 82.696 47.7713 82.444 48.2673 82.444C48.7713 82.444 49.0233 82.696 49.0233 83.2V85.984C49.2233 85.664 49.4913 85.424 49.8273 85.264C50.1633 85.096 50.5353 85.012 50.9433 85.012C52.3273 85.012 53.0193 85.816 53.0193 87.424V90.328C53.0193 90.84 52.7713 91.096 52.2753 91.096C51.7713 91.096 51.5193 90.84 51.5193 90.328V87.496C51.5193 87.04 51.4313 86.708 51.2553 86.5C51.0873 86.292 50.8233 86.188 50.4633 86.188C50.0233 86.188 49.6713 86.328 49.4073 86.608C49.1513 86.88 49.0233 87.244 49.0233 87.7V90.328C49.0233 90.84 48.7713 91.096 48.2673 91.096ZM57.1108 91.12C55.5588 91.12 54.7828 90.352 54.7828 88.816V86.26H54.1588C53.7588 86.26 53.5588 86.072 53.5588 85.696C53.5588 85.32 53.7588 85.132 54.1588 85.132H54.7828V84.04C54.7828 83.536 55.0348 83.284 55.5388 83.284C56.0348 83.284 56.2828 83.536 56.2828 84.04V85.132H57.5548C57.9548 85.132 58.1548 85.32 58.1548 85.696C58.1548 86.072 57.9548 86.26 57.5548 86.26H56.2828V88.732C56.2828 89.116 56.3668 89.404 56.5348 89.596C56.7028 89.788 56.9748 89.884 57.3508 89.884C57.4868 89.884 57.6068 89.872 57.7108 89.848C57.8148 89.824 57.9068 89.808 57.9868 89.8C58.0828 89.792 58.1628 89.824 58.2268 89.896C58.2908 89.96 58.3228 90.096 58.3228 90.304C58.3228 90.464 58.2948 90.608 58.2388 90.736C58.1908 90.856 58.0988 90.94 57.9628 90.988C57.8588 91.02 57.7228 91.048 57.5548 91.072C57.3868 91.104 57.2388 91.12 57.1108 91.12Z" fill="#4F4F4F"/>
<path d="M107.666 91.12C106.85 91.12 106.134 90.94 105.518 90.58C104.91 90.22 104.438 89.716 104.102 89.068C103.766 88.412 103.598 87.644 103.598 86.764C103.598 85.876 103.766 85.108 104.102 84.46C104.438 83.812 104.91 83.312 105.518 82.96C106.126 82.6 106.842 82.42 107.666 82.42C108.49 82.42 109.206 82.6 109.814 82.96C110.422 83.312 110.894 83.812 111.23 84.46C111.566 85.108 111.734 85.872 111.734 86.752C111.734 87.64 111.566 88.412 111.23 89.068C110.894 89.716 110.422 90.22 109.814 90.58C109.206 90.94 108.49 91.12 107.666 91.12ZM107.666 89.8C108.442 89.8 109.046 89.532 109.478 88.996C109.91 88.46 110.126 87.716 110.126 86.764C110.126 85.804 109.91 85.06 109.478 84.532C109.054 84.004 108.45 83.74 107.666 83.74C106.89 83.74 106.286 84.004 105.854 84.532C105.422 85.06 105.206 85.804 105.206 86.764C105.206 87.716 105.422 88.46 105.854 88.996C106.286 89.532 106.89 89.8 107.666 89.8ZM116.415 91.12C115.983 91.12 115.599 91.028 115.263 90.844C114.927 90.652 114.675 90.396 114.507 90.076V90.328C114.507 90.84 114.263 91.096 113.775 91.096C113.279 91.096 113.031 90.84 113.031 90.328V83.2C113.031 82.696 113.279 82.444 113.775 82.444C114.279 82.444 114.531 82.696 114.531 83.2V85.996C114.707 85.7 114.959 85.464 115.287 85.288C115.623 85.104 115.999 85.012 116.415 85.012C116.935 85.012 117.387 85.136 117.771 85.384C118.155 85.632 118.455 85.984 118.671 86.44C118.887 86.888 118.995 87.428 118.995 88.06C118.995 88.684 118.887 89.228 118.671 89.692C118.455 90.148 118.151 90.5 117.759 90.748C117.375 90.996 116.927 91.12 116.415 91.12ZM115.995 89.98C116.443 89.98 116.803 89.82 117.075 89.5C117.347 89.172 117.483 88.692 117.483 88.06C117.483 87.42 117.347 86.944 117.075 86.632C116.803 86.312 116.443 86.152 115.995 86.152C115.547 86.152 115.187 86.312 114.915 86.632C114.643 86.944 114.507 87.42 114.507 88.06C114.507 88.692 114.643 89.172 114.915 89.5C115.187 89.82 115.547 89.98 115.995 89.98ZM120.899 83.932C120.619 83.932 120.399 83.864 120.239 83.728C120.087 83.584 120.011 83.388 120.011 83.14C120.011 82.884 120.087 82.688 120.239 82.552C120.399 82.416 120.619 82.348 120.899 82.348C121.491 82.348 121.787 82.612 121.787 83.14C121.787 83.668 121.491 83.932 120.899 83.932ZM119.387 93.268C119.163 93.284 118.995 93.24 118.883 93.136C118.763 93.04 118.695 92.92 118.679 92.776C118.663 92.632 118.695 92.5 118.775 92.38C118.847 92.26 118.963 92.192 119.123 92.176C119.483 92.144 119.743 92.04 119.903 91.864C120.071 91.696 120.155 91.436 120.155 91.084V85.792C120.155 85.288 120.407 85.036 120.911 85.036C121.407 85.036 121.655 85.288 121.655 85.792V90.952C121.655 91.728 121.471 92.292 121.103 92.644C120.735 92.996 120.163 93.204 119.387 93.268ZM125.984 91.12C125.32 91.12 124.748 90.996 124.268 90.748C123.788 90.5 123.416 90.148 123.152 89.692C122.896 89.236 122.768 88.696 122.768 88.072C122.768 87.464 122.892 86.932 123.14 86.476C123.396 86.02 123.744 85.664 124.184 85.408C124.632 85.144 125.14 85.012 125.708 85.012C126.54 85.012 127.196 85.276 127.676 85.804C128.164 86.332 128.408 87.052 128.408 87.964C128.408 88.26 128.216 88.408 127.832 88.408H124.208C124.32 89.456 124.92 89.98 126.008 89.98C126.216 89.98 126.448 89.956 126.704 89.908C126.968 89.852 127.216 89.76 127.448 89.632C127.656 89.512 127.832 89.476 127.976 89.524C128.12 89.564 128.22 89.648 128.276 89.776C128.34 89.904 128.348 90.048 128.3 90.208C128.26 90.36 128.148 90.492 127.964 90.604C127.684 90.78 127.36 90.912 126.992 91C126.632 91.08 126.296 91.12 125.984 91.12ZM125.768 86.032C125.328 86.032 124.972 86.168 124.7 86.44C124.428 86.712 124.264 87.08 124.208 87.544H127.16C127.128 87.056 126.992 86.684 126.752 86.428C126.52 86.164 126.192 86.032 125.768 86.032ZM132.188 91.12C131.572 91.12 131.036 90.996 130.58 90.748C130.124 90.492 129.772 90.132 129.524 89.668C129.276 89.204 129.152 88.66 129.152 88.036C129.152 87.412 129.276 86.876 129.524 86.428C129.772 85.972 130.124 85.624 130.58 85.384C131.036 85.136 131.572 85.012 132.188 85.012C132.452 85.012 132.736 85.048 133.04 85.12C133.352 85.192 133.644 85.312 133.916 85.48C134.076 85.576 134.168 85.7 134.192 85.852C134.224 86.004 134.204 86.144 134.132 86.272C134.068 86.4 133.968 86.492 133.832 86.548C133.704 86.604 133.556 86.584 133.388 86.488C133.02 86.28 132.664 86.176 132.32 86.176C131.8 86.176 131.396 86.34 131.108 86.668C130.828 86.988 130.688 87.448 130.688 88.048C130.688 88.64 130.828 89.108 131.108 89.452C131.396 89.788 131.8 89.956 132.32 89.956C132.664 89.956 133.02 89.856 133.388 89.656C133.556 89.56 133.704 89.54 133.832 89.596C133.96 89.652 134.052 89.748 134.108 89.884C134.164 90.012 134.176 90.152 134.144 90.304C134.112 90.448 134.02 90.568 133.868 90.664C133.604 90.824 133.324 90.94 133.028 91.012C132.732 91.084 132.452 91.12 132.188 91.12ZM137.728 91.12C136.176 91.12 135.4 90.352 135.4 88.816V86.26H134.776C134.376 86.26 134.176 86.072 134.176 85.696C134.176 85.32 134.376 85.132 134.776 85.132H135.4V84.04C135.4 83.536 135.652 83.284 136.156 83.284C136.652 83.284 136.9 83.536 136.9 84.04V85.132H138.172C138.572 85.132 138.772 85.32 138.772 85.696C138.772 86.072 138.572 86.26 138.172 86.26H136.9V88.732C136.9 89.116 136.984 89.404 137.152 89.596C137.32 89.788 137.592 89.884 137.968 89.884C138.104 89.884 138.224 89.872 138.328 89.848C138.432 89.824 138.524 89.808 138.604 89.8C138.7 89.792 138.78 89.824 138.844 89.896C138.908 89.96 138.94 90.096 138.94 90.304C138.94 90.464 138.912 90.608 138.856 90.736C138.808 90.856 138.716 90.94 138.58 90.988C138.476 91.02 138.34 91.048 138.172 91.072C138.004 91.104 137.856 91.12 137.728 91.12ZM140.422 83.932C140.142 83.932 139.922 83.864 139.762 83.728C139.61 83.584 139.534 83.388 139.534 83.14C139.534 82.884 139.61 82.688 139.762 82.552C139.922 82.416 140.142 82.348 140.422 82.348C141.014 82.348 141.31 82.612 141.31 83.14C141.31 83.668 141.014 83.932 140.422 83.932ZM140.422 91.084C140.182 91.084 139.998 91.012 139.87 90.868C139.742 90.724 139.678 90.524 139.678 90.268V85.864C139.678 85.32 139.926 85.048 140.422 85.048C140.926 85.048 141.178 85.32 141.178 85.864V90.268C141.178 90.524 141.114 90.724 140.986 90.868C140.858 91.012 140.67 91.084 140.422 91.084ZM144.992 91.096C144.592 91.096 144.296 90.884 144.104 90.46L142.196 86.032C142.084 85.768 142.08 85.536 142.184 85.336C142.296 85.136 142.516 85.036 142.844 85.036C143.028 85.036 143.176 85.08 143.288 85.168C143.4 85.248 143.5 85.404 143.588 85.636L145.028 89.236L146.516 85.624C146.604 85.4 146.704 85.248 146.816 85.168C146.936 85.08 147.096 85.036 147.296 85.036C147.552 85.036 147.732 85.136 147.836 85.336C147.94 85.536 147.936 85.764 147.824 86.02L145.88 90.46C145.704 90.884 145.408 91.096 144.992 91.096ZM151.599 91.12C150.935 91.12 150.363 90.996 149.883 90.748C149.403 90.5 149.031 90.148 148.767 89.692C148.511 89.236 148.383 88.696 148.383 88.072C148.383 87.464 148.507 86.932 148.755 86.476C149.011 86.02 149.359 85.664 149.799 85.408C150.247 85.144 150.755 85.012 151.323 85.012C152.155 85.012 152.811 85.276 153.291 85.804C153.779 86.332 154.023 87.052 154.023 87.964C154.023 88.26 153.831 88.408 153.447 88.408H149.823C149.935 89.456 150.535 89.98 151.623 89.98C151.831 89.98 152.063 89.956 152.319 89.908C152.583 89.852 152.831 89.76 153.063 89.632C153.271 89.512 153.447 89.476 153.591 89.524C153.735 89.564 153.835 89.648 153.891 89.776C153.955 89.904 153.963 90.048 153.915 90.208C153.875 90.36 153.763 90.492 153.579 90.604C153.299 90.78 152.975 90.912 152.607 91C152.247 91.08 151.911 91.12 151.599 91.12ZM151.383 86.032C150.943 86.032 150.587 86.168 150.315 86.44C150.043 86.712 149.879 87.08 149.823 87.544H152.775C152.743 87.056 152.607 86.684 152.367 86.428C152.135 86.164 151.807 86.032 151.383 86.032ZM157.239 91.12C156.895 91.12 156.531 91.084 156.147 91.012C155.763 90.94 155.419 90.816 155.115 90.64C154.947 90.544 154.843 90.428 154.803 90.292C154.763 90.148 154.767 90.016 154.815 89.896C154.871 89.768 154.959 89.676 155.079 89.62C155.207 89.564 155.355 89.576 155.523 89.656C155.843 89.808 156.143 89.916 156.423 89.98C156.703 90.036 156.979 90.064 157.251 90.064C157.635 90.064 157.919 90 158.103 89.872C158.295 89.736 158.391 89.56 158.391 89.344C158.391 89.008 158.143 88.792 157.647 88.696L156.447 88.468C155.431 88.276 154.923 87.748 154.923 86.884C154.923 86.5 155.027 86.168 155.235 85.888C155.451 85.608 155.747 85.392 156.123 85.24C156.499 85.088 156.931 85.012 157.419 85.012C158.123 85.012 158.751 85.168 159.303 85.48C159.455 85.56 159.543 85.672 159.567 85.816C159.599 85.952 159.583 86.084 159.519 86.212C159.463 86.332 159.371 86.42 159.243 86.476C159.115 86.524 158.967 86.508 158.799 86.428C158.551 86.3 158.311 86.208 158.079 86.152C157.855 86.096 157.639 86.068 157.431 86.068C157.039 86.068 156.747 86.136 156.555 86.272C156.371 86.408 156.279 86.588 156.279 86.812C156.279 87.164 156.507 87.38 156.963 87.46L158.163 87.688C158.683 87.784 159.075 87.96 159.339 88.216C159.611 88.472 159.747 88.816 159.747 89.248C159.747 89.832 159.519 90.292 159.063 90.628C158.607 90.956 157.999 91.12 157.239 91.12Z" fill="#4F4F4F"/>
<path d="M186.8 91C186.256 91 185.984 90.728 185.984 90.184V83.356C185.984 82.812 186.256 82.54 186.8 82.54H189.128C190.544 82.54 191.636 82.904 192.404 83.632C193.18 84.36 193.568 85.404 193.568 86.764C193.568 88.116 193.18 89.16 192.404 89.896C191.636 90.632 190.544 91 189.128 91H186.8ZM187.52 89.728H189.032C190.984 89.728 191.96 88.74 191.96 86.764C191.96 84.796 190.984 83.812 189.032 83.812H187.52V89.728ZM197.752 91.12C197.088 91.12 196.516 90.996 196.036 90.748C195.556 90.5 195.184 90.148 194.92 89.692C194.664 89.236 194.536 88.696 194.536 88.072C194.536 87.464 194.66 86.932 194.908 86.476C195.164 86.02 195.512 85.664 195.952 85.408C196.4 85.144 196.908 85.012 197.476 85.012C198.308 85.012 198.964 85.276 199.444 85.804C199.932 86.332 200.176 87.052 200.176 87.964C200.176 88.26 199.984 88.408 199.6 88.408H195.976C196.088 89.456 196.688 89.98 197.776 89.98C197.984 89.98 198.216 89.956 198.472 89.908C198.736 89.852 198.984 89.76 199.216 89.632C199.424 89.512 199.6 89.476 199.744 89.524C199.888 89.564 199.988 89.648 200.044 89.776C200.108 89.904 200.116 90.048 200.068 90.208C200.028 90.36 199.916 90.492 199.732 90.604C199.452 90.78 199.128 90.912 198.76 91C198.4 91.08 198.064 91.12 197.752 91.12ZM197.536 86.032C197.096 86.032 196.74 86.168 196.468 86.44C196.196 86.712 196.032 87.08 195.976 87.544H198.928C198.896 87.056 198.76 86.684 198.52 86.428C198.288 86.164 197.96 86.032 197.536 86.032ZM202.012 91.096C201.516 91.096 201.268 90.84 201.268 90.328V85.792C201.268 85.288 201.512 85.036 202 85.036C202.488 85.036 202.732 85.288 202.732 85.792V86.032C202.908 85.712 203.152 85.464 203.464 85.288C203.776 85.104 204.136 85.012 204.544 85.012C205.424 85.012 206 85.396 206.272 86.164C206.456 85.804 206.72 85.524 207.064 85.324C207.408 85.116 207.8 85.012 208.24 85.012C209.56 85.012 210.22 85.816 210.22 87.424V90.328C210.22 90.84 209.968 91.096 209.464 91.096C208.968 91.096 208.72 90.84 208.72 90.328V87.484C208.72 87.036 208.644 86.708 208.492 86.5C208.348 86.292 208.1 86.188 207.748 86.188C207.356 86.188 207.048 86.328 206.824 86.608C206.6 86.88 206.488 87.26 206.488 87.748V90.328C206.488 90.84 206.24 91.096 205.744 91.096C205.24 91.096 204.988 90.84 204.988 90.328V87.484C204.988 87.036 204.912 86.708 204.76 86.5C204.616 86.292 204.372 86.188 204.028 86.188C203.636 86.188 203.328 86.328 203.104 86.608C202.88 86.88 202.768 87.26 202.768 87.748V90.328C202.768 90.84 202.516 91.096 202.012 91.096ZM214.324 91.12C213.716 91.12 213.188 90.996 212.74 90.748C212.292 90.5 211.944 90.148 211.696 89.692C211.448 89.228 211.324 88.684 211.324 88.06C211.324 87.436 211.448 86.896 211.696 86.44C211.944 85.984 212.292 85.632 212.74 85.384C213.188 85.136 213.716 85.012 214.324 85.012C214.932 85.012 215.46 85.136 215.908 85.384C216.356 85.632 216.704 85.984 216.952 86.44C217.2 86.896 217.324 87.436 217.324 88.06C217.324 88.684 217.2 89.228 216.952 89.692C216.704 90.148 216.356 90.5 215.908 90.748C215.46 90.996 214.932 91.12 214.324 91.12ZM214.324 89.98C214.772 89.98 215.132 89.82 215.404 89.5C215.676 89.172 215.812 88.692 215.812 88.06C215.812 87.42 215.676 86.944 215.404 86.632C215.132 86.312 214.772 86.152 214.324 86.152C213.876 86.152 213.516 86.312 213.244 86.632C212.972 86.944 212.836 87.42 212.836 88.06C212.836 88.692 212.972 89.172 213.244 89.5C213.516 89.82 213.876 89.98 214.324 89.98ZM221.178 93.28C220.746 93.28 220.326 93.24 219.918 93.16C219.518 93.08 219.154 92.956 218.826 92.788C218.634 92.692 218.518 92.568 218.478 92.416C218.446 92.272 218.462 92.132 218.526 91.996C218.59 91.86 218.686 91.76 218.814 91.696C218.95 91.64 219.094 91.648 219.246 91.72C219.598 91.896 219.93 92.008 220.242 92.056C220.562 92.112 220.834 92.14 221.058 92.14C222.13 92.14 222.666 91.624 222.666 90.592V89.788C222.498 90.116 222.238 90.376 221.886 90.568C221.542 90.76 221.158 90.856 220.734 90.856C220.206 90.856 219.746 90.736 219.354 90.496C218.962 90.248 218.658 89.904 218.442 89.464C218.226 89.024 218.118 88.512 218.118 87.928C218.118 87.344 218.226 86.836 218.442 86.404C218.658 85.964 218.962 85.624 219.354 85.384C219.746 85.136 220.206 85.012 220.734 85.012C221.158 85.012 221.542 85.104 221.886 85.288C222.23 85.472 222.482 85.724 222.642 86.044V85.792C222.642 85.544 222.706 85.356 222.834 85.228C222.97 85.1 223.154 85.036 223.386 85.036C223.882 85.036 224.13 85.288 224.13 85.792V90.412C224.13 91.364 223.878 92.08 223.374 92.56C222.87 93.04 222.138 93.28 221.178 93.28ZM221.142 89.716C221.606 89.716 221.974 89.556 222.246 89.236C222.518 88.916 222.654 88.48 222.654 87.928C222.654 87.376 222.518 86.944 222.246 86.632C221.974 86.312 221.606 86.152 221.142 86.152C220.678 86.152 220.31 86.312 220.038 86.632C219.766 86.944 219.63 87.376 219.63 87.928C219.63 88.48 219.766 88.916 220.038 89.236C220.31 89.556 220.678 89.716 221.142 89.716ZM226.332 91.096C225.82 91.096 225.564 90.84 225.564 90.328V85.792C225.564 85.288 225.808 85.036 226.296 85.036C226.784 85.036 227.028 85.288 227.028 85.792V86.164C227.316 85.476 227.932 85.092 228.876 85.012C229.22 84.972 229.412 85.168 229.452 85.6C229.492 86.024 229.284 86.26 228.828 86.308L228.564 86.332C227.58 86.428 227.088 86.932 227.088 87.844V90.328C227.088 90.84 226.836 91.096 226.332 91.096ZM232.017 91.12C231.593 91.12 231.213 91.04 230.877 90.88C230.549 90.712 230.289 90.488 230.097 90.208C229.913 89.928 229.821 89.612 229.821 89.26C229.821 88.828 229.933 88.488 230.157 88.24C230.381 87.984 230.745 87.8 231.249 87.688C231.753 87.576 232.429 87.52 233.277 87.52H233.697V87.268C233.697 86.868 233.609 86.58 233.433 86.404C233.257 86.228 232.961 86.14 232.545 86.14C232.313 86.14 232.061 86.168 231.789 86.224C231.525 86.28 231.245 86.376 230.949 86.512C230.757 86.6 230.597 86.612 230.469 86.548C230.341 86.476 230.253 86.368 230.205 86.224C230.165 86.072 230.173 85.92 230.229 85.768C230.293 85.616 230.417 85.504 230.601 85.432C230.969 85.28 231.321 85.172 231.657 85.108C232.001 85.044 232.313 85.012 232.593 85.012C233.449 85.012 234.085 85.212 234.501 85.612C234.917 86.004 235.125 86.616 235.125 87.448V90.328C235.125 90.84 234.893 91.096 234.429 91.096C233.957 91.096 233.721 90.84 233.721 90.328V90.064C233.585 90.392 233.369 90.652 233.073 90.844C232.777 91.028 232.425 91.12 232.017 91.12ZM232.329 90.088C232.721 90.088 233.045 89.952 233.301 89.68C233.565 89.408 233.697 89.064 233.697 88.648V88.384H233.289C232.537 88.384 232.013 88.444 231.717 88.564C231.429 88.676 231.285 88.884 231.285 89.188C231.285 89.452 231.377 89.668 231.561 89.836C231.745 90.004 232.001 90.088 232.329 90.088ZM237.271 93.256C236.775 93.256 236.527 93.004 236.527 92.5V85.792C236.527 85.288 236.771 85.036 237.259 85.036C237.755 85.036 238.003 85.288 238.003 85.792V86.044C238.171 85.732 238.423 85.484 238.759 85.3C239.095 85.108 239.479 85.012 239.911 85.012C240.423 85.012 240.871 85.136 241.255 85.384C241.647 85.632 241.951 85.984 242.167 86.44C242.383 86.888 242.491 87.428 242.491 88.06C242.491 88.684 242.383 89.228 242.167 89.692C241.951 90.148 241.651 90.5 241.267 90.748C240.883 90.996 240.431 91.12 239.911 91.12C239.495 91.12 239.119 91.032 238.783 90.856C238.455 90.672 238.203 90.428 238.027 90.124V92.5C238.027 93.004 237.775 93.256 237.271 93.256ZM239.491 89.98C239.939 89.98 240.299 89.82 240.571 89.5C240.843 89.172 240.979 88.692 240.979 88.06C240.979 87.42 240.843 86.944 240.571 86.632C240.299 86.312 239.939 86.152 239.491 86.152C239.043 86.152 238.683 86.312 238.411 86.632C238.139 86.944 238.003 87.42 238.003 88.06C238.003 88.692 238.139 89.172 238.411 89.5C238.683 89.82 239.043 89.98 239.491 89.98ZM244.347 91.096C243.851 91.096 243.603 90.84 243.603 90.328V83.2C243.603 82.696 243.851 82.444 244.347 82.444C244.851 82.444 245.103 82.696 245.103 83.2V85.984C245.303 85.664 245.571 85.424 245.907 85.264C246.243 85.096 246.615 85.012 247.023 85.012C248.407 85.012 249.099 85.816 249.099 87.424V90.328C249.099 90.84 248.851 91.096 248.355 91.096C247.851 91.096 247.599 90.84 247.599 90.328V87.496C247.599 87.04 247.511 86.708 247.335 86.5C247.167 86.292 246.903 86.188 246.543 86.188C246.103 86.188 245.751 86.328 245.487 86.608C245.231 86.88 245.103 87.244 245.103 87.7V90.328C245.103 90.84 244.851 91.096 244.347 91.096ZM251.246 83.932C250.966 83.932 250.746 83.864 250.586 83.728C250.434 83.584 250.358 83.388 250.358 83.14C250.358 82.884 250.434 82.688 250.586 82.552C250.746 82.416 250.966 82.348 251.246 82.348C251.838 82.348 252.134 82.612 252.134 83.14C252.134 83.668 251.838 83.932 251.246 83.932ZM251.246 91.084C251.006 91.084 250.822 91.012 250.694 90.868C250.566 90.724 250.502 90.524 250.502 90.268V85.864C250.502 85.32 250.75 85.048 251.246 85.048C251.75 85.048 252.002 85.32 252.002 85.864V90.268C252.002 90.524 251.938 90.724 251.81 90.868C251.682 91.012 251.494 91.084 251.246 91.084ZM256.153 91.12C255.537 91.12 255.001 90.996 254.545 90.748C254.089 90.492 253.737 90.132 253.489 89.668C253.241 89.204 253.117 88.66 253.117 88.036C253.117 87.412 253.241 86.876 253.489 86.428C253.737 85.972 254.089 85.624 254.545 85.384C255.001 85.136 255.537 85.012 256.153 85.012C256.417 85.012 256.701 85.048 257.005 85.12C257.317 85.192 257.609 85.312 257.881 85.48C258.041 85.576 258.133 85.7 258.157 85.852C258.189 86.004 258.169 86.144 258.097 86.272C258.033 86.4 257.933 86.492 257.797 86.548C257.669 86.604 257.521 86.584 257.353 86.488C256.985 86.28 256.629 86.176 256.285 86.176C255.765 86.176 255.361 86.34 255.073 86.668C254.793 86.988 254.653 87.448 254.653 88.048C254.653 88.64 254.793 89.108 255.073 89.452C255.361 89.788 255.765 89.956 256.285 89.956C256.629 89.956 256.985 89.856 257.353 89.656C257.521 89.56 257.669 89.54 257.797 89.596C257.925 89.652 258.017 89.748 258.073 89.884C258.129 90.012 258.141 90.152 258.109 90.304C258.077 90.448 257.985 90.568 257.833 90.664C257.569 90.824 257.289 90.94 256.993 91.012C256.697 91.084 256.417 91.12 256.153 91.12ZM261.129 91.12C260.785 91.12 260.421 91.084 260.037 91.012C259.653 90.94 259.309 90.816 259.005 90.64C258.837 90.544 258.733 90.428 258.693 90.292C258.653 90.148 258.657 90.016 258.705 89.896C258.761 89.768 258.849 89.676 258.969 89.62C259.097 89.564 259.245 89.576 259.413 89.656C259.733 89.808 260.033 89.916 260.313 89.98C260.593 90.036 260.869 90.064 261.141 90.064C261.525 90.064 261.809 90 261.993 89.872C262.185 89.736 262.281 89.56 262.281 89.344C262.281 89.008 262.033 88.792 261.537 88.696L260.337 88.468C259.321 88.276 258.813 87.748 258.813 86.884C258.813 86.5 258.917 86.168 259.125 85.888C259.341 85.608 259.637 85.392 260.013 85.24C260.389 85.088 260.821 85.012 261.309 85.012C262.013 85.012 262.641 85.168 263.193 85.48C263.345 85.56 263.433 85.672 263.457 85.816C263.489 85.952 263.473 86.084 263.409 86.212C263.353 86.332 263.261 86.42 263.133 86.476C263.005 86.524 262.857 86.508 262.689 86.428C262.441 86.3 262.201 86.208 261.969 86.152C261.745 86.096 261.529 86.068 261.321 86.068C260.929 86.068 260.637 86.136 260.445 86.272C260.261 86.408 260.169 86.588 260.169 86.812C260.169 87.164 260.397 87.38 260.853 87.46L262.053 87.688C262.573 87.784 262.965 87.96 263.229 88.216C263.501 88.472 263.637 88.816 263.637 89.248C263.637 89.832 263.409 90.292 262.953 90.628C262.497 90.956 261.889 91.12 261.129 91.12Z" fill="#4F4F4F"/>
<path d="M283.873 91.084C283.681 91.084 283.549 91.02 283.477 90.892C283.405 90.764 283.413 90.604 283.501 90.412L286.801 82.9C286.929 82.604 287.125 82.456 287.389 82.456C287.509 82.456 287.617 82.492 287.713 82.564C287.817 82.628 287.901 82.74 287.965 82.9L291.277 90.412C291.365 90.604 291.377 90.764 291.313 90.892C291.249 91.02 291.121 91.084 290.929 91.084C290.785 91.084 290.669 91.048 290.581 90.976C290.493 90.896 290.421 90.784 290.365 90.64L289.585 88.84H285.181L284.413 90.64C284.285 90.936 284.105 91.084 283.873 91.084ZM287.377 83.692L285.541 88.012H289.237L287.401 83.692H287.377ZM294.607 91.108C293.207 91.108 292.507 90.336 292.507 88.792V85.576C292.507 85.248 292.667 85.084 292.987 85.084C293.315 85.084 293.479 85.248 293.479 85.576V88.78C293.479 89.3 293.583 89.684 293.791 89.932C294.007 90.18 294.343 90.304 294.799 90.304C295.295 90.304 295.699 90.14 296.011 89.812C296.323 89.476 296.479 89.032 296.479 88.48V85.576C296.479 85.248 296.643 85.084 296.971 85.084C297.291 85.084 297.451 85.248 297.451 85.576V90.58C297.451 90.916 297.295 91.084 296.983 91.084C296.663 91.084 296.503 90.916 296.503 90.58V90.016C296.319 90.368 296.059 90.64 295.723 90.832C295.395 91.016 295.023 91.108 294.607 91.108ZM301.37 91.108C300.85 91.108 300.394 90.984 300.002 90.736C299.618 90.488 299.318 90.14 299.102 89.692C298.894 89.236 298.79 88.7 298.79 88.084C298.79 87.46 298.894 86.924 299.102 86.476C299.318 86.02 299.618 85.672 300.002 85.432C300.394 85.184 300.85 85.06 301.37 85.06C301.826 85.06 302.226 85.16 302.57 85.36C302.922 85.56 303.182 85.836 303.35 86.188V82.948C303.35 82.62 303.514 82.456 303.842 82.456C304.162 82.456 304.322 82.62 304.322 82.948V90.58C304.322 90.916 304.162 91.084 303.842 91.084C303.522 91.084 303.362 90.916 303.362 90.58V89.956C303.186 90.316 302.922 90.6 302.57 90.808C302.226 91.008 301.826 91.108 301.37 91.108ZM301.574 90.328C302.118 90.328 302.554 90.136 302.882 89.752C303.21 89.36 303.374 88.804 303.374 88.084C303.374 87.356 303.21 86.8 302.882 86.416C302.554 86.032 302.118 85.84 301.574 85.84C301.022 85.84 300.582 86.032 300.254 86.416C299.934 86.8 299.774 87.356 299.774 88.084C299.774 88.804 299.934 89.36 300.254 89.752C300.582 90.136 301.022 90.328 301.574 90.328ZM306.506 83.764C306.082 83.764 305.87 83.564 305.87 83.164C305.87 82.772 306.082 82.576 306.506 82.576C306.93 82.576 307.142 82.772 307.142 83.164C307.142 83.564 306.93 83.764 306.506 83.764ZM306.506 91.06C306.186 91.06 306.026 90.884 306.026 90.532V85.624C306.026 85.28 306.186 85.108 306.506 85.108C306.834 85.108 306.998 85.28 306.998 85.624V90.532C306.998 90.884 306.834 91.06 306.506 91.06ZM311.323 91.108C310.403 91.108 309.675 90.84 309.139 90.304C308.603 89.76 308.335 89.024 308.335 88.096C308.335 87.496 308.455 86.968 308.695 86.512C308.935 86.048 309.263 85.692 309.679 85.444C310.103 85.188 310.591 85.06 311.143 85.06C311.935 85.06 312.555 85.316 313.003 85.828C313.451 86.332 313.675 87.028 313.675 87.916C313.675 88.164 313.535 88.288 313.255 88.288H309.283C309.315 88.952 309.507 89.46 309.859 89.812C310.211 90.156 310.699 90.328 311.323 90.328C311.587 90.328 311.855 90.296 312.127 90.232C312.399 90.16 312.663 90.036 312.919 89.86C313.103 89.74 313.255 89.716 313.375 89.788C313.503 89.86 313.567 89.972 313.567 90.124C313.575 90.268 313.495 90.396 313.327 90.508C313.063 90.7 312.747 90.848 312.379 90.952C312.019 91.056 311.667 91.108 311.323 91.108ZM311.167 85.78C310.615 85.78 310.179 85.952 309.859 86.296C309.539 86.64 309.351 87.092 309.295 87.652H312.835C312.811 87.06 312.655 86.6 312.367 86.272C312.087 85.944 311.687 85.78 311.167 85.78ZM315.441 91.084C315.121 91.084 314.961 90.916 314.961 90.58V85.576C314.961 85.248 315.117 85.084 315.429 85.084C315.749 85.084 315.909 85.248 315.909 85.576V86.164C316.101 85.796 316.373 85.52 316.725 85.336C317.077 85.152 317.473 85.06 317.913 85.06C319.297 85.06 319.989 85.828 319.989 87.364V90.58C319.989 90.916 319.829 91.084 319.509 91.084C319.181 91.084 319.017 90.916 319.017 90.58V87.424C319.017 86.88 318.909 86.484 318.693 86.236C318.485 85.98 318.149 85.852 317.685 85.852C317.149 85.852 316.721 86.02 316.401 86.356C316.089 86.684 315.933 87.124 315.933 87.676V90.58C315.933 90.916 315.769 91.084 315.441 91.084ZM324.134 91.108C323.55 91.108 323.046 90.984 322.622 90.736C322.198 90.48 321.87 90.124 321.638 89.668C321.414 89.204 321.302 88.664 321.302 88.048C321.302 87.12 321.554 86.392 322.058 85.864C322.562 85.328 323.254 85.06 324.134 85.06C324.422 85.06 324.722 85.108 325.034 85.204C325.346 85.292 325.63 85.44 325.886 85.648C326.022 85.744 326.078 85.864 326.054 86.008C326.038 86.152 325.97 86.26 325.85 86.332C325.738 86.404 325.606 86.388 325.454 86.284C325.238 86.124 325.022 86.012 324.806 85.948C324.598 85.884 324.394 85.852 324.194 85.852C323.586 85.852 323.118 86.044 322.79 86.428C322.462 86.804 322.298 87.348 322.298 88.06C322.298 88.756 322.462 89.308 322.79 89.716C323.118 90.116 323.586 90.316 324.194 90.316C324.394 90.316 324.598 90.284 324.806 90.22C325.022 90.156 325.238 90.044 325.454 89.884C325.606 89.78 325.738 89.768 325.85 89.848C325.962 89.92 326.022 90.028 326.03 90.172C326.046 90.316 325.99 90.432 325.862 90.52C325.606 90.728 325.326 90.88 325.022 90.976C324.718 91.064 324.422 91.108 324.134 91.108ZM329.607 91.108C328.687 91.108 327.959 90.84 327.423 90.304C326.887 89.76 326.619 89.024 326.619 88.096C326.619 87.496 326.739 86.968 326.979 86.512C327.219 86.048 327.547 85.692 327.963 85.444C328.387 85.188 328.875 85.06 329.427 85.06C330.219 85.06 330.839 85.316 331.287 85.828C331.735 86.332 331.959 87.028 331.959 87.916C331.959 88.164 331.819 88.288 331.539 88.288H327.567C327.599 88.952 327.791 89.46 328.143 89.812C328.495 90.156 328.983 90.328 329.607 90.328C329.871 90.328 330.139 90.296 330.411 90.232C330.683 90.16 330.947 90.036 331.203 89.86C331.387 89.74 331.539 89.716 331.659 89.788C331.787 89.86 331.851 89.972 331.851 90.124C331.859 90.268 331.779 90.396 331.611 90.508C331.347 90.7 331.031 90.848 330.663 90.952C330.303 91.056 329.951 91.108 329.607 91.108ZM329.451 85.78C328.899 85.78 328.463 85.952 328.143 86.296C327.823 86.64 327.635 87.092 327.579 87.652H331.119C331.095 87.06 330.939 86.6 330.651 86.272C330.371 85.944 329.971 85.78 329.451 85.78ZM335.214 91.108C334.854 91.108 334.49 91.064 334.122 90.976C333.762 90.88 333.426 90.728 333.114 90.52C332.97 90.432 332.898 90.32 332.898 90.184C332.906 90.04 332.962 89.928 333.066 89.848C333.17 89.768 333.302 89.768 333.462 89.848C333.774 90.04 334.074 90.176 334.362 90.256C334.658 90.328 334.95 90.364 335.238 90.364C335.694 90.364 336.038 90.28 336.27 90.112C336.502 89.944 336.618 89.716 336.618 89.428C336.618 89.204 336.542 89.028 336.39 88.9C336.238 88.764 335.998 88.66 335.67 88.588L334.578 88.348C333.586 88.132 333.09 87.62 333.09 86.812C333.09 86.284 333.298 85.86 333.714 85.54C334.138 85.22 334.69 85.06 335.37 85.06C335.714 85.06 336.046 85.108 336.366 85.204C336.686 85.292 336.974 85.436 337.23 85.636C337.366 85.732 337.426 85.848 337.41 85.984C337.394 86.12 337.33 86.228 337.218 86.308C337.114 86.38 336.986 86.368 336.834 86.272C336.594 86.112 336.35 85.996 336.102 85.924C335.854 85.844 335.61 85.804 335.37 85.804C334.922 85.804 334.582 85.892 334.35 86.068C334.118 86.244 334.002 86.476 334.002 86.764C334.002 87.212 334.298 87.5 334.89 87.628L335.982 87.856C336.494 87.968 336.882 88.148 337.146 88.396C337.41 88.636 337.542 88.964 337.542 89.38C337.542 89.916 337.33 90.34 336.906 90.652C336.482 90.956 335.918 91.108 335.214 91.108Z" fill="#828282"/>
<path d="M32 42.4999C40.3468 38.5079 66.1723 -5.95148 127.5 27.5001C149.5 39.5001 163.5 47.0001 192.5 47C221.5 46.9999 244 25.5004 269 19.5003C294 13.5001 309.5 27.5001 309.5 27.5001" stroke="#B8B8B8" stroke-linecap="round" stroke-dasharray="2 2"/>
<g filter="url(#filter0_d_0_1)">
<path d="M6 39.0019C6 39.0019 29.8586 37.3484 35.1595 31.9652C40.4603 26.582 42.0885 2.3623 42.0885 2.3623C42.0885 2.3623 43.7075 26.5914 49.0084 31.9746C54.3092 37.3578 78.1586 39.0019 78.1586 39.0019C78.1586 39.0019 54.3 40.6554 48.9991 46.0386C43.6982 51.4218 42.07 75.6415 42.07 75.6415C42.07 75.6415 40.4511 51.4124 35.1502 46.0292C29.8586 40.6554 6 39.0019 6 39.0019Z" fill="url(#paint0_linear_0_1)"/>
</g>
<g filter="url(#filter1_d_0_1)">
<path d="M104 30C104 30 122.185 28.7329 126.229 24.6263C130.261 20.5196 131.506 2 131.506 2C131.506 2 132.739 20.5196 136.782 24.6263C140.815 28.7329 159 30 159 30C159 30 140.815 31.2558 136.771 35.3737C132.739 39.4804 131.494 58 131.494 58C131.494 58 130.261 39.4804 126.218 35.3737C122.185 31.2671 104 30 104 30Z" fill="url(#paint1_linear_0_1)"/>
</g>
<g filter="url(#filter2_d_0_1)">
<path d="M190 38.6949C190 38.6949 212.591 37.1354 217.614 32.034C222.629 26.942 224.174 4 224.174 4C224.174 4 225.709 26.942 230.723 32.0434C235.737 37.1354 258.338 38.7043 258.338 38.7043C258.338 38.7043 235.747 40.2638 230.723 45.3652C225.709 50.4571 224.164 73.4086 224.164 73.4086C224.164 73.4086 222.629 50.4571 217.614 45.3652C212.591 40.2638 190 38.6949 190 38.6949Z" fill="url(#paint2_linear_0_1)"/>
</g>
<path d="M44.0354 41.7764C44.5154 41.7764 44.7554 41.9804 44.7554 42.3884C44.7554 42.8124 44.5154 43.0244 44.0354 43.0244H39.9794C39.4914 43.0244 39.2474 42.8124 39.2474 42.3884C39.2474 41.9804 39.4914 41.7764 39.9794 41.7764H41.2274V36.3044L40.0754 37.0124C39.9634 37.0764 39.8634 37.1084 39.7754 37.1084C39.6074 37.1084 39.4634 37.0364 39.3434 36.8924C39.2314 36.7484 39.1754 36.5884 39.1754 36.4124C39.1754 36.1804 39.2794 36.0004 39.4874 35.8724L41.3474 34.7204C41.5874 34.5764 41.8154 34.5044 42.0314 34.5044C42.2554 34.5044 42.4354 34.5724 42.5714 34.7084C42.7074 34.8444 42.7754 35.0324 42.7754 35.2724V41.7764H44.0354Z" fill="white"/>
<path d="M133.793 32.813C134.273 32.813 134.513 33.017 134.513 33.425C134.513 33.849 134.273 34.061 133.793 34.061H129.233C129.025 34.061 128.861 34.001 128.741 33.881C128.621 33.753 128.561 33.597 128.561 33.413C128.561 33.173 128.653 32.957 128.837 32.765L131.573 29.825C131.909 29.457 132.153 29.121 132.305 28.817C132.465 28.505 132.545 28.197 132.545 27.893C132.545 27.517 132.437 27.229 132.221 27.029C132.005 26.829 131.697 26.729 131.297 26.729C130.969 26.729 130.649 26.793 130.337 26.921C130.033 27.041 129.725 27.209 129.413 27.425C129.333 27.481 129.253 27.529 129.173 27.569C129.093 27.601 129.013 27.617 128.933 27.617C128.797 27.617 128.677 27.553 128.573 27.425C128.477 27.297 128.429 27.145 128.429 26.969C128.429 26.849 128.449 26.745 128.489 26.657C128.537 26.569 128.609 26.485 128.705 26.405C129.057 26.125 129.469 25.905 129.941 25.745C130.413 25.577 130.885 25.493 131.357 25.493C132.181 25.493 132.837 25.701 133.325 26.117C133.821 26.533 134.069 27.093 134.069 27.797C134.069 28.285 133.965 28.745 133.757 29.177C133.549 29.601 133.197 30.077 132.701 30.605L130.625 32.813H133.793Z" fill="white"/>
<path d="M225.626 38.6057C226.13 38.7337 226.514 38.9777 226.778 39.3377C227.05 39.6897 227.186 40.1297 227.186 40.6577C227.186 41.3857 226.918 41.9657 226.382 42.3977C225.846 42.8297 225.122 43.0457 224.21 43.0457C223.69 43.0457 223.19 42.9657 222.71 42.8057C222.23 42.6457 221.822 42.4217 221.486 42.1337C221.302 41.9737 221.21 41.7857 221.21 41.5697C221.21 41.3937 221.258 41.2457 221.354 41.1257C221.458 40.9977 221.578 40.9337 221.714 40.9337C221.794 40.9337 221.866 40.9497 221.93 40.9817C221.994 41.0057 222.082 41.0497 222.194 41.1137C222.53 41.3377 222.85 41.5097 223.154 41.6297C223.458 41.7497 223.79 41.8097 224.15 41.8097C224.678 41.8097 225.07 41.7057 225.326 41.4977C225.582 41.2817 225.71 40.9577 225.71 40.5257C225.71 40.1017 225.574 39.7897 225.302 39.5897C225.038 39.3817 224.626 39.2777 224.066 39.2777H223.382C223.198 39.2777 223.054 39.2177 222.95 39.0977C222.854 38.9697 222.806 38.8257 222.806 38.6657C222.806 38.4977 222.854 38.3537 222.95 38.2337C223.054 38.1137 223.198 38.0537 223.382 38.0537H223.862C224.958 38.0537 225.506 37.6417 225.506 36.8177C225.506 36.4337 225.39 36.1377 225.158 35.9297C224.926 35.7217 224.606 35.6177 224.198 35.6177C223.614 35.6177 222.99 35.8497 222.326 36.3137C222.214 36.3777 222.126 36.4257 222.062 36.4577C221.998 36.4817 221.926 36.4937 221.846 36.4937C221.71 36.4937 221.59 36.4337 221.486 36.3137C221.39 36.1857 221.342 36.0337 221.342 35.8577C221.342 35.7377 221.362 35.6377 221.402 35.5577C221.45 35.4697 221.522 35.3817 221.618 35.2937C221.954 35.0137 222.354 34.7937 222.818 34.6337C223.29 34.4657 223.77 34.3817 224.258 34.3817C225.09 34.3817 225.75 34.5857 226.238 34.9937C226.734 35.4017 226.982 35.9457 226.982 36.6257C226.974 37.0897 226.85 37.4977 226.61 37.8497C226.378 38.1937 226.05 38.4457 225.626 38.6057Z" fill="white"/>
<path d="M314.822 24.5718L314.822 24.5722C315.908 25.6781 317.877 26.5412 320.114 27.2268C322.375 27.9201 325.004 28.4581 327.494 28.8674C329.073 29.1269 330.601 29.3354 331.952 29.4992C330.602 29.6627 329.075 29.8707 327.497 30.1298C325.007 30.5386 322.379 31.0764 320.117 31.77C317.879 32.4561 315.91 33.3201 314.822 34.4278C313.738 35.5326 312.891 37.5342 312.218 39.8108C311.538 42.1128 311.01 44.7883 310.608 47.3239C310.358 48.8999 310.157 50.4264 309.997 51.782C309.838 50.4264 309.637 48.9 309.388 47.3241C308.987 44.7885 308.46 42.1129 307.78 39.811C307.108 37.5343 306.262 35.5327 305.178 34.4278C304.09 33.3201 302.121 32.4557 299.883 31.7689C297.621 31.0746 294.993 30.5359 292.503 30.1261C290.924 29.8663 289.396 29.6575 288.046 29.4936C289.396 29.3301 290.924 29.122 292.503 28.8628C294.993 28.4539 297.621 27.9162 299.883 27.2225C302.121 26.5364 304.09 25.6725 305.178 24.5647C306.262 23.46 307.109 21.4589 307.782 19.1829C308.462 16.8817 308.99 14.2071 309.392 11.6724C309.642 10.097 309.843 8.57116 310.003 7.21611C310.161 8.57133 310.363 10.0974 310.612 11.6731C311.013 14.2083 311.54 16.8836 312.219 19.1859C312.892 21.4629 313.738 23.4653 314.822 24.5718Z" fill="#FAF8FB" stroke="#E0E0E0"/>
<path d="M312.762 31.144C313.002 31.144 313.182 31.196 313.302 31.3C313.422 31.404 313.482 31.552 313.482 31.744C313.482 32.144 313.242 32.344 312.762 32.344H312.15V33.292C312.15 33.54 312.078 33.732 311.934 33.868C311.798 34.004 311.618 34.072 311.394 34.072C311.17 34.072 310.986 34.004 310.842 33.868C310.706 33.732 310.638 33.54 310.638 33.292V32.344H307.494C307.278 32.344 307.11 32.284 306.99 32.164C306.87 32.036 306.81 31.88 306.81 31.696C306.81 31.504 306.874 31.32 307.002 31.144L310.71 25.816C310.79 25.704 310.89 25.62 311.01 25.564C311.13 25.5 311.254 25.468 311.382 25.468C311.59 25.468 311.77 25.536 311.922 25.672C312.074 25.808 312.15 26 312.15 26.248V31.144H312.762ZM308.406 31.144H310.638V27.916L308.406 31.144Z" fill="#4F4F4F"/>
<defs>
<filter id="filter0_d_0_1" x="0" y="0.362305" width="84.1582" height="85.2793" filterUnits="userSpaceOnUse" color-interpolation-filters="sRGB">
<feFlood flood-opacity="0" result="BackgroundImageFix"/>
<feColorMatrix in="SourceAlpha" type="matrix" values="0 0 0 0 0 0 0 0 0 0 0 0 0 0 0 0 0 0 127 0" result="hardAlpha"/>
<feOffset dy="4"/>
<feGaussianBlur stdDeviation="3"/>
<feColorMatrix type="matrix" values="0 0 0 0 0.113725 0 0 0 0 0.317647 0 0 0 0 0.635294 0 0 0 0.5 0"/>
<feBlend mode="normal" in2="BackgroundImageFix" result="effect1_dropShadow_0_1"/>
<feBlend mode="normal" in="SourceGraphic" in2="effect1_dropShadow_0_1" result="shape"/>
</filter>
<filter id="filter1_d_0_1" x="98" y="0" width="67" height="68" filterUnits="userSpaceOnUse" color-interpolation-filters="sRGB">
<feFlood flood-opacity="0" result="BackgroundImageFix"/>
<feColorMatrix in="SourceAlpha" type="matrix" values="0 0 0 0 0 0 0 0 0 0 0 0 0 0 0 0 0 0 127 0" result="hardAlpha"/>
<feOffset dy="4"/>
<feGaussianBlur stdDeviation="3"/>
<feColorMatrix type="matrix" values="0 0 0 0 0.113725 0 0 0 0 0.317647 0 0 0 0 0.635294 0 0 0 0.5 0"/>
<feBlend mode="normal" in2="BackgroundImageFix" result="effect1_dropShadow_0_1"/>
<feBlend mode="normal" in="SourceGraphic" in2="effect1_dropShadow_0_1" result="shape"/>
</filter>
<filter id="filter2_d_0_1" x="184" y="2" width="80.3379" height="81.4087" filterUnits="userSpaceOnUse" color-interpolation-filters="sRGB">
<feFlood flood-opacity="0" result="BackgroundImageFix"/>
<feColorMatrix in="SourceAlpha" type="matrix" values="0 0 0 0 0 0 0 0 0 0 0 0 0 0 0 0 0 0 127 0" result="hardAlpha"/>
<feOffset dy="4"/>
<feGaussianBlur stdDeviation="3"/>
<feColorMatrix type="matrix" values="0 0 0 0 0.113725 0 0 0 0 0.317647 0 0 0 0 0.635294 0 0 0 0.5 0"/>
<feBlend mode="normal" in2="BackgroundImageFix" result="effect1_dropShadow_0_1"/>
<feBlend mode="normal" in="SourceGraphic" in2="effect1_dropShadow_0_1" result="shape"/>
</filter>
<linearGradient id="paint0_linear_0_1" x1="14.6227" y1="18.4837" x2="104.833" y2="33.7366" gradientUnits="userSpaceOnUse">
<stop stop-color="#57107C"/>
<stop offset="0.151042" stop-color="#57107C"/>
<stop offset="1" stop-color="#1D51A2"/>
</linearGradient>
<linearGradient id="paint1_linear_0_1" x1="110.572" y1="14.32" x2="179.341" y2="25.9173" gradientUnits="userSpaceOnUse">
<stop stop-color="#57107C"/>
<stop offset="0.151042" stop-color="#57107C"/>
<stop offset="1" stop-color="#1D51A2"/>
</linearGradient>
<linearGradient id="paint2_linear_0_1" x1="198.166" y1="19.2699" x2="283.6" y2="33.7133" gradientUnits="userSpaceOnUse">
<stop stop-color="#57107C"/>
<stop offset="0.151042" stop-color="#57107C"/>
<stop offset="1" stop-color="#1D51A2"/>
</linearGradient>
</defs>
</svg>
