<svg xmlns="http://www.w3.org/2000/svg" fill="none" viewBox="0 0 337 86" height="86" width="337">
<path stroke-dasharray="2 2" stroke-linecap="round" stroke="#B8B8B8" d="M32 42.4999C40.3468 38.5079 66.1723 -5.95148 127.5 27.5001C149.5 39.5001 163.5 47.0001 192.5 47C221.5 46.9999 244 25.5004 269 19.5003C294 13.5001 309.5 27.5001 309.5 27.5001"></path>
<g filter="url(#filter0_d)">
<path fill="url(#paint0_linear)" d="M6 39.0019C6 39.0019 29.8586 37.3484 35.1595 31.9652C40.4603 26.582 42.0885 2.3623 42.0885 2.3623C42.0885 2.3623 43.7075 26.5914 49.0084 31.9746C54.3092 37.3578 78.1586 39.0019 78.1586 39.0019C78.1586 39.0019 54.3 40.6554 48.9991 46.0386C43.6982 51.4218 42.07 75.6415 42.07 75.6415C42.07 75.6415 40.4511 51.4124 35.1502 46.0292C29.8586 40.6554 6 39.0019 6 39.0019Z"></path>
</g>
<g filter="url(#filter1_d)">
<path fill="url(#paint1_linear)" d="M104 30C104 30 122.185 28.7329 126.229 24.6263C130.261 20.5196 131.506 2 131.506 2C131.506 2 132.739 20.5196 136.782 24.6263C140.815 28.7329 159 30 159 30C159 30 140.815 31.2558 136.771 35.3737C132.739 39.4804 131.494 58 131.494 58C131.494 58 130.261 39.4804 126.218 35.3737C122.185 31.2671 104 30 104 30Z"></path>
</g>
<path stroke="#E0E0E0" fill="#FAF8FB" d="M230.367 32.3939L230.367 32.3942C231.716 33.7642 234.178 34.8457 237.007 35.7105C239.861 36.5829 243.181 37.2607 246.33 37.7767C248.772 38.1769 251.118 38.4811 253.076 38.7035C251.119 38.9252 248.774 39.2287 246.334 39.6283C243.185 40.1438 239.866 40.8213 237.011 41.6941C234.181 42.5594 231.718 43.6421 230.367 45.0144C229.019 46.3834 227.955 48.881 227.104 51.753C226.245 54.6504 225.578 58.0206 225.07 61.2179C224.68 63.6671 224.384 66.0217 224.165 67.995C223.948 66.0217 223.652 63.6672 223.264 61.2181C222.757 58.0208 222.09 54.6505 221.233 51.7532C220.382 48.8811 219.319 46.3834 217.971 45.0144C216.62 43.6421 214.157 42.5589 211.327 41.6927C208.472 40.8189 205.153 40.1403 202.004 39.6236C199.563 39.2229 197.217 38.9185 195.259 38.6959C197.217 38.4741 199.563 38.1706 202.004 37.7709C205.153 37.2554 208.472 36.5779 211.327 35.705C214.157 34.8397 216.619 33.7571 217.971 32.3848C219.319 31.0158 220.383 28.5188 221.234 25.6476C222.093 22.7512 222.76 19.3821 223.268 16.186C223.657 13.7378 223.954 11.3841 224.172 9.41155C224.39 11.3843 224.686 13.7383 225.074 16.187C225.581 19.3837 226.247 22.7536 227.105 25.6514C227.955 28.524 229.019 31.0226 230.367 32.3939Z"></path>
<path fill="white" d="M44.0354 41.7764C44.5154 41.7764 44.7554 41.9804 44.7554 42.3884C44.7554 42.8124 44.5154 43.0244 44.0354 43.0244H39.9794C39.4914 43.0244 39.2474 42.8124 39.2474 42.3884C39.2474 41.9804 39.4914 41.7764 39.9794 41.7764H41.2274V36.3044L40.0754 37.0124C39.9634 37.0764 39.8634 37.1084 39.7754 37.1084C39.6074 37.1084 39.4634 37.0364 39.3434 36.8924C39.2314 36.7484 39.1754 36.5884 39.1754 36.4124C39.1754 36.1804 39.2794 36.0004 39.4874 35.8724L41.3474 34.7204C41.5874 34.5764 41.8154 34.5044 42.0314 34.5044C42.2554 34.5044 42.4354 34.5724 42.5714 34.7084C42.7074 34.8444 42.7754 35.0324 42.7754 35.2724V41.7764H44.0354Z"></path>
<path fill="white" d="M133.793 32.813C134.273 32.813 134.513 33.017 134.513 33.425C134.513 33.849 134.273 34.061 133.793 34.061H129.233C129.025 34.061 128.861 34.001 128.741 33.881C128.621 33.753 128.561 33.597 128.561 33.413C128.561 33.173 128.653 32.957 128.837 32.765L131.573 29.825C131.909 29.457 132.153 29.121 132.305 28.817C132.465 28.505 132.545 28.197 132.545 27.893C132.545 27.517 132.437 27.229 132.221 27.029C132.005 26.829 131.697 26.729 131.297 26.729C130.969 26.729 130.649 26.793 130.337 26.921C130.033 27.041 129.725 27.209 129.413 27.425C129.333 27.481 129.253 27.529 129.173 27.569C129.093 27.601 129.013 27.617 128.933 27.617C128.797 27.617 128.677 27.553 128.573 27.425C128.477 27.297 128.429 27.145 128.429 26.969C128.429 26.849 128.449 26.745 128.489 26.657C128.537 26.569 128.609 26.485 128.705 26.405C129.057 26.125 129.469 25.905 129.941 25.745C130.413 25.577 130.885 25.493 131.357 25.493C132.181 25.493 132.837 25.701 133.325 26.117C133.821 26.533 134.069 27.093 134.069 27.797C134.069 28.285 133.965 28.745 133.757 29.177C133.549 29.601 133.197 30.077 132.701 30.605L130.625 32.813H133.793Z"></path>
<path fill="#4F4F4F" d="M225.626 38.6057C226.13 38.7337 226.514 38.9777 226.778 39.3377C227.05 39.6897 227.186 40.1297 227.186 40.6577C227.186 41.3857 226.918 41.9657 226.382 42.3977C225.846 42.8297 225.122 43.0457 224.21 43.0457C223.69 43.0457 223.19 42.9657 222.71 42.8057C222.23 42.6457 221.822 42.4217 221.486 42.1337C221.302 41.9737 221.21 41.7857 221.21 41.5697C221.21 41.3937 221.258 41.2457 221.354 41.1257C221.458 40.9977 221.578 40.9337 221.714 40.9337C221.794 40.9337 221.866 40.9497 221.93 40.9817C221.994 41.0057 222.082 41.0497 222.194 41.1137C222.53 41.3377 222.85 41.5097 223.154 41.6297C223.458 41.7497 223.79 41.8097 224.15 41.8097C224.678 41.8097 225.07 41.7057 225.326 41.4977C225.582 41.2817 225.71 40.9577 225.71 40.5257C225.71 40.1017 225.574 39.7897 225.302 39.5897C225.038 39.3817 224.626 39.2777 224.066 39.2777H223.382C223.198 39.2777 223.054 39.2177 222.95 39.0977C222.854 38.9697 222.806 38.8257 222.806 38.6657C222.806 38.4977 222.854 38.3537 222.95 38.2337C223.054 38.1137 223.198 38.0537 223.382 38.0537H223.862C224.958 38.0537 225.506 37.6417 225.506 36.8177C225.506 36.4337 225.39 36.1377 225.158 35.9297C224.926 35.7217 224.606 35.6177 224.198 35.6177C223.614 35.6177 222.99 35.8497 222.326 36.3137C222.214 36.3777 222.126 36.4257 222.062 36.4577C221.998 36.4817 221.926 36.4937 221.846 36.4937C221.71 36.4937 221.59 36.4337 221.486 36.3137C221.39 36.1857 221.342 36.0337 221.342 35.8577C221.342 35.7377 221.362 35.6377 221.402 35.5577C221.45 35.4697 221.522 35.3817 221.618 35.2937C221.954 35.0137 222.354 34.7937 222.818 34.6337C223.29 34.4657 223.77 34.3817 224.258 34.3817C225.09 34.3817 225.75 34.5857 226.238 34.9937C226.734 35.4017 226.982 35.9457 226.982 36.6257C226.974 37.0897 226.85 37.4977 226.61 37.8497C226.378 38.1937 226.05 38.4457 225.626 38.6057Z"></path>
<path stroke="#E0E0E0" fill="#FAF8FB" d="M314.822 24.5718L314.822 24.5722C315.908 25.6781 317.877 26.5412 320.114 27.2268C322.375 27.9201 325.004 28.4581 327.494 28.8674C329.073 29.1269 330.601 29.3354 331.952 29.4992C330.602 29.6627 329.075 29.8707 327.497 30.1298C325.007 30.5386 322.379 31.0764 320.117 31.77C317.879 32.4561 315.91 33.3201 314.822 34.4278C313.738 35.5326 312.891 37.5342 312.218 39.8108C311.538 42.1128 311.01 44.7883 310.608 47.3239C310.358 48.8999 310.157 50.4264 309.997 51.782C309.838 50.4264 309.637 48.9 309.388 47.3241C308.987 44.7885 308.46 42.1129 307.78 39.811C307.108 37.5343 306.262 35.5327 305.178 34.4278C304.09 33.3201 302.121 32.4557 299.883 31.7689C297.621 31.0746 294.993 30.5359 292.503 30.1261C290.924 29.8663 289.396 29.6575 288.046 29.4936C289.396 29.3301 290.924 29.122 292.503 28.8628C294.993 28.4539 297.621 27.9162 299.883 27.2225C302.121 26.5364 304.09 25.6725 305.178 24.5647C306.262 23.46 307.109 21.4589 307.782 19.1829C308.462 16.8817 308.99 14.2071 309.392 11.6724C309.642 10.097 309.843 8.57116 310.003 7.21611C310.161 8.57133 310.363 10.0974 310.612 11.6731C311.013 14.2083 311.54 16.8836 312.219 19.1859C312.892 21.4629 313.738 23.4653 314.822 24.5718Z"></path>
<path fill="#4F4F4F" d="M312.762 31.144C313.002 31.144 313.182 31.196 313.302 31.3C313.422 31.404 313.482 31.552 313.482 31.744C313.482 32.144 313.242 32.344 312.762 32.344H312.15V33.292C312.15 33.54 312.078 33.732 311.934 33.868C311.798 34.004 311.618 34.072 311.394 34.072C311.17 34.072 310.986 34.004 310.842 33.868C310.706 33.732 310.638 33.54 310.638 33.292V32.344H307.494C307.278 32.344 307.11 32.284 306.99 32.164C306.87 32.036 306.81 31.88 306.81 31.696C306.81 31.504 306.874 31.32 307.002 31.144L310.71 25.816C310.79 25.704 310.89 25.62 311.01 25.564C311.13 25.5 311.254 25.468 311.382 25.468C311.59 25.468 311.77 25.536 311.922 25.672C312.074 25.808 312.15 26 312.15 26.248V31.144H312.762ZM308.406 31.144H310.638V27.916L308.406 31.144Z"></path>
<defs>
<filter color-interpolation-filters="sRGB" filterUnits="userSpaceOnUse" height="85.2792" width="84.1586" y="0.362305" x="0" id="filter0_d">
<feFlood result="BackgroundImageFix" flood-opacity="0"></feFlood>
<feColorMatrix values="0 0 0 0 0 0 0 0 0 0 0 0 0 0 0 0 0 0 127 0" type="matrix" in="SourceAlpha"></feColorMatrix>
<feOffset dy="4"></feOffset>
<feGaussianBlur stdDeviation="3"></feGaussianBlur>
<feColorMatrix values="0 0 0 0 0.113725 0 0 0 0 0.317647 0 0 0 0 0.635294 0 0 0 0.5 0" type="matrix"></feColorMatrix>
<feBlend result="effect1_dropShadow" in2="BackgroundImageFix" mode="normal"></feBlend>
<feBlend result="shape" in2="effect1_dropShadow" in="SourceGraphic" mode="normal"></feBlend>
</filter>
<filter color-interpolation-filters="sRGB" filterUnits="userSpaceOnUse" height="68" width="67" y="0" x="98" id="filter1_d">
<feFlood result="BackgroundImageFix" flood-opacity="0"></feFlood>
<feColorMatrix values="0 0 0 0 0 0 0 0 0 0 0 0 0 0 0 0 0 0 127 0" type="matrix" in="SourceAlpha"></feColorMatrix>
<feOffset dy="4"></feOffset>
<feGaussianBlur stdDeviation="3"></feGaussianBlur>
<feColorMatrix values="0 0 0 0 0.113725 0 0 0 0 0.317647 0 0 0 0 0.635294 0 0 0 0.5 0" type="matrix"></feColorMatrix>
<feBlend result="effect1_dropShadow" in2="BackgroundImageFix" mode="normal"></feBlend>
<feBlend result="shape" in2="effect1_dropShadow" in="SourceGraphic" mode="normal"></feBlend>
</filter>
<linearGradient gradientUnits="userSpaceOnUse" y2="33.7366" x2="104.833" y1="18.4837" x1="14.6227" id="paint0_linear">
<stop stop-color="#57107C"></stop>
<stop stop-color="#57107C" offset="0.151042"></stop>
<stop stop-color="#1D51A2" offset="1"></stop>
</linearGradient>
<linearGradient gradientUnits="userSpaceOnUse" y2="25.9173" x2="179.341" y1="14.32" x1="110.572" id="paint1_linear">
<stop stop-color="#57107C"></stop>
<stop stop-color="#57107C" offset="0.151042"></stop>
<stop stop-color="#1D51A2" offset="1"></stop>
</linearGradient>
</defs>
</svg>
