<svg xmlns="http://www.w3.org/2000/svg" xmlns:xlink="http://www.w3.org/1999/xlink" id="Capa_1" x="0px" y="0px" viewBox="0 0 300 300" style="enable-background:new 0 0 300 300;" xml:space="preserve">
<style type="text/css">
	.st0{fill:#020203;}
</style>
<path class="st0" d="M243.8,126.7c0,0,0-0.1,0-0.2c0-0.1,0-0.2,0-0.2V126c0-0.2-0.1-0.3-0.2-0.5c-0.1-0.2-0.3-0.3-0.6-0.3  c0.2,0,0.4-0.1,0.5-0.2c0.2-0.1,0.3-0.3,0.3-0.6c0-0.4-0.2-0.7-0.5-0.8c-0.2-0.1-0.5-0.1-0.9-0.1h-1.1v3.3h0.6v-1.3h0.5  c0.3,0,0.5,0,0.6,0.1c0.2,0.1,0.3,0.4,0.3,0.7v0.3l0,0.1c0,0,0,0,0,0c0,0,0,0,0,0L243.8,126.7L243.8,126.7z M242.9,124.9  c-0.1,0-0.3,0.1-0.6,0.1h-0.5v-1.2h0.5c0.3,0,0.6,0,0.7,0.1c0.1,0.1,0.2,0.2,0.2,0.5C243.3,124.7,243.1,124.9,242.9,124.9z   M244.6,123c-0.6-0.6-1.3-0.9-2.1-0.9c-0.8,0-1.5,0.3-2.1,0.9c-0.6,0.6-0.9,1.3-0.9,2.1c0,0.8,0.3,1.5,0.9,2.1  c0.6,0.6,1.3,0.9,2.1,0.9c0.8,0,1.5-0.3,2.1-0.9c0.6-0.6,0.9-1.3,0.9-2.1C245.5,124.3,245.2,123.6,244.6,123z M244.3,126.9  c-0.5,0.5-1.1,0.8-1.8,0.8c-0.7,0-1.3-0.3-1.8-0.8c-0.5-0.5-0.7-1.1-0.7-1.8s0.2-1.3,0.8-1.8c0.5-0.5,1.1-0.8,1.8-0.8  c0.7,0,1.3,0.2,1.8,0.8c0.5,0.5,0.8,1.1,0.8,1.8C245.1,125.8,244.8,126.4,244.3,126.9z M96.6,154c-3.4,5.2-8.8,5.2-13,5.2H54.5  v-42.6H82c3.3,0,8.8,0.1,12,3.6c1.9,2.1,2.4,4.7,2.4,6.7c0.1,6.2-4,8.3-7.1,9.3c3.1,0.7,9.2,2.7,9.2,10.7  C98.4,150.2,97.5,152.7,96.6,154z M81,124.1H64.9v9.3h15.3c0.9,0,5.9,0.3,5.9-4.7C86,124.1,82.4,124.1,81,124.1z M82.2,140.8H64.9  v10.9h16.4c1.7,0,6.6,0.1,6.6-5.8C87.8,140.9,83.8,140.8,82.2,140.8z M154.7,134.3c0-1.5,0.8-3.4,6.9-3.4c6,0,7,2.3,7.5,4.5  c0,0.2,0.1,0.4,0.1,0.8H180c-0.1-3.7-1.8-6-1.8-6c-3.4-5.1-10.9-6.2-17.4-6.2c-13.3,0-17.2,6.5-17.2,11.5c0,12.8,26.2,7.6,26.3,14.2  c0,1.6-1.4,3.6-7.1,3.6c-7,0-9.3-2.1-9.3-5.1h-11.5c0.3,9.2,10.8,11.8,20.5,11.8c6.6,0,18.6-1.8,18.6-11.8  C181.2,135.8,154.7,139.7,154.7,134.3z M209.8,134.3c0-1.5,0.8-3.4,6.9-3.4c6,0,7,2.3,7.5,4.5c0,0.2,0.1,0.4,0.1,0.8h10.9  c-0.1-3.7-1.8-6-1.8-6c-3.4-5.1-10.9-6.2-17.4-6.2c-13.3,0-17.2,6.5-17.2,11.5c0,12.8,26.2,7.6,26.3,14.2c0,1.6-1.4,3.6-7.1,3.6  c-7,0-9.3-2.1-9.3-5.1h-11.5c0.3,9.2,10.8,11.8,20.5,11.8c6.6,0,18.6-1.8,18.6-11.8C236.3,135.8,209.8,139.7,209.8,134.3z   M194.7,124.1h-10.4v35.1h10.4V124.1z M194.7,116.6h-10.4v4.3h10.4V116.6z M134.8,127.6c-3.1-2.3-7.7-3.5-13.6-3.5  c-6,0-10.5,1.2-13.6,3.5c-1,0.7-1.8,1.6-2.5,2.6c0,0-1.5,2.1-2,4.9c-0.1,0.4-0.1,0.8-0.1,1.2h10.4c0.1-0.5,0.2-0.9,0.3-1.3  c0.5-1.4,1.4-2.6,2.7-3.3c0.1-0.1,0.3-0.2,0.4-0.2c0,0,0,0,0.1,0c0.3-0.2,0.6-0.3,0.9-0.4c0.1,0,0.1,0,0.1,0c1-0.3,2-0.5,3.3-0.5  c5.1,0,8,3,8,8.1h-9.4c-4,0-10.5,0-14.3,2c-1.8,1-4.5,3.3-4.5,8.8c0,2.7,0.8,4.9,2.5,6.9c2.1,2.5,5.6,4.2,12.1,4.2h1.9  c6.2,0,9.6-1.5,11.8-3.8v2.8h10.5v-20.7C139.6,133.7,138,130,134.8,127.6z M129.3,146.8c0,4.4-5.9,7.1-11.7,7.1  c-2.5,0-6.1-1-6.1-4.3c0-3.9,4-4.9,8.9-5.4c3.3-0.3,7.6-0.3,8.9-0.3V146.8z M198.2,170.2h4.7c4.2,0,7,3,7,6.8c0,3.9-2.8,6.8-7,6.8  h-4.7V170.2z M202.9,182.4c3.3,0,5.2-2.4,5.2-5.3c0-3-1.9-5.3-5.2-5.3h-3v10.6H202.9z M213.7,180.7c0.9,1,2.4,1.9,4.3,1.9  c2.4,0,3.2-1.3,3.2-2.4c0-1.6-1.7-2.1-3.5-2.6c-2.2-0.6-4.6-1.2-4.6-3.9c0-2.3,2-3.8,4.7-3.8c2.1,0,3.7,0.7,4.9,1.9l-1,1.2  c-1-1.1-2.5-1.6-4-1.6c-1.6,0-2.8,0.9-2.8,2.2c0,1.4,1.6,1.8,3.3,2.3c2.2,0.6,4.8,1.3,4.8,4.2c0,2-1.4,4-5,4c-2.4,0-4.1-0.9-5.2-2.2  L213.7,180.7z M226.5,170.2h5.5c2.7,0,4.3,1.9,4.3,4.1c0,2.2-1.6,4.1-4.3,4.1h-3.8v5.4h-1.7V170.2z M231.8,171.7h-3.6v5.2h3.6  c1.6,0,2.7-1.1,2.7-2.6S233.4,171.7,231.8,171.7z"></path>
</svg>